<svg width="192" height="180" viewBox="0 0 192 180" fill="none" xmlns="http://www.w3.org/2000/svg">
<g clip-path="url(#clip0_677_3747)">
<path d="M184.431 81.9061C183.249 58.2544 173.396 34.6659 155.636 18.7191C127.739 -6.35822 73.3919 -5.82113 44.758 17.7713C34.8258 25.954 28.9926 36.7669 26.6948 49.3095C24.2512 62.7367 27.4476 77.3171 22.1899 90.2428C17.6731 101.348 6.5388 108.152 2.40827 119.384C-2.51841 132.811 0.114409 149.836 10.8112 159.8C24.5113 172.568 48.9634 177.488 66.9754 179.348C122.004 185.031 180.021 153.003 184.317 93.1455C184.584 89.4048 184.622 85.6514 184.431 81.9061Z" fill="#8ACCA1"/>
<path opacity="0.7" d="M184.431 81.9061C183.249 58.2544 173.396 34.6659 155.636 18.7191C127.739 -6.35822 73.3919 -5.82113 44.758 17.7713C34.8258 25.954 28.9926 36.7669 26.6948 49.3095C24.2512 62.7367 27.4476 77.3171 22.1899 90.2428C17.6731 101.348 6.5388 108.152 2.40827 119.384C-2.51841 132.811 0.114409 149.836 10.8112 159.8C24.5113 172.568 48.9634 177.488 66.9754 179.348C122.004 185.031 180.021 153.003 184.317 93.1455C184.584 89.4048 184.622 85.6514 184.431 81.9061Z" fill="white"/>
<path d="M154.343 65.8567V23.9163H158.781V19.5919H172.099V23.0514H175.587V94.824H185.097V107.363H191.124" stroke="#58595B" stroke-miterlimit="10"/>
<path d="M111.217 71.4764V39.0496H120.412V46.8295H124.854V35.5901H134.684V84.015H142.925V101.309H149.586V74.5014H154.343V68.8817" stroke="#58595B" stroke-miterlimit="10"/>
<path d="M76.6553 49.8585V107.363H82.047V73.6365H89.6578V102.173H111.217V76.6656" stroke="#58595B" stroke-miterlimit="10"/>
<path d="M59.8494 92.2293V21.3217H76.6552V45.1037" stroke="#58595B" stroke-miterlimit="10"/>
<path d="M27.1914 71.4763V79.6907H31.9486V42.509H50.9735V100.013H59.8494V94.3895" stroke="#58595B" stroke-miterlimit="10"/>
<path d="M6.58203 107.363H13.5582V53.7484H27.1913V67.152" stroke="#58595B" stroke-miterlimit="10"/>
<path d="M175.074 5.40249C175.074 5.40249 172.54 0.319883 167.783 0.947804C163.026 1.57572 162.395 6.35424 161.126 6.67413C159.857 6.99401 157.003 5.09445 155.1 6.03831C153.196 6.98216 151.947 9.19765 151.947 9.19765C151.947 9.19765 149.408 8.2459 147.505 9.19765C146.287 9.85602 145.286 10.8548 144.624 12.0727H184.273C184.273 12.0727 183.954 6.99006 181.101 6.03831C178.247 5.08655 176.343 7.94576 175.074 5.40249Z" stroke="#58595B" stroke-miterlimit="10"/>
<path d="M120.526 23.6635C120.526 23.6635 118.65 19.9039 115.135 20.3738C111.619 20.8438 111.15 24.3665 110.216 24.6034C109.282 24.8404 107.165 23.4187 105.762 24.1335C104.359 24.8483 103.417 26.503 103.417 26.503C103.417 26.503 101.541 25.7961 100.134 26.503C99.2455 26.9824 98.5136 27.7076 98.0251 28.5921H127.325C127.325 28.5921 127.089 24.8325 124.98 24.1295C122.871 23.4266 121.464 25.5433 120.526 23.6635Z" stroke="#58595B" stroke-miterlimit="10"/>
<path d="M21.2596 10.1336C21.2596 10.1336 19.683 6.97426 16.7073 7.36918C13.7316 7.7641 13.3414 10.7418 12.5492 10.9234C11.757 11.1051 9.97552 9.9322 8.78917 10.5285C7.97736 11.0106 7.29966 11.6897 6.8185 12.5031C6.8185 12.5031 5.24197 11.9068 4.05956 12.5031C3.30473 12.9114 2.6855 13.5318 2.27808 14.2882H27.0061C27.0061 14.2882 26.809 11.1288 25.0354 10.5167C23.2618 9.90456 22.0478 11.7212 21.2596 10.1336Z" stroke="#58595B" stroke-miterlimit="10"/>
<path d="M166.301 121.524L158.694 149.295H175.291L167.685 121.524C167.643 121.373 167.553 121.239 167.428 121.143C167.303 121.048 167.15 120.996 166.993 120.996C166.836 120.996 166.683 121.048 166.558 121.143C166.433 121.239 166.343 121.373 166.301 121.524Z" fill="white" stroke="#58595B" stroke-miterlimit="10"/>
<path d="M158.687 149.295H172.911L165.797 123.329L158.687 149.295Z" fill="#58595B" stroke="#58595B" stroke-miterlimit="10"/>
<path d="M161.721 138.202H172.245L170.826 133.032H163.14L161.721 138.202Z" fill="white" stroke="#58595B" stroke-miterlimit="10"/>
<path d="M177.238 148.829H156.743C156.448 148.829 156.164 148.947 155.955 149.156C155.745 149.366 155.628 149.65 155.628 149.947C155.627 150.094 155.656 150.24 155.712 150.376C155.768 150.512 155.85 150.635 155.953 150.74C156.057 150.844 156.18 150.926 156.316 150.983C156.451 151.039 156.597 151.068 156.743 151.068H177.238C177.535 151.068 177.82 150.95 178.03 150.74C178.24 150.529 178.358 150.244 178.358 149.947C178.357 149.65 178.238 149.366 178.028 149.156C177.819 148.947 177.534 148.829 177.238 148.829Z" fill="white" stroke="#58595B" stroke-miterlimit="10"/>
<path d="M172.213 149.947C172.213 149.65 172.095 149.366 171.886 149.156C171.677 148.947 171.393 148.829 171.098 148.829H156.731C156.447 148.846 156.179 148.971 155.983 149.179C155.787 149.388 155.678 149.663 155.678 149.949C155.678 150.235 155.787 150.51 155.983 150.718C156.179 150.926 156.447 151.051 156.731 151.068H171.102C171.397 151.066 171.68 150.947 171.888 150.737C172.096 150.527 172.213 150.243 172.213 149.947Z" fill="#58595B" stroke="#58595B" stroke-miterlimit="10"/>
<path d="M32.7211 151.017H32.591C31.9565 150.968 31.3449 150.757 30.8139 150.405C30.283 150.054 29.8501 149.572 29.5562 149.007L13.2863 117.978L11.3157 117.662C11.2122 117.646 11.1129 117.609 11.0235 117.554C10.9341 117.5 10.8563 117.428 10.7947 117.343C10.733 117.258 10.6886 117.162 10.6641 117.06C10.6395 116.957 10.6353 116.852 10.6516 116.748C10.6679 116.644 10.7044 116.545 10.7591 116.455C10.8138 116.365 10.8855 116.288 10.9702 116.226C11.055 116.164 11.151 116.12 11.2529 116.095C11.3548 116.07 11.4605 116.066 11.564 116.082L13.9051 116.477C14.0249 116.495 14.139 116.539 14.2388 116.608C14.3386 116.676 14.4213 116.767 14.4806 116.872L30.9514 148.252C31.1207 148.584 31.3717 148.867 31.6808 149.075C31.9898 149.282 32.3465 149.407 32.7172 149.437C33.2165 149.474 33.7136 149.34 34.1273 149.058C34.541 148.775 34.8469 148.36 34.9953 147.881L38.5779 135.974C38.6427 135.772 38.7842 135.603 38.9721 135.504C39.0637 135.455 39.1642 135.425 39.2677 135.415C39.3712 135.404 39.4757 135.415 39.5751 135.445L63.1364 142.637L55.5099 127.819C55.4626 127.727 55.4338 127.626 55.4253 127.523C55.4168 127.419 55.4288 127.315 55.4604 127.216C55.4921 127.118 55.5428 127.026 55.6098 126.947C55.6768 126.868 55.7587 126.803 55.8509 126.755C55.943 126.708 56.0435 126.679 56.1468 126.67C56.25 126.662 56.3539 126.674 56.4526 126.705C56.5512 126.737 56.6426 126.788 56.7216 126.855C56.8007 126.922 56.8657 127.004 56.9131 127.097L65.3791 143.577C65.4501 143.715 65.4789 143.871 65.462 144.025C65.4451 144.179 65.3831 144.325 65.2839 144.445C65.1846 144.564 65.0525 144.651 64.9039 144.695C64.7554 144.74 64.5972 144.739 64.4489 144.694L39.8589 137.191L36.5048 148.343C36.2574 149.145 35.752 149.842 35.0675 150.326C34.383 150.81 33.5579 151.053 32.7211 151.017Z" fill="white" stroke="#58595B" stroke-miterlimit="10"/>
<path d="M11.4063 118.262C11.3644 118.266 11.3221 118.266 11.2802 118.262L3.49208 117.196C3.12989 117.144 2.80328 116.949 2.58413 116.656C2.36497 116.362 2.27121 115.993 2.32348 115.63C2.37574 115.267 2.56975 114.94 2.86282 114.72C3.15589 114.501 3.52402 114.407 3.88622 114.459L11.6743 115.526C12.0402 115.559 12.378 115.736 12.6134 116.018C12.8488 116.301 12.9626 116.666 12.9296 117.032C12.8967 117.399 12.7198 117.737 12.4378 117.973C12.1558 118.209 11.7919 118.323 11.426 118.29L11.4063 118.262Z" fill="#58595B" stroke="#58595B" stroke-miterlimit="10"/>
<path d="M71.6459 144.256C71.7084 142.875 71.3607 141.506 70.6469 140.323C69.933 139.14 68.8851 138.195 67.6355 137.609C66.3859 137.023 64.9908 136.821 63.6267 137.029C62.2626 137.237 60.9908 137.846 59.972 138.778C58.9532 139.711 58.2333 140.925 57.9032 142.267C57.5731 143.61 57.6478 145.02 58.1178 146.32C58.5877 147.62 59.4318 148.751 60.5433 149.57C61.6548 150.389 62.9839 150.86 64.3623 150.922C66.2103 151.006 68.0158 150.35 69.3817 149.1C70.7476 147.85 71.562 146.108 71.6459 144.256Z" fill="#58595B" stroke="#58595B" stroke-miterlimit="10"/>
<path d="M66.3737 146.267C67.6574 145.329 67.9389 143.526 67.0025 142.239C66.066 140.953 64.2662 140.671 62.9824 141.609C61.6986 142.548 61.4171 144.351 62.3536 145.637C63.2901 146.924 65.0899 147.206 66.3737 146.267Z" fill="white" stroke="#58595B" stroke-miterlimit="10"/>
<path d="M22.2844 118.069C22.2844 118.069 37.6123 109.673 41.2423 109.701C44.8723 109.728 57.9575 119.842 57.9575 119.842L22.2844 118.069Z" fill="#58595B" stroke="#58595B" stroke-miterlimit="10"/>
<path d="M19.8171 116.971L24.5507 135.662L52.01 136.918L63.0221 118.95L19.8171 116.971Z" fill="white" stroke="#58595B" stroke-miterlimit="10"/>
<path d="M4.85962 151.187H185.121" stroke="#58595B" stroke-miterlimit="10"/>
<path d="M101.943 139.023L101.407 150.227C101.407 150.227 100.422 152.111 99.9762 152.739C99.5308 153.367 97.5601 153.635 96.8231 154.8C96.3905 155.626 96.2343 156.569 96.3777 157.49C96.3777 157.49 97.0044 158.208 98.6125 158.208H103.342C104.218 158.177 105.088 158.056 105.939 157.849C106.385 157.758 107.461 157.49 107.729 157.13C107.997 156.771 108.442 155.519 108.355 153.904C108.269 152.289 107.638 150.855 107.638 149.955C107.638 149.054 110.728 139.833 110.728 139.833L101.943 139.023Z" fill="#58595B" stroke="#58595B" stroke-miterlimit="10"/>
<path d="M148.829 138.774C148.829 138.774 148.829 149.536 148.92 149.804C149.01 150.073 151.781 152.044 151.781 152.044C151.781 152.044 156.345 152.762 156.881 153.39C157.417 154.018 157.598 155.365 157.417 155.811C157.236 156.257 152.944 156.795 151.422 156.795C150.282 156.765 149.147 156.646 148.025 156.439C148.025 156.439 147.217 155.989 146.681 156.257L146.145 156.526H142.03C142.03 156.526 141.313 154.105 141.313 152.494C141.355 151.311 141.534 150.136 141.849 148.995L141.132 140.212L148.829 138.774Z" fill="#58595B" stroke="#58595B" stroke-miterlimit="10"/>
<path d="M110.18 94.4014C110.18 94.4014 107.169 101.944 107.295 104.334C107.421 106.723 106.29 121.686 106.29 121.686C106.29 121.686 103.279 127.973 102.526 131.496C101.773 135.019 101.269 138.913 101.663 140.046C102.057 141.179 107.059 142.183 109.317 141.681C111.576 141.179 112.955 139.541 113.081 139.165C113.207 138.79 114.465 134.513 114.587 132.377C114.709 130.24 114.713 127.472 114.713 127.472C114.713 127.472 116.849 123.195 117.472 121.058C118.095 118.922 124.361 111.13 124.361 111.13L137.411 127.717C137.411 127.717 139.922 134.383 139.922 135.765C139.922 137.147 139.669 140.042 141.175 140.923C142.681 141.803 145.822 141.551 147.45 141.049C149.077 140.548 150.339 139.414 150.713 136.144C151.088 132.874 150.086 131.994 150.086 128.349C150.086 124.703 147.075 112.125 144.569 108.855C142.062 105.585 138.294 101.186 138.294 101.186C138.294 101.186 128.441 104.203 125.217 103.011C121.993 101.818 110.18 94.4014 110.18 94.4014Z" fill="#58595B" stroke="#58595B" stroke-miterlimit="10"/>
<path d="M146.988 95.7283C146.988 95.7283 146.019 99.7683 146.019 102.351C146.019 104.934 145.861 115.435 145.861 116.173C145.861 116.912 144.568 119.404 144.088 120.122C143.607 120.841 144.411 122.302 144.411 122.302C144.411 122.302 146.18 124.08 146.744 124.399C147.308 124.719 148.6 124.723 149.002 124.241C149.404 123.76 151.178 122.14 151.261 121.414C151.344 120.687 149.728 116.809 149.728 116.327C149.728 115.845 153.192 102.841 153.192 100.578C153.192 98.315 153.275 95.0885 153.275 95.0885L146.988 95.7283Z" fill="white" stroke="#58595B" stroke-miterlimit="10"/>
<path d="M148.987 124.253C149.381 123.768 151.162 122.152 151.245 121.426C151.328 120.699 149.712 116.821 149.712 116.339C149.712 116.26 149.803 115.861 149.948 115.241L145.857 114.973C145.857 115.612 145.857 116.047 145.857 116.157C145.857 116.884 144.565 119.388 144.084 120.107C143.603 120.825 144.407 122.287 144.407 122.287C144.407 122.287 146.177 124.064 146.74 124.384C147.304 124.703 148.585 124.735 148.987 124.253Z" fill="#8ACCA1" stroke="#58595B" stroke-miterlimit="10"/>
<path d="M155.112 76.2864C155.323 77.8646 155.403 79.4577 155.352 81.0492C155.273 83.7149 155.112 86.0567 155.112 86.0567L155.998 95.3334C155.998 95.3334 151.084 96.8696 149.148 96.8696C148.124 96.9101 147.104 96.717 146.165 96.3049V90.2547C146.165 90.2547 147.86 86.7834 148.987 84.0387C150.114 81.294 152.857 75.9626 153.015 75.6388C153.173 75.3149 155.112 76.2864 155.112 76.2864Z" fill="#A1A1A1" stroke="#58595B" stroke-miterlimit="10"/>
<path d="M148.664 87.589C148.664 87.589 152.211 86.8624 153.902 84.5205" stroke="#58595B" stroke-miterlimit="10"/>
<path d="M153.823 86.1357C153.823 86.1357 152.774 87.0243 150.358 87.589" stroke="#58595B" stroke-miterlimit="10"/>
<path d="M145.522 63.8505C145.522 63.8505 139.236 62.717 135.771 61.7495C132.307 60.7819 130.21 60.5371 128.839 61.2637C127.467 61.9904 119.167 77.6568 118.524 78.5454C117.882 79.4339 112.722 85.259 111.351 88.8133C110.41 91.3725 109.63 93.988 109.014 96.6445C109.014 96.6445 118.28 107.062 122.875 107.627L124.326 107.789L127.309 103.591L127.388 107.386C129.278 106.937 131.115 106.287 132.867 105.447C136.252 103.915 139.961 101.498 140.04 101.103C140.119 100.708 139.153 100.053 139.153 100.053C139.153 100.053 141.412 96.3404 142.46 95.4518C143.508 94.5633 148.423 88.2248 148.423 88.2248C148.423 88.2248 153.661 80.0698 153.823 77.0012C153.984 73.9327 154.465 69.7308 153.429 68.1985C152.392 66.6662 145.522 63.8505 145.522 63.8505Z" fill="#8ACCA1" stroke="#58595B" stroke-miterlimit="10"/>
<path d="M140.04 101.075C140.123 100.681 139.153 100.025 139.153 100.025C139.153 100.025 139.713 99.1048 140.406 98.0702C136.465 98.5362 131.081 98.7534 126.687 97.4067C122.292 96.06 117.137 89.9822 113.578 84.9036C112.728 86.0759 112.001 87.3332 111.41 88.6553C115.079 93.6589 120.333 99.5906 125.536 101.182C128.518 102.023 131.606 102.422 134.703 102.367C136.067 102.367 137.391 102.304 138.645 102.205C139.472 101.652 140.012 101.226 140.04 101.075Z" fill="white" stroke="#58595B" stroke-miterlimit="10"/>
<path d="M134.538 88.6198C129.686 86.4951 124.03 78.7112 121.07 74.0078C120.132 75.698 119.348 77.1158 118.899 77.9017C122.02 82.5972 127.499 89.8361 132.961 92.2333C135.078 93.1613 138.199 93.6273 142.283 93.6273C142.866 93.6273 143.465 93.6273 144.092 93.5957C145.191 92.2885 146.547 90.5904 147.446 89.453C142.259 89.8795 137.25 89.8243 134.538 88.6198Z" fill="white" stroke="#58595B" stroke-miterlimit="10"/>
<path d="M155.92 158.437C155.819 158.437 155.719 158.412 155.631 158.363C155.543 158.314 155.469 158.243 155.415 158.157L144.624 140.631C144.577 140.564 144.545 140.49 144.529 140.41C144.512 140.331 144.512 140.25 144.529 140.171C144.545 140.091 144.577 140.016 144.623 139.95C144.67 139.884 144.729 139.828 144.798 139.786C144.866 139.743 144.943 139.716 145.023 139.704C145.102 139.692 145.184 139.697 145.262 139.718C145.339 139.739 145.412 139.776 145.475 139.826C145.538 139.877 145.591 139.939 145.629 140.011L156.428 157.533C156.469 157.599 156.497 157.673 156.509 157.749C156.522 157.826 156.519 157.905 156.501 157.98C156.483 158.056 156.45 158.127 156.404 158.19C156.359 158.253 156.301 158.306 156.235 158.347C156.141 158.408 156.031 158.44 155.92 158.437Z" fill="white" stroke="#58595B" stroke-miterlimit="10"/>
<path d="M119.892 106.565C119.892 106.565 118.122 108.587 118.201 109.392C118.28 110.198 122.875 120.778 123.601 121.343C124.326 121.907 126.502 122.231 126.502 122.231L129.966 126.927L138.428 121.84L127.952 104.547C127.952 104.547 126.261 103.255 125.213 103.015C124.164 102.774 123.68 102.529 123.037 103.015C122.395 103.5 119.892 106.565 119.892 106.565Z" fill="#A1A1A1" stroke="#58595B" stroke-miterlimit="10"/>
<path d="M129.966 126.927L144.001 140.99C144.239 141.229 144.559 141.368 144.896 141.382C145.232 141.395 145.562 141.28 145.818 141.061C146.036 140.874 146.188 140.622 146.251 140.341C146.314 140.061 146.285 139.768 146.169 139.505L138.428 121.84L129.966 126.927Z" fill="#A1A1A1" stroke="#58595B" stroke-miterlimit="10"/>
<path d="M123.924 108.828C123.924 108.828 128.76 118.195 132.465 124.253" stroke="#58595B" stroke-miterlimit="10"/>
<path d="M126.494 122.231L121.256 113.271C121.256 113.271 120.861 113.752 121.74 115.691C122.4 117.053 123.182 118.351 124.078 119.57" stroke="#58595B" stroke-miterlimit="10"/>
<path d="M133.43 130.469L140.28 126.267" stroke="#58595B" stroke-miterlimit="10"/>
<path d="M134.558 131.678L141.006 127.883" stroke="#58595B" stroke-miterlimit="10"/>
<path d="M131.984 114.171C132.52 115.3 132.283 116.541 131.46 116.935C130.636 117.33 129.536 116.734 129 115.608C128.464 114.483 128.697 113.239 129.521 112.844C130.344 112.449 131.448 113.045 131.984 114.171Z" fill="white" stroke="#58595B" stroke-miterlimit="10"/>
<path d="M140.986 129.431L145.183 120.521C145.302 120.27 145.476 120.048 145.691 119.872C145.906 119.696 146.158 119.57 146.428 119.503C146.697 119.437 146.979 119.431 147.251 119.487C147.523 119.543 147.779 119.659 148.001 119.826C148.395 120.121 148.657 120.56 148.73 121.047C148.804 121.534 148.684 122.03 148.396 122.429L142.574 130.378C142.498 130.482 142.401 130.569 142.29 130.633C142.178 130.697 142.055 130.738 141.927 130.752C141.799 130.766 141.67 130.754 141.547 130.715C141.425 130.677 141.311 130.613 141.214 130.529C141.063 130.395 140.958 130.216 140.917 130.018C140.876 129.82 140.9 129.614 140.986 129.431Z" fill="#A1A1A1" stroke="#58595B" stroke-miterlimit="10"/>
<path d="M115.702 74.0078C115.702 74.0078 112.64 79.3392 112.238 80.1448C111.836 80.9504 117.961 98.9587 117.961 98.9587C117.961 98.9587 117.397 103.642 117.397 104.29C117.397 104.938 119.49 106.308 119.892 106.549C120.345 106.828 120.832 107.046 121.342 107.197C121.91 107.359 123.601 107.118 123.601 107.118C123.601 107.118 122.714 104.531 123.037 103.725C123.36 102.92 123.825 102.754 124.164 102.754C124.521 102.798 124.873 102.88 125.213 102.999C125.216 102.291 125.136 101.586 124.972 100.898C124.728 100.171 121.989 98.4769 121.748 98.0702C121.508 97.6634 118.765 81.5191 118.765 81.5191L119.49 79.9829L115.702 74.0078Z" fill="white" stroke="#58595B" stroke-miterlimit="10"/>
<path d="M121.764 98.0978C121.639 97.6715 121.541 97.2375 121.472 96.7985C120.227 96.7551 118.575 97.5173 117.645 98.0149L117.976 98.9864C117.976 98.9864 117.413 103.67 117.413 104.318C117.413 104.965 119.505 106.336 119.907 106.577C120.36 106.856 120.848 107.074 121.358 107.224C121.925 107.386 123.616 107.145 123.616 107.145C123.616 107.145 122.729 104.559 123.053 103.753C123.376 102.947 123.841 102.782 124.18 102.782C124.537 102.825 124.889 102.907 125.228 103.026C125.232 102.319 125.151 101.614 124.988 100.925C124.728 100.187 121.989 98.4927 121.764 98.0978Z" fill="#8ACCA1" stroke="#58595B" stroke-miterlimit="10"/>
<path d="M131.338 65.3195C131.338 65.3195 131.338 62.8947 130.943 62.33C129.875 60.8333 129.655 60.9557 128.847 61.2795C127.246 61.9471 125.709 62.7587 124.255 63.7043C123.045 64.5929 113.858 73.2337 113.858 73.2337L119.498 81.4678L125.461 77.8345C126.203 77.4164 126.905 76.9299 127.558 76.3812C128.598 75.4768 131.661 70.2284 131.338 65.3195Z" fill="#A1A1A1" stroke="#58595B" stroke-miterlimit="10"/>
<path d="M149.736 158.615H159.857" stroke="#58595B" stroke-miterlimit="10"/>
<path d="M162.746 158.564L160.807 158.757L160.905 159.535L164.153 159.389L162.746 158.564Z" stroke="#58595B" stroke-miterlimit="10"/>
<path d="M165.363 158.082L166.333 158.809L168.902 158.516L170.16 158.228L169.434 157.596C169.434 157.596 168.126 157.304 167.98 157.304C167.834 157.304 166.577 157.403 166.577 157.403L165.363 158.082Z" stroke="#58595B" stroke-miterlimit="10"/>
<path d="M164.445 157.936L163.656 157.012L162.301 157.644C162.301 157.644 163.463 158.275 163.656 158.323C163.85 158.37 164.445 157.936 164.445 157.936Z" stroke="#58595B" stroke-miterlimit="10"/>
<path d="M161.97 156.866H159.837L159.305 157.498L160.953 157.738L161.97 156.866Z" stroke="#58595B" stroke-miterlimit="10"/>
<path d="M158.387 157.107L157.22 157.059L156.834 157.644L158.143 157.738L158.387 157.107Z" stroke="#58595B" stroke-miterlimit="10"/>
<path d="M140.765 64.739C140.765 64.739 139.476 67.4837 139.236 73.056C138.995 78.6283 138.995 81.452 138.842 82.7434C138.688 84.0348 138.448 86.5385 138.448 86.5385C138.448 86.5385 142.156 83.3121 143.768 81.1282C145.38 78.9443 145.782 75.315 145.782 75.315L147.635 69.5017C147.635 69.5017 148.443 67.6456 148.281 67.0769C148.12 66.5083 145.459 65.0589 143.366 64.818C141.273 64.5771 140.765 64.739 140.765 64.739Z" fill="#A1A1A1" stroke="#58595B" stroke-miterlimit="10"/>
<path d="M145.522 63.8505C145.522 63.8505 143.102 63.4555 141.813 63.8505C140.525 64.2454 140.04 67.0098 140.04 69.0989C140.04 71.1881 140.848 74.9122 141.411 75.8797C141.975 76.8473 142.2 76.8512 143.023 76.6064C143.963 76.2354 144.878 75.804 145.763 75.315C145.763 75.315 145.483 72.4123 145.845 70.6312C146.208 68.8501 148.502 65.6236 148.502 65.6236L145.522 63.8505Z" fill="white" stroke="#58595B" stroke-miterlimit="10"/>
<path d="M144.58 70.6944C143.878 71.4714 143.373 72.4059 143.106 73.4193C142.798 74.5402 142.419 75.6402 141.971 76.713C141.971 76.713 144.805 76.1443 146.504 74.4422C148.202 72.7401 144.58 70.6944 144.58 70.6944Z" fill="#58595B" stroke="#58595B" stroke-miterlimit="10"/>
<path d="M147.808 62.3498C147.499 62.5166 147.235 62.7565 147.04 63.0488C146.622 63.6096 146.342 63.8899 146.062 63.8899C145.783 63.8899 144.947 63.4713 144.667 63.8189C144.387 64.1664 143.97 64.1703 144.6 65.0036C145.031 65.5685 145.497 66.1054 145.995 66.6109C145.995 66.6109 145.645 68.1511 146.204 68.8501C146.764 69.5491 150.319 69.5491 150.599 69.478C150.879 69.4069 151.296 69.7584 151.159 68.4315C151.021 67.1046 147.808 62.3498 147.808 62.3498Z" fill="#58595B" stroke="#58595B" stroke-miterlimit="10"/>
<path d="M153.74 75.9824C153.74 75.9824 152.345 77.7279 151.927 78.0083C151.509 78.2887 149.483 77.5897 149.483 77.5897C149.483 77.5897 147.513 78.8495 146.831 78.5691C146.149 78.2887 143.969 74.225 143.969 72.4873C143.969 70.7497 145.018 68.2933 145.018 68.2933C145.018 68.2933 144.947 66.3187 145.853 65.6355C146.76 64.9523 147.529 65.8487 147.67 66.5477C147.812 67.2467 146.973 68.5026 147.462 68.6447C147.95 68.7869 150.043 68.6447 150.043 68.6447C150.043 68.6447 152.345 74.9358 153.74 75.9824Z" fill="white" stroke="#58595B" stroke-miterlimit="10"/>
<path d="M150.11 74.7976C150.134 75.1676 150.286 75.5175 150.541 75.7861C150.796 76.0547 151.138 76.2248 151.505 76.2667" stroke="#58595B" stroke-miterlimit="10"/>
<path d="M148.088 74.9358C148.088 74.9358 147.808 76.1956 148.648 76.9104" stroke="#58595B" stroke-miterlimit="10"/>
<path d="M149.479 58.5309C149.479 58.5309 146.326 59.0364 146.579 60.932C146.831 62.8276 148.723 64.9799 148.975 66.2437C149.227 67.5074 150.236 71.9344 150.867 73.5773C151.497 75.2202 151.627 75.9824 153.267 76.7367C154.907 77.4909 157.681 78.3795 158.316 77.4949C158.95 76.6103 158.947 73.3206 158.947 73.3206C158.947 73.3206 161.973 70.414 162.1 66.2397C162.226 62.0654 160.46 59.5261 157.807 58.1478C155.155 56.7696 151.754 56.0034 149.479 58.5309Z" fill="white" stroke="#58595B" stroke-miterlimit="10"/>
<path d="M147.67 59.6959C147.67 59.6959 146.973 60.6042 147.808 62.3498C148.644 64.0953 149.972 65.7777 150.252 67.4561C150.532 69.1345 150.741 71.5119 152.274 72.6295C153.807 73.7471 156.672 74.6554 157.859 74.3079" stroke="#58595B" stroke-miterlimit="10"/>
<path d="M149.204 59.064C149.204 59.064 148.506 60.5331 149.275 61.6508C150.307 63.3553 151.215 65.1317 151.994 66.9664C152.625 68.4355 152.581 70.8129 155.762 72.0687" stroke="#58595B" stroke-miterlimit="10"/>
<path d="M58.2097 57.6068C58.2097 57.6068 59.9124 61.1611 61.8988 62.2945C63.8853 63.4279 75.3743 64.7114 75.3743 64.7114L77.5026 54.1947C77.5026 54.1947 73.8135 55.0477 72.2567 55.1899C70.6998 55.3321 68.9932 55.3321 68.9932 55.3321L58.2097 57.6068Z" fill="#A1A1A1" stroke="#58595B" stroke-miterlimit="10"/>
<path d="M60.9056 51.2091C60.074 51.5507 59.3063 52.0315 58.6354 52.6308C57.7841 53.4838 57.7841 57.3225 58.2098 57.6068C58.6354 57.8911 63.034 60.0237 63.7276 60.0237C64.4213 60.0237 68.1262 58.602 68.6937 57.749C69.2613 56.8959 70.1126 54.479 69.2613 53.0573C68.41 51.6356 61.8989 50.0717 60.9056 51.2091Z" fill="white" stroke="#58595B" stroke-miterlimit="10"/>
<path d="M62.0407 47.6548C62.0407 47.6548 59.061 54.1947 60.1961 56.0429C61.3312 57.8911 63.6015 58.1755 65.3199 57.1803C67.0383 56.1851 67.732 54.3369 68.0158 53.7682C68.2995 53.1995 71.4408 39.3892 71.4408 39.3892C71.4408 39.3892 72.7138 38.6823 73.4115 38.2558C73.951 37.88 74.4307 37.4247 74.8343 36.9052C74.8343 36.9052 76.805 36.0521 78.6613 35.128C79.6546 34.6304 78.1647 33.9196 77.7391 33.9196C77.3134 33.9196 75.8236 34.5593 75.8236 34.5593V32.9797C75.8236 32.9797 72.2764 32.9797 70.8614 33.1218C69.4465 33.264 68.1655 32.9797 67.1723 33.9749C66.1791 34.9701 65.7534 39.3734 65.7534 39.3734L62.0407 47.6548Z" fill="white" stroke="#58595B" stroke-miterlimit="10"/>
<path d="M77.7351 33.9196C77.3095 33.9196 75.8196 34.5593 75.8196 34.5593V32.9797C75.8196 32.9797 72.2724 32.9797 70.8575 33.1218C69.4425 33.264 68.1616 32.9797 67.1684 33.9749C66.1751 34.9701 65.7495 39.3734 65.7495 39.3734L65.6982 39.563C67.4161 40.4087 69.2744 40.9307 71.1807 41.1031L71.425 39.3734C71.425 39.3734 72.6981 38.6665 73.3957 38.24C73.9352 37.8642 74.4149 37.4089 74.8185 36.8894C74.8185 36.8894 76.7892 36.0363 78.6456 35.1122C79.6506 34.6304 78.1608 33.9196 77.7351 33.9196Z" fill="#8ACCA1" stroke="#58595B" stroke-linecap="round" stroke-linejoin="round"/>
<path d="M67.1685 33.9907C67.1685 33.9907 68.5952 31.862 69.0879 31.4355C69.5806 31.009 71.7838 31.5066 71.7838 31.5066C71.7838 31.5066 73.5534 33.7063 73.0568 34.0617C72.5602 34.4172 71.0862 33.5641 71.0862 33.5641L69.3835 33.9196" fill="#8ACCA1"/>
<path d="M67.1685 33.9907C67.1685 33.9907 68.5952 31.862 69.0879 31.4355C69.5806 31.009 71.7838 31.5066 71.7838 31.5066C71.7838 31.5066 73.5534 33.7063 73.0568 34.0617C72.5602 34.4172 71.0862 33.5641 71.0862 33.5641L69.3835 33.9196" stroke="#58595B" stroke-miterlimit="10"/>
<path d="M71.7837 31.5066C71.7837 31.5066 72.7769 31.1512 73.1277 31.2934C73.4785 31.4355 74.7594 33.3509 74.8303 33.8485C74.9013 34.3461 73.979 34.275 73.979 34.275L73.0567 34.0617L71.7837 31.5066Z" fill="#8ACCA1" stroke="#58595B" stroke-miterlimit="10"/>
<path d="M73.1277 31.2934C73.1277 31.2934 74.1209 31.2223 74.5466 31.5066C75.1081 31.8664 75.551 32.3843 75.8196 32.9955C76.1783 33.7853 74.8303 33.8485 74.8303 33.8485C74.8303 33.8485 74.3337 32.7862 74.1209 32.4307C73.8191 32.0269 73.4871 31.6467 73.1277 31.2934Z" fill="#8ACCA1" stroke="#58595B" stroke-miterlimit="10"/>
<path d="M74.5466 31.5066C74.5466 31.5066 75.7527 31.2223 76.1783 31.6488C76.604 32.0753 77.2386 33.2285 76.8878 33.4931C76.537 33.7577 75.8197 32.9955 75.8197 32.9955C75.8197 32.9955 74.9014 31.4355 74.5466 31.5066Z" fill="#8ACCA1" stroke="#58595B" stroke-miterlimit="10"/>
<path d="M27.6092 33.6155L27.9599 29.5952L15.9191 28.5408L15.5683 32.561L19.4939 32.9046L18.7766 41.1229L14.851 40.7793L14.5002 44.7996L26.541 45.854L26.8918 41.8337L22.9662 41.4902L23.6836 33.2719L27.6092 33.6155Z" fill="#58595B" stroke="#58595B" stroke-miterlimit="10"/>
<path d="M27.9599 29.5952L126.588 38.1847L126.064 42.1931L27.6091 33.6155L27.9599 29.5952Z" fill="white" stroke="#58595B" stroke-miterlimit="10"/>
<path d="M23.6803 33.2488L22.9641 41.4674L121.415 50.0805L122.131 41.862L23.6803 33.2488Z" fill="white" stroke="#58595B" stroke-miterlimit="10"/>
<path d="M26.8933 41.8132L26.543 45.8339L124.994 54.447L125.344 50.4263L26.8933 41.8132Z" fill="white" stroke="#58595B" stroke-miterlimit="10"/>
<path d="M28.5158 37.4106C28.4998 37.5493 28.4435 37.6803 28.3537 37.7871C28.264 37.8939 28.1448 37.9718 28.0112 38.0112C27.8775 38.0506 27.7352 38.0497 27.602 38.0086C27.4689 37.9675 27.3508 37.888 27.2624 37.78C27.1741 37.672 27.1194 37.5404 27.1052 37.4015C27.0911 37.2626 27.118 37.1226 27.1828 36.999C27.2475 36.8754 27.3472 36.7736 27.4693 36.7063C27.5914 36.6391 27.7305 36.6093 27.8694 36.6208C27.9642 36.6287 28.0564 36.6555 28.1406 36.6998C28.2248 36.744 28.2993 36.8048 28.3596 36.8785C28.4199 36.9522 28.4648 37.0373 28.4916 37.1287C28.5185 37.2201 28.5267 37.316 28.5158 37.4106V37.4106Z" stroke="#58595B" stroke-miterlimit="10"/>
<path d="M35.417 38.0149C35.4003 38.2029 35.3097 38.3765 35.1652 38.4976C35.0207 38.6187 34.8341 38.6773 34.6465 38.6606C34.4589 38.6438 34.2855 38.5531 34.1647 38.4083C34.0438 38.2635 33.9853 38.0765 34.0021 37.8885C34.0104 37.7954 34.0369 37.7049 34.0801 37.622C34.1233 37.5392 34.1823 37.4657 34.2539 37.4058C34.3254 37.3458 34.4081 37.3005 34.4971 37.2726C34.5861 37.2446 34.6797 37.2345 34.7726 37.2428C34.8655 37.2511 34.9559 37.2777 35.0386 37.321C35.1212 37.3642 35.1946 37.4234 35.2544 37.4951C35.3142 37.5668 35.3594 37.6496 35.3873 37.7388C35.4152 37.828 35.4253 37.9218 35.417 38.0149V38.0149Z" stroke="#58595B" stroke-miterlimit="10"/>
<path d="M42.3222 38.6191C42.3069 38.759 42.2507 38.8913 42.1607 38.9993C42.0707 39.1074 41.9509 39.1864 41.8163 39.2265C41.6816 39.2666 41.5382 39.2659 41.4039 39.2247C41.2696 39.1834 41.1505 39.1034 41.0614 38.9945C40.9723 38.8857 40.9173 38.753 40.9033 38.6129C40.8892 38.4729 40.9167 38.3318 40.9823 38.2074C41.0479 38.083 41.1487 37.9807 41.2721 37.9134C41.3954 37.8462 41.5359 37.8169 41.6758 37.8293C41.7706 37.8371 41.8628 37.864 41.947 37.9082C42.0312 37.9525 42.1057 38.0133 42.166 38.087C42.2263 38.1606 42.2712 38.2457 42.298 38.3371C42.3249 38.4286 42.3331 38.5244 42.3222 38.6191V38.6191Z" stroke="#58595B" stroke-miterlimit="10"/>
<path d="M104.264 44.0413C104.248 44.18 104.192 44.3109 104.102 44.4177C104.013 44.5246 103.893 44.6025 103.76 44.6419C103.626 44.6813 103.484 44.6804 103.351 44.6393C103.217 44.5981 103.099 44.5186 103.011 44.4107C102.923 44.3027 102.868 44.1711 102.854 44.0322C102.84 43.8933 102.867 43.7533 102.931 43.6297C102.996 43.506 103.096 43.4042 103.218 43.337C103.34 43.2697 103.479 43.24 103.618 43.2515C103.713 43.2593 103.805 43.2862 103.889 43.3305C103.973 43.3747 104.048 43.4355 104.108 43.5092C104.168 43.5829 104.213 43.668 104.24 43.7594C104.267 43.8508 104.275 43.9467 104.264 44.0413V44.0413Z" stroke="#58595B" stroke-miterlimit="10"/>
<path d="M111.17 44.6456C111.154 44.7855 111.098 44.9177 111.008 45.0258C110.918 45.1338 110.798 45.2128 110.664 45.2529C110.529 45.293 110.386 45.2924 110.251 45.2511C110.117 45.2099 109.998 45.1298 109.909 45.021C109.82 44.9122 109.765 44.7794 109.751 44.6394C109.737 44.4994 109.764 44.3583 109.83 44.2339C109.895 44.1094 109.996 44.0072 110.119 43.9399C110.243 43.8726 110.383 43.8433 110.523 43.8557C110.618 43.8641 110.71 43.8913 110.794 43.9357C110.878 43.9802 110.952 44.0409 111.012 44.1145C111.072 44.1881 111.117 44.2729 111.144 44.3641C111.171 44.4553 111.18 44.551 111.17 44.6456V44.6456Z" stroke="#58595B" stroke-miterlimit="10"/>
<path d="M118.071 45.2498C118.055 45.3885 117.999 45.5194 117.909 45.6262C117.819 45.733 117.7 45.811 117.566 45.8504C117.433 45.8898 117.29 45.8888 117.157 45.8477C117.024 45.8066 116.906 45.7271 116.818 45.6191C116.729 45.5112 116.675 45.3795 116.66 45.2406C116.646 45.1018 116.673 44.9618 116.738 44.8381C116.803 44.7145 116.902 44.6127 117.024 44.5454C117.147 44.4782 117.286 44.4485 117.425 44.4599C117.519 44.4683 117.611 44.4955 117.695 44.54C117.779 44.5844 117.853 44.6452 117.913 44.7187C117.974 44.7923 118.019 44.8772 118.046 44.9684C118.073 45.0595 118.081 45.1552 118.071 45.2498Z" stroke="#58595B" stroke-miterlimit="10"/>
<path d="M71.764 94.3026C71.764 94.3026 66.8886 103.789 66.191 109.55C65.4933 115.312 64.4686 121.335 65.0401 122.63C65.6116 123.925 66.3328 126.224 66.7625 126.512C67.1921 126.801 73.9357 139.592 74.5111 140.165C75.1307 140.896 75.7047 141.665 76.2296 142.467C76.2296 142.467 75.8 143.904 76.0877 144.477C76.3754 145.05 77.5223 146.633 77.5223 146.633L79.5324 148.79C79.5324 148.79 82.5436 149.224 83.6905 147.929C84.613 146.769 85.2017 145.379 85.3932 143.908C85.3932 143.332 85.9647 142.759 84.8178 141.322C84.1424 140.47 83.3729 139.697 82.5239 139.019C82.5239 139.019 78.9373 128.672 78.3618 126.516C77.7864 124.36 75.9261 119.901 75.9261 119.901L81.9563 105.799L86.548 97.462L71.764 94.3026Z" fill="#58595B" stroke="#58595B" stroke-miterlimit="10"/>
<path d="M77.5025 146.621L78.8032 149.832C78.8032 149.832 79.7294 149.832 77.4198 151.605C75.1101 153.378 73.577 154.303 73.4232 154.919C73.3119 155.677 73.4185 156.451 73.7307 157.15C73.9593 157.462 74.0381 158.307 77.2779 158.153C80.5177 157.999 82.3543 156.305 83.584 155.227C84.4189 154.47 85.1901 153.646 85.8897 152.762L86.1223 153.533C86.1223 153.533 86.812 152.762 87.352 152.067C87.8919 151.372 88.5028 150.14 88.5028 149.678C88.5028 149.216 86.6583 147.06 86.1971 145.903C85.736 144.746 85.4089 143.928 85.4089 143.928C85.4089 143.928 84.3565 146.298 83.5091 146.847C82.6618 147.395 81.8971 147.771 81.8971 147.771C81.6116 147.357 81.2333 147.015 80.7926 146.774C80.3518 146.533 79.8609 146.398 79.3589 146.381C77.4986 146.191 77.5025 146.621 77.5025 146.621Z" fill="white" stroke="#58595B" stroke-miterlimit="10"/>
<path d="M87.9668 148.687C86.8352 149.75 85.8492 150.958 85.0345 152.281C83.5312 154.676 81.154 156.389 78.4091 157.055C76.7261 157.382 74.9824 157.131 73.4587 156.344C73.4941 156.622 73.5824 156.89 73.7189 157.134C73.9475 157.446 74.0263 158.291 77.2661 158.137C80.5059 157.983 82.3425 156.289 83.5722 155.211C84.4071 154.454 85.1783 153.63 85.8779 152.747L86.1104 153.517C86.1104 153.517 86.8002 152.747 87.3401 152.052C87.8801 151.357 88.491 150.124 88.491 149.662C88.3792 149.307 88.2013 148.976 87.9668 148.687Z" fill="white" stroke="#58595B" stroke-miterlimit="10"/>
<path d="M81.377 98.0386L85.2474 138.143L85.3932 143.893C85.3932 143.893 84.53 146.049 84.9636 147.198C85.3971 148.347 86.5401 150.504 86.5401 150.504C86.5401 150.504 89.2675 153.379 90.5564 152.66C91.8452 151.941 93.7094 149.785 93.7094 149.785C93.7094 149.785 95.5737 147.34 95.5737 145.903C95.5737 144.465 94.8564 142.743 94.8564 141.164V131.816C94.8564 130.378 95.1441 116.019 95.1441 116.019L97.1542 95.7283C97.1542 95.7283 93.2838 94.5752 91.4195 94.7213C89.5553 94.8674 81.377 98.0386 81.377 98.0386Z" fill="#58595B" stroke="#58595B" stroke-miterlimit="10"/>
<path d="M84.9636 147.198L85.3577 150.12C85.3577 150.12 84.3566 152.885 83.7418 153.896C83.1269 154.907 81.511 155.669 80.5887 156.206C79.6664 156.743 79.5127 157.825 79.899 158.749C80.2852 159.674 80.6675 160.136 82.1258 160.523C83.5841 160.91 88.1246 160.677 89.6617 159.753C91.1988 158.828 92.5073 157.904 92.5073 157.904V158.595C92.5073 158.595 93.0434 158.287 93.9656 157.671C94.4453 157.394 94.8436 156.995 95.1205 156.514C95.1205 156.514 95.0416 152.897 94.813 152.127C94.6957 151.652 94.5416 151.187 94.3519 150.737C94.1982 150.428 94.746 147.577 94.746 147.577C94.746 147.577 93.5163 149.117 92.8266 149.579C92.3259 149.917 91.739 150.103 91.1357 150.117C90.8283 150.117 90.9032 148.193 90.517 147.747C90.1307 147.301 88.7512 146.744 87.6752 146.669C86.5993 146.594 84.9636 147.198 84.9636 147.198Z" fill="white" stroke="#58595B" stroke-miterlimit="10"/>
<path d="M93.3351 155.669C92.6453 156.459 90.182 158.52 85.8781 159.29C83.8554 159.675 81.7648 159.464 79.8596 158.682C79.8664 158.705 79.8743 158.727 79.8833 158.749C80.2774 159.674 80.6518 160.136 82.1101 160.523C83.5684 160.91 88.1089 160.677 89.646 159.753C91.1831 158.828 92.4916 157.904 92.4916 157.904V158.595C92.4916 158.595 93.0277 158.287 93.9499 157.671C94.4296 157.394 94.8279 156.995 95.1048 156.514C95.1048 156.514 95.0693 154.935 94.9826 153.635C94.4938 154.267 93.7805 155.191 93.3351 155.669Z" fill="white" stroke="#58595B" stroke-miterlimit="10"/>
<path d="M71.6221 89.4096L70.1875 95.4479L74.2037 99.7604L76.3557 96.6011L77.9322 100.049C77.9322 100.049 85.9647 100.337 89.4094 99.0456C91.4175 98.2971 93.3809 97.4334 95.2899 96.4589L98.305 98.6112L97.7217 92.0003L71.6221 89.4096Z" fill="white" stroke="#58595B" stroke-miterlimit="10"/>
<path d="M86.5047 49.9967C86.5047 49.9967 76.9706 52.7611 76.3282 53.7721C75.6857 54.7831 74.0501 58.835 74.0501 63.187C74.0501 67.539 72.4144 79.4418 72.3435 80.5832C72.2725 81.7245 70.5659 91.8502 70.5659 91.8502C70.5659 91.8502 73.9082 92.64 74.7634 93.0626C75.2095 93.3004 75.6894 93.4682 76.1863 93.5602L77.1834 91.9213L77.6091 93.7734C81.391 94.3817 85.2304 94.55 89.0508 94.275C95.7511 93.8445 97.8755 93.0626 97.8755 93.0626L101.805 66.8992C101.805 66.8992 104.012 61.3348 102.66 56.9868C102.229 55.4693 101.401 54.0946 100.263 53.0041C99.1246 51.9136 97.7169 51.1468 96.1846 50.7826C94.4032 50.3561 92.7675 49.9256 92.7675 49.9256L86.5047 49.9967Z" fill="#8ACCA1" stroke="#58595B" stroke-linecap="round" stroke-linejoin="round"/>
<path d="M84.0848 50.9208L81.3101 53.2745L81.5229 56.9078L82.6619 54.7713L84.5104 57.3382L84.0848 50.9208Z" fill="white" stroke="#58595B" stroke-linecap="round" stroke-linejoin="round"/>
<path d="M83.1584 48.2117L84.4394 56.3391L92.2708 48.7843L91.5574 46.1462C91.5574 46.1462 88.428 48.5671 87.1471 49.1397C85.8661 49.7124 83.1584 48.2117 83.1584 48.2117Z" fill="white" stroke="#58595B" stroke-linecap="round" stroke-linejoin="round"/>
<path d="M79.4614 36.0205C79.4614 36.0205 80.3127 32.1701 81.8262 30.385C83.3397 28.6 87.8052 27.8181 90.3671 28.7461C91.5813 29.2378 92.6561 30.0213 93.4968 31.0275C94.3374 32.0337 94.918 33.2317 95.1874 34.5159C95.5421 36.7235 95.613 37.4383 95.8258 37.9359C95.9662 38.2589 96.1336 38.5694 96.3264 38.864L79.2446 36.6524L79.4614 36.0205Z" fill="white" stroke="#58595B" stroke-miterlimit="10"/>
<path d="M80.5256 36.0205C80.5256 36.0205 75.7605 35.7362 76.8287 36.447C77.8968 37.1579 78.1096 37.5173 82.3781 38.2281C86.6465 38.939 91.6993 40.1553 91.6993 40.1553C91.6993 40.1553 93.7646 41.8653 95.755 41.2967C97.7454 40.728 98.1198 40.0843 96.965 39.014C95.8102 37.9438 80.5256 36.0205 80.5256 36.0205Z" fill="#B8BABC" stroke="#58595B" stroke-miterlimit="10"/>
<path d="M86.8593 30.1007C87.2155 29.4658 87.7692 28.9652 88.4359 28.675C89.0638 28.4697 89.7442 28.4949 90.3553 28.7461C90.3553 28.7461 86.4416 26.1081 83.655 29.3898" fill="white"/>
<path d="M86.8593 30.1007C87.2155 29.4658 87.7692 28.9652 88.4359 28.675C89.0638 28.4697 89.7442 28.4949 90.3553 28.7461C90.3553 28.7461 86.4416 26.1081 83.655 29.3898" stroke="#58595B" stroke-miterlimit="10"/>
<path d="M80.774 37.6042C80.774 37.6042 80.5888 44.2901 81.0144 45.7158C81.4401 47.1414 83.7182 49.7795 84.4276 49.9967C85.1371 50.2139 86.4219 50.5654 87.1353 50.3521C87.8487 50.1389 90.5485 48.2117 91.191 47.643C91.8334 47.0743 92.4719 45.3604 92.4719 44.9339C92.5181 44.4967 92.6133 44.0662 92.7557 43.6504C92.7557 43.6504 93.6819 43.5082 94.0366 43.0066C94.2029 42.7552 94.2974 42.4629 94.3099 42.1616C94.3224 41.8602 94.2524 41.5611 94.1076 41.2966C93.9246 41.0733 93.7078 40.8801 93.4651 40.724L93.54 39.4405L80.774 37.6042Z" fill="white" stroke="#58595B" stroke-linecap="round" stroke-linejoin="round"/>
<path d="M83.3753 41.0123C83.3753 41.0123 83.3753 42.5091 83.3043 42.8645C83.2334 43.2199 82.6619 43.7925 82.9457 44.148C83.2059 44.422 83.5474 44.6047 83.9195 44.6687C84.2916 44.7327 84.6744 44.6748 85.0109 44.5034" stroke="#58595B" stroke-linecap="round" stroke-linejoin="round"/>
<path d="M83.3042 45.858C83.9046 46.1411 84.5882 46.1917 85.2236 46.0001C85.9156 45.8486 86.5698 45.5584 87.147 45.1471" stroke="#58595B" stroke-linecap="round" stroke-linejoin="round"/>
<path d="M78.8899 38.0702C78.8899 38.0702 78.748 39.8552 79.3195 40.7793C79.891 41.7034 80.7423 41.9206 81.7355 41.7784C82.7288 41.6363 83.4461 40.495 84.2974 40.8504C85.1487 41.2058 84.9399 42.4301 87.5017 42.4301C90.0636 42.4301 90.3474 39.5037 90.3474 39.5037L78.8899 38.0702Z" stroke="#58595B" stroke-linecap="round" stroke-linejoin="round"/>
<path d="M89.8391 38.9429C89.8391 38.9429 90.4776 41.7942 91.3329 41.9364C92.1881 42.0786 93.4651 40.724 93.4651 40.724L93.54 39.4405L89.8391 38.9429Z" fill="#58595B" stroke="#58595B" stroke-linecap="round" stroke-linejoin="round"/>
<path d="M86.4415 40.1909C86.4415 40.5858 86.2247 40.9057 85.9567 40.9057C85.6887 40.9057 85.4719 40.5858 85.4719 40.1909C85.4719 39.796 85.6887 39.4761 85.9567 39.4761C86.2247 39.4761 86.4415 39.796 86.4415 40.1909Z" fill="#58595B"/>
<path d="M82.7918 39.7367C82.7918 40.1316 82.5751 40.4515 82.3071 40.4515C82.039 40.4515 81.8223 40.1316 81.8223 39.7367C81.8223 39.3418 82.039 39.0219 82.3071 39.0219C82.5751 39.0219 82.7918 39.3418 82.7918 39.7367Z" fill="#58595B"/>
<path d="M84.0137 53.63L84.5103 57.3382L93.6897 50.0638L92.6215 47.7812L84.0137 53.63Z" fill="white" stroke="#58595B" stroke-linecap="round" stroke-linejoin="round"/>
<path d="M73.5888 69.7426C73.4548 71.0538 73.305 72.3965 73.1553 73.6918C76.8207 73.988 83.5131 74.6475 89.1256 75.8204C92.8679 76.5948 96.4931 77.8561 99.9091 79.5722L100.524 75.469C97.1398 73.8914 93.5847 72.7119 89.9296 71.9542C84.1083 70.722 77.3607 70.0586 73.5888 69.7426Z" fill="white" stroke="#58595B" stroke-miterlimit="10"/>
<path d="M98.6558 87.9444L99.247 83.9953C91.3958 84.2914 76.9193 82.9211 72.099 82.4353C71.9335 83.5214 71.7049 84.9391 71.4802 86.3411C75.6935 86.7755 88.2152 87.98 96.8033 87.98C97.4458 87.9681 98.0646 87.9602 98.6558 87.9444Z" fill="white" stroke="#58595B" stroke-miterlimit="10"/>
<path d="M99.6925 64.9246C99.6925 64.9246 102.231 62.9935 102.495 60.8017C102.759 58.6099 102.317 55.2728 99.6058 53.6102C96.8941 51.9476 93.4809 54.4869 92.9528 55.3636C92.4246 56.2404 89.8785 59.3958 89.8785 59.3958L88.7434 60.5331L87.7778 60.7108L84.1912 59.3958L79.6389 65.0076C79.6389 65.0076 86.9028 73.3364 89.5278 73.4233C92.1527 73.5102 96.5315 68.5144 97.0557 67.8944C97.5799 67.2744 99.6925 64.9246 99.6925 64.9246Z" fill="#A1A1A1" stroke="#58595B" stroke-miterlimit="10"/>
<path d="M87.7776 60.7187C87.7776 60.7187 91.0174 62.1207 92.4166 62.9105C93.4539 63.5689 94.3967 64.3661 95.2189 65.28" stroke="#58595B" stroke-miterlimit="10"/>
<path d="M92.5979 61.7653C92.5979 61.7653 95.8338 62.1168 96.7087 63.6056" stroke="#58595B" stroke-miterlimit="10"/>
<path d="M90.5801 61.244C91.6174 60.8775 92.7187 60.7283 93.8159 60.8056" stroke="#58595B" stroke-miterlimit="10"/>
<path d="M82.0904 57.8161L72.103 47.1256L70.7905 43.7056C70.0514 42.7858 69.2619 41.9078 68.4257 41.0755C67.5508 40.2857 66.8492 39.6735 66.6758 40.2857L66.5024 40.8978C66.5024 40.8978 65.1899 40.1079 64.6617 40.1079C64.1336 40.1079 63.7001 40.2817 64.2243 40.8069C64.655 41.2946 65.0365 41.8237 65.3633 42.3866L65.8008 43.0896C65.8008 43.0896 64.311 41.9483 63.0892 41.6837C61.8673 41.4191 61.3392 41.9483 61.8634 42.4735C62.3884 42.948 62.944 43.3873 63.5266 43.7886L64.9258 45.4551C64.9258 45.4551 62.8251 44.7522 62.1235 44.5784C61.422 44.4047 61.2485 45.3683 61.9501 45.8066C62.6517 46.245 65.2766 47.2955 65.2766 47.2955C65.2766 47.2955 66.5024 49.5781 67.7242 50.1902C68.5314 50.6103 69.2946 51.1104 70.0023 51.683L78.2279 63.8702L82.0904 57.8161Z" fill="white" stroke="#58595B" stroke-miterlimit="10"/>
<path d="M72.103 47.1257L70.7905 43.7057C70.0514 42.7858 69.2619 41.9078 68.4257 41.0755C67.5508 40.2857 66.8492 39.6735 66.6758 40.2857L66.5024 40.8978C66.5024 40.8978 65.1899 40.1079 64.6617 40.1079C64.1336 40.1079 63.7001 40.2817 64.2243 40.8069C64.655 41.2946 65.0365 41.8237 65.3633 42.3866L65.8008 43.0896C65.8008 43.0896 64.311 41.9483 63.0892 41.6837C61.8673 41.4191 61.3392 41.9483 61.8634 42.4735C62.3884 42.948 62.944 43.3873 63.5266 43.7886L64.9258 45.4551C64.9258 45.4551 62.8251 44.7522 62.1235 44.5784C61.422 44.4047 61.2485 45.3683 61.9501 45.8066C62.6517 46.245 65.2766 47.2955 65.2766 47.2955C65.2766 47.2955 66.5024 49.5781 67.7242 50.1902C68.5314 50.6103 69.2946 51.1104 70.0023 51.683L70.2979 52.1174L73.8017 48.9581L72.103 47.1257Z" fill="#8ACCA1" stroke="#58595B" stroke-miterlimit="10"/>
<path d="M66.5142 40.8978C66.5142 40.8978 67.9133 42.3037 68.2641 42.5643C68.4914 42.7542 68.671 42.995 68.7883 43.2673" stroke="#58595B" stroke-miterlimit="10"/>
<path d="M65.8086 43.0896L66.9476 44.4047" stroke="#58595B" stroke-miterlimit="10"/>
<path d="M82.4372 56.5958L76.6631 63.0843L79.6388 66.765L85.2395 58.7007L82.4372 56.5958Z" fill="white" stroke="#58595B" stroke-miterlimit="10"/>
</g>
<defs>
<clipPath id="clip0_677_3747">
<rect width="191.124" height="180" fill="white"/>
</clipPath>
</defs>
</svg>
