<svg width="180" height="180" viewBox="0 0 180 180" fill="none" xmlns="http://www.w3.org/2000/svg">
<g filter="url(#filter0_b_1366_8020)">
<rect width="180" height="180" rx="90" fill="#58595B" fill-opacity="0.3"/>
</g>
<rect x="20" y="20" width="140" height="140" rx="70" fill="#58595B"/>
<path d="M101.954 157.817C101.305 157.816 100.679 157.517 100.186 156.973C99.6944 156.429 99.3695 155.677 99.2704 154.852C99.2268 154.398 99.2532 153.937 99.348 153.497C99.4428 153.056 99.6042 152.643 99.8228 152.283C100.042 151.923 100.313 151.621 100.622 151.397C100.932 151.172 101.272 151.027 101.625 150.972C109.166 149.958 116.487 147.097 123.195 142.544C128.095 138.866 130.795 134.563 130.795 130.371C130.795 125.778 127.644 122.01 124.996 119.669C124.403 119.145 123.997 118.341 123.865 117.431C123.734 116.522 123.888 115.582 124.295 114.819C124.701 114.057 125.326 113.533 126.032 113.364C126.738 113.194 127.468 113.393 128.06 113.917C133.392 118.643 136.214 124.329 136.214 130.371C136.214 137.238 132.665 143.525 125.931 148.587C118.601 153.645 110.573 156.803 102.3 157.884L101.954 157.817Z" fill="white"/>
<path d="M89.3334 152.821L82.0971 143.524C81.8459 143.2 81.5477 142.944 81.2194 142.769C80.8912 142.594 80.5394 142.503 80.1842 142.503C79.8289 142.503 79.4771 142.594 79.1489 142.769C78.8207 142.944 78.5224 143.2 78.2712 143.524C78.02 143.847 77.8207 144.232 77.6848 144.654C77.5488 145.077 77.4788 145.53 77.4788 145.988C77.4788 146.445 77.5488 146.898 77.6848 147.321C77.8207 147.744 78.02 148.128 78.2712 148.451L80.3659 151.171C73.0698 150.372 65.93 147.998 59.2456 144.148C52.8402 140.18 49.2047 135.118 49.2047 130.325C49.2047 126.222 51.8361 121.964 56.6142 118.307C57.2317 117.834 57.678 117.065 57.855 116.168C58.0319 115.271 57.925 114.32 57.5577 113.525C57.1903 112.73 56.5928 112.155 55.8964 111.927C55.2 111.699 54.4618 111.837 53.8443 112.31C45.5346 118.664 43.7861 125.687 43.7861 130.325C43.7861 138.084 48.4603 145.218 56.9431 150.391C64.6379 154.82 72.8762 157.476 81.2835 158.239L78.3058 162.074C77.8005 162.733 77.5171 163.622 77.5171 164.549C77.5171 165.475 77.8005 166.365 78.3058 167.024C78.8203 167.668 79.5098 168.028 80.2274 168.027C80.5805 168.029 80.9304 167.942 81.2572 167.77C81.584 167.598 81.8812 167.344 82.1317 167.024L89.3681 157.704C89.8614 157.048 90.1344 156.167 90.1279 155.254C90.1214 154.34 89.836 153.466 89.3334 152.821V152.821Z" fill="white"/>
<path d="M72.1256 123.3V122.453C72.1256 119.51 70.7234 118.93 68.8364 118.93C67.6592 118.93 67.2956 117.593 67.2956 116.277C67.2956 114.962 67.6592 113.624 68.8364 113.624C70.0136 113.624 71.5024 113.401 71.5024 109.834C71.5024 107.27 70.3771 106.645 68.9749 106.645C67.2437 106.645 66.43 107.18 66.43 108.875C66.43 110.569 65.9107 111.394 63.9198 111.394C61.4616 111.394 61.1499 110.725 61.1499 108.607C61.1499 105.152 63.0716 100.692 68.9749 100.692C73.3374 100.692 76.6267 102.721 76.6267 108.697C76.7386 110.1 76.5511 111.517 76.0844 112.794C75.6177 114.071 74.8894 115.159 73.978 115.943C75.034 116.372 75.9483 117.244 76.5756 118.42C77.2029 119.595 77.5072 121.007 77.4403 122.431V123.278C77.4403 130.524 73.5625 133.267 68.7844 133.267C62.8811 133.267 60.6133 128.629 60.6133 124.906C60.6133 122.921 61.2711 122.386 63.1581 122.386C65.3567 122.386 65.8934 123.01 65.8934 124.616C65.8934 126.712 67.4168 127.18 68.9576 127.18C71.312 127.269 72.1256 126.176 72.1256 123.3Z" fill="white"/>
<path d="M98.3014 122.452V122.854C98.3014 130.457 94.6313 133.288 89.9052 133.288C85.1791 133.288 81.457 130.457 81.457 122.854V111.148C81.457 103.546 85.2656 100.714 90.2168 100.714C95.9989 100.714 98.3014 105.351 98.3014 109.03C98.3014 111.148 97.5224 111.817 95.8085 111.817C94.0946 111.817 93.0213 111.327 93.0213 109.298C93.0213 107.269 91.6537 106.734 90.0437 106.734C88.0182 106.734 86.8064 108.094 86.8064 111.193V115.162C87.3746 114.465 88.0511 113.932 88.7913 113.598C89.5314 113.264 90.3182 113.135 91.0997 113.222C95.0121 113.177 98.3014 115.385 98.3014 122.452ZM86.8064 123.344C86.8064 126.399 87.9836 127.803 89.9052 127.803C91.8268 127.803 92.952 126.488 92.952 123.344V122.943C92.952 119.71 91.8268 118.484 89.8706 118.484C89.4478 118.415 89.0186 118.474 88.6165 118.655C88.2144 118.837 87.8505 119.136 87.5535 119.529C87.2564 119.923 87.0344 120.4 86.9047 120.922C86.7751 121.445 86.7414 121.999 86.8064 122.542V123.344Z" fill="white"/>
<path d="M102.455 122.854V111.148C102.455 103.546 106.125 100.714 110.869 100.714C115.612 100.714 119.299 103.546 119.299 111.148V122.854C119.299 130.457 115.595 133.288 110.869 133.288C106.142 133.288 102.455 130.457 102.455 122.854ZM113.95 111.148C113.95 108.094 112.79 106.689 110.869 106.689C108.947 106.689 107.804 108.049 107.804 111.148V122.854C107.804 125.908 108.947 127.313 110.869 127.313C112.79 127.313 113.95 125.953 113.95 122.854V111.148Z" fill="white"/>
<path d="M125.809 100.693C124.199 100.698 122.624 100.087 121.284 98.9383C119.944 97.7895 118.898 96.1544 118.28 94.24C117.661 92.3256 117.498 90.218 117.81 88.1838C118.122 86.1496 118.895 84.2802 120.032 82.8124C121.17 81.3447 122.619 80.3445 124.198 79.9384C125.777 79.5322 127.414 79.7384 128.902 80.5309C130.389 81.3233 131.661 82.6664 132.556 84.3902C133.451 86.1139 133.928 88.1409 133.928 90.2144C133.924 92.988 133.067 95.6465 131.546 97.6098C130.025 99.5731 127.963 100.682 125.809 100.693V100.693ZM125.809 86.7363C125.269 86.7319 124.741 86.9346 124.291 87.3186C123.841 87.7025 123.49 88.2502 123.283 88.8921C123.075 89.5339 123.021 90.2408 123.127 90.9224C123.233 91.6041 123.493 92.2297 123.876 92.7197C124.259 93.2097 124.747 93.5417 125.277 93.6735C125.807 93.8053 126.355 93.731 126.852 93.4598C127.349 93.1887 127.772 92.7331 128.067 92.1511C128.363 91.5692 128.517 90.8872 128.51 90.1921C128.501 89.2753 128.213 88.3997 127.708 87.7535C127.203 87.1072 126.521 86.742 125.809 86.7363V86.7363Z" fill="white"/>
<defs>
<filter id="filter0_b_1366_8020" x="-10" y="-10" width="200" height="200" filterUnits="userSpaceOnUse" color-interpolation-filters="sRGB">
<feFlood flood-opacity="0" result="BackgroundImageFix"/>
<feGaussianBlur in="BackgroundImage" stdDeviation="5"/>
<feComposite in2="SourceAlpha" operator="in" result="effect1_backgroundBlur_1366_8020"/>
<feBlend mode="normal" in="SourceGraphic" in2="effect1_backgroundBlur_1366_8020" result="shape"/>
</filter>
</defs>
</svg>
