<svg width="48" height="48" viewBox="0 0 48 48" fill="none" xmlns="http://www.w3.org/2000/svg">
<path d="M18 30L30 18" stroke="#8ACCA1" stroke-width="4" stroke-linecap="round" stroke-linejoin="round"/>
<path d="M19 20C19.5523 20 20 19.5523 20 19C20 18.4477 19.5523 18 19 18C18.4477 18 18 18.4477 18 19C18 19.5523 18.4477 20 19 20Z" fill="#8ACCA1" stroke="#8ACCA1" stroke-width="4" stroke-linecap="round" stroke-linejoin="round"/>
<path d="M29 30C29.5523 30 30 29.5523 30 29C30 28.4477 29.5523 28 29 28C28.4477 28 28 28.4477 28 29C28 29.5523 28.4477 30 29 30Z" fill="#8ACCA1" stroke="#8ACCA1" stroke-width="4" stroke-linecap="round" stroke-linejoin="round"/>
<path d="M9.99995 14.3999C9.99995 13.233 10.4635 12.1138 11.2887 11.2887C12.1138 10.4635 13.233 9.99995 14.3999 9.99995H16.3999C17.5617 9.99928 18.6761 9.53915 19.4999 8.71995L20.8999 7.31995C21.3088 6.90875 21.795 6.58243 22.3304 6.35976C22.8659 6.13709 23.4401 6.02246 24.0199 6.02246C24.5998 6.02246 25.174 6.13709 25.7095 6.35976C26.2449 6.58243 26.7311 6.90875 27.1399 7.31995L28.5399 8.71995C29.3638 9.53915 30.4781 9.99928 31.6399 9.99995H33.6399C34.8069 9.99995 35.9261 10.4635 36.7512 11.2887C37.5764 12.1138 38.0399 13.233 38.0399 14.3999V16.3999C38.0406 17.5617 38.5007 18.6761 39.3199 19.4999L40.7199 20.8999C41.1311 21.3088 41.4575 21.795 41.6801 22.3304C41.9028 22.8659 42.0174 23.4401 42.0174 24.0199C42.0174 24.5998 41.9028 25.174 41.6801 25.7095C41.4575 26.2449 41.1311 26.7311 40.7199 27.1399L39.3199 28.5399C38.5007 29.3638 38.0406 30.4781 38.0399 31.6399V33.6399C38.0399 34.8069 37.5764 35.9261 36.7512 36.7512C35.9261 37.5764 34.8069 38.0399 33.6399 38.0399H31.6399C30.4781 38.0406 29.3638 38.5007 28.5399 39.3199L27.1399 40.7199C26.7311 41.1311 26.2449 41.4575 25.7095 41.6801C25.174 41.9028 24.5998 42.0174 24.0199 42.0174C23.4401 42.0174 22.8659 41.9028 22.3304 41.6801C21.795 41.4575 21.3088 41.1311 20.8999 40.7199L19.4999 39.3199C18.6761 38.5007 17.5617 38.0406 16.3999 38.0399H14.3999C13.233 38.0399 12.1138 37.5764 11.2887 36.7512C10.4635 35.9261 9.99995 34.8069 9.99995 33.6399V31.6399C9.99928 30.4781 9.53915 29.3638 8.71995 28.5399L7.31995 27.1399C6.90875 26.7311 6.58243 26.2449 6.35976 25.7095C6.13709 25.174 6.02246 24.5998 6.02246 24.0199C6.02246 23.4401 6.13709 22.8659 6.35976 22.3304C6.58243 21.795 6.90875 21.3088 7.31995 20.8999L8.71995 19.4999C9.53915 18.6761 9.99928 17.5617 9.99995 16.3999V14.3999" stroke="#8ACCA1" stroke-width="4" stroke-linecap="round" stroke-linejoin="round"/>
</svg>
