<svg width="200" height="200" viewBox="0 0 200 200" fill="none" xmlns="http://www.w3.org/2000/svg">
<path d="M93.1117 9.34758C97.5222 7.52069 102.478 7.52069 106.888 9.34758L159.23 31.0283C163.641 32.8552 167.145 36.3593 168.972 40.7698L190.652 93.1117C192.479 97.5222 192.479 102.478 190.652 106.888L168.972 159.23C167.145 163.641 163.641 167.145 159.23 168.972L106.888 190.652C102.478 192.479 97.5222 192.479 93.1117 190.652L40.7698 168.972C36.3593 167.145 32.8552 163.641 31.0283 159.23L9.34758 106.888C7.52069 102.478 7.52069 97.5222 9.34758 93.1117L31.0283 40.7698C32.8552 36.3593 36.3593 32.8552 40.7698 31.0283L93.1117 9.34758Z" fill="#D3BBA5" stroke="#A47449" stroke-width="12"/>
<path fill-rule="evenodd" clip-rule="evenodd" d="M123.76 75.7603C124.88 74.6505 126.391 74.0259 127.968 74.0215C129.544 74.0172 131.059 74.6334 132.185 75.737C133.31 76.8407 133.957 78.343 133.983 79.9192C134.01 81.4955 133.416 83.0189 132.328 84.1603L100.392 124.08C99.8434 124.671 99.181 125.146 98.4446 125.475C97.7081 125.805 96.9129 125.982 96.1063 125.997C95.2997 126.012 94.4985 125.864 93.7503 125.562C93.0022 125.26 92.3227 124.811 91.7523 124.24L70.5923 103.072C70.0028 102.523 69.53 101.861 69.202 101.125C68.8741 100.389 68.6978 99.5941 68.6836 98.7885C68.6693 97.9828 68.8175 97.1826 69.1193 96.4355C69.4211 95.6884 69.8702 95.0097 70.44 94.44C71.0097 93.8702 71.6884 93.4211 72.4355 93.1193C73.1826 92.8175 73.9828 92.6693 74.7885 92.6836C75.5941 92.6978 76.3886 92.8741 77.1246 93.202C77.8606 93.53 78.523 94.0028 79.0723 94.5923L95.8243 111.336L123.608 75.9363C123.658 75.8743 123.711 75.8155 123.768 75.7603H123.76Z" fill="white"/>
</svg>
