<svg width="15" height="20" viewBox="0 0 15 20" fill="none" xmlns="http://www.w3.org/2000/svg">
<path d="M6.36525 2.18746C6.89157 2.2987 7.37001 2.64654 7.71522 3.16892C8.06043 3.6913 8.24996 4.35425 8.25 5.0395V6.96655H3.75V5.0395C3.75 4.0384 4.146 3.15581 4.7475 2.63743C4.53149 2.39033 4.26447 2.22873 3.97862 2.1721C3.69276 2.11546 3.40026 2.16621 3.13633 2.31823C2.87241 2.47025 2.64833 2.71705 2.49107 3.02891C2.33382 3.34077 2.2501 3.70439 2.25 4.07597V9.85713H14.25C14.4489 9.85713 14.6397 9.95864 14.7803 10.1393C14.921 10.32 15 10.5651 15 10.8207C15 11.0762 14.921 11.3213 14.7803 11.502C14.6397 11.6827 14.4489 11.7842 14.25 11.7842V12.7477C14.2501 13.9435 13.9617 15.1099 13.4244 16.0864C12.8872 17.0629 12.1275 17.8014 11.25 18.2003V18.5289C11.25 18.7844 11.171 19.0295 11.0303 19.2102C10.8897 19.3909 10.6989 19.4924 10.5 19.4924C10.3011 19.4924 10.1103 19.3909 9.96967 19.2102C9.82902 19.0295 9.75 18.7844 9.75 18.5289H5.25C5.25 18.7844 5.17098 19.0295 5.03033 19.2102C4.88968 19.3909 4.69891 19.4924 4.5 19.4924C4.30109 19.4924 4.11032 19.3909 3.96967 19.2102C3.82902 19.0295 3.75 18.7844 3.75 18.5289V18.2003C2.87251 17.8014 2.11284 17.0629 1.57558 16.0864C1.03832 15.1099 0.749887 13.9435 0.75 12.7477V11.7842C0.551088 11.7842 0.360322 11.6827 0.21967 11.502C0.0790176 11.3213 0 11.0762 0 10.8207C0 10.5651 0.0790176 10.32 0.21967 10.1393C0.360322 9.95864 0.551088 9.85713 0.75 9.85713V4.07597C0.749967 3.22372 0.969818 2.39549 1.37516 1.72084C1.78051 1.04618 2.34848 0.56316 2.99024 0.347325C3.632 0.131489 4.31135 0.195015 4.92201 0.527966C5.53268 0.860917 6.04022 1.44451 6.36525 2.18746V2.18746ZM12.75 11.7842H2.25V12.7477C2.25 13.7699 2.56607 14.7502 3.12868 15.473C3.69129 16.1958 4.45435 16.6018 5.25 16.6018H9.75C10.5456 16.6018 11.3087 16.1958 11.8713 15.473C12.4339 14.7502 12.75 13.7699 12.75 12.7477V11.7842ZM6 4.07597C5.80109 4.07597 5.61032 4.17749 5.46967 4.35818C5.32902 4.53888 5.25 4.78396 5.25 5.0395H6.75C6.75 4.78396 6.67098 4.53888 6.53033 4.35818C6.38968 4.17749 6.19891 4.07597 6 4.07597V4.07597Z" fill="#A47449"/>
</svg>
