<svg width="46" height="42" viewBox="0 0 46 42" fill="none" xmlns="http://www.w3.org/2000/svg">
<path d="M43.4286 17.4846V9.32118C43.4286 4.47598 40.3429 0.511719 36.5714 0.511719H27.4286C25.6686 0.511719 24.0686 1.39267 22.8571 2.80218C21.6457 1.39267 20.0457 0.511719 18.2857 0.511719H9.14286C5.37143 0.511719 2.28571 4.47598 2.28571 9.32118V17.4846C0.891428 19.0997 0 21.4195 0 24.0036V38.6861C0 40.3011 1.02857 41.6226 2.28571 41.6226C3.54286 41.6226 4.57143 40.3011 4.57143 38.6861V35.7496H41.1429V38.6861C41.1429 40.3011 42.1714 41.6226 43.4286 41.6226C44.6857 41.6226 45.7143 40.3011 45.7143 38.6861V24.0036C45.7143 21.4195 44.8229 19.0997 43.4286 17.4846ZM27.4286 6.3847H36.5714C37.8286 6.3847 38.8571 7.70612 38.8571 9.32118V15.1942H25.1429V9.32118C25.1429 7.70612 26.1714 6.3847 27.4286 6.3847ZM6.85714 9.32118C6.85714 7.70612 7.88571 6.3847 9.14286 6.3847H18.2857C19.5429 6.3847 20.5714 7.70612 20.5714 9.32118V15.1942H6.85714V9.32118ZM4.57143 29.8766V24.0036C4.57143 22.3886 5.6 21.0671 6.85714 21.0671H38.8571C40.1143 21.0671 41.1429 22.3886 41.1429 24.0036V29.8766H4.57143Z" fill="#A47449"/>
</svg>
