<svg width="18" height="18" viewBox="0 0 18 18" fill="none" xmlns="http://www.w3.org/2000/svg">
<path d="M17.1 7.40208V4.08568C17.1 2.11732 15.885 0.506836 14.4 0.506836H10.8C10.107 0.506836 9.477 0.864721 9 1.43734C8.523 0.864721 7.893 0.506836 7.2 0.506836H3.6C2.115 0.506836 0.9 2.11732 0.9 4.08568V7.40208C0.351 8.0582 0 9.00063 0 10.0504V16.0152C0 16.6713 0.405 17.2081 0.9 17.2081C1.395 17.2081 1.8 16.6713 1.8 16.0152V14.8222H16.2V16.0152C16.2 16.6713 16.605 17.2081 17.1 17.2081C17.595 17.2081 18 16.6713 18 16.0152V10.0504C18 9.00063 17.649 8.0582 17.1 7.40208ZM10.8 2.89273H14.4C14.895 2.89273 15.3 3.42956 15.3 4.08568V6.47158H9.9V4.08568C9.9 3.42956 10.305 2.89273 10.8 2.89273ZM2.7 4.08568C2.7 3.42956 3.105 2.89273 3.6 2.89273H7.2C7.695 2.89273 8.1 3.42956 8.1 4.08568V6.47158H2.7V4.08568ZM1.8 12.4363V10.0504C1.8 9.3943 2.205 8.85748 2.7 8.85748H15.3C15.795 8.85748 16.2 9.3943 16.2 10.0504V12.4363H1.8Z" fill="#A47449"/>
</svg>
