<svg width="36" height="48" viewBox="0 0 36 48" fill="none" xmlns="http://www.w3.org/2000/svg">
<path d="M15.2764 5.66026C16.5396 5.92724 17.6878 6.76204 18.5163 8.01576C19.3448 9.26947 19.7997 10.8605 19.7998 12.5051V17.1301H8.99991V12.5051C8.99991 10.1025 9.9503 7.98429 11.3939 6.74018C10.8755 6.14714 10.2346 5.7593 9.54858 5.62338C8.86254 5.48746 8.16053 5.60926 7.52713 5.9741C6.89372 6.33895 6.35592 6.93127 5.97852 7.67974C5.60111 8.42821 5.40018 9.3009 5.39995 10.1927V24.0675H34.1997C34.677 24.0675 35.1349 24.3111 35.4724 24.7448C35.81 25.1784 35.9996 25.7666 35.9996 26.3799C35.9996 26.9932 35.81 27.5814 35.4724 28.0151C35.1349 28.4487 34.677 28.6924 34.1997 28.6924V31.0048C34.1999 33.8748 33.5077 36.6742 32.2183 39.0178C30.9289 41.3614 29.1057 43.1338 26.9997 44.0911V44.8796C26.9997 45.4929 26.8101 46.0811 26.4725 46.5148C26.135 46.9484 25.6771 47.1921 25.1997 47.1921C24.7224 47.1921 24.2645 46.9484 23.927 46.5148C23.5894 46.0811 23.3998 45.4929 23.3998 44.8796H12.5999C12.5999 45.4929 12.4102 46.0811 12.0727 46.5148C11.7351 46.9484 11.2773 47.1921 10.7999 47.1921C10.3225 47.1921 9.86468 46.9484 9.52711 46.5148C9.18955 46.0811 8.99991 45.4929 8.99991 44.8796V44.0911C6.89395 43.1338 5.07076 41.3614 3.78134 39.0178C2.49193 36.6742 1.79971 33.8748 1.79998 31.0048V28.6924C1.3226 28.6924 0.864765 28.4487 0.527203 28.0151C0.18964 27.5814 0 26.9932 0 26.3799C0 25.7666 0.18964 25.1784 0.527203 24.7448C0.864765 24.3111 1.3226 24.0675 1.79998 24.0675V10.1927C1.7999 8.14728 2.32754 6.15953 3.30036 4.54036C4.27317 2.92119 5.6363 1.76194 7.17651 1.24393C8.71672 0.725926 10.3471 0.878389 11.8127 1.67747C13.2783 2.47655 14.4964 3.87718 15.2764 5.66026V5.66026ZM30.5997 28.6924H5.39995V31.0048C5.39995 33.4581 6.15851 35.8108 7.50876 37.5455C8.859 39.2802 10.6903 40.2547 12.5999 40.2547H23.3998C25.3093 40.2547 27.1406 39.2802 28.4909 37.5455C29.8411 35.8108 30.5997 33.4581 30.5997 31.0048V28.6924ZM14.3999 10.1927C13.9225 10.1927 13.4646 10.4363 13.1271 10.87C12.7895 11.3037 12.5999 11.8918 12.5999 12.5051H16.1998C16.1998 11.8918 16.0102 11.3037 15.6726 10.87C15.3351 10.4363 14.8772 10.1927 14.3999 10.1927V10.1927Z" fill="#A47449"/>
</svg>
