<svg width="160" height="160" viewBox="0 0 160 160" fill="none" xmlns="http://www.w3.org/2000/svg">
<path d="M67.5 104.999H42.5C41.837 104.999 41.2011 104.735 40.7322 104.266C40.2634 103.797 40 103.162 40 102.499C40 101.835 40.2634 101.2 40.7322 100.731C41.2011 100.262 41.837 99.9985 42.5 99.9985H66.216L90.466 66.0485C90.8512 65.5085 91.4352 65.1437 92.0894 65.0343C92.7436 64.9249 93.4145 65.0798 93.9545 65.465C94.4945 65.8502 94.8593 66.4342 94.9687 67.0884C95.0782 67.7426 94.9232 68.4135 94.538 68.9535L69.538 103.954C69.3058 104.277 68.9999 104.541 68.6454 104.723C68.291 104.904 67.8983 104.999 67.5 104.999Z" fill="#8ACCA1"/>
<path d="M42.5 85H27.5C26.1193 85 25 86.1193 25 87.5V117.5C25 118.881 26.1193 120 27.5 120H42.5C43.8807 120 45 118.881 45 117.5V87.5C45 86.1193 43.8807 85 42.5 85Z" fill="#B8DFC4"/>
<path d="M45.0001 106.851V117.501C45.0034 117.83 44.941 118.157 44.8165 118.461C44.692 118.766 44.508 119.043 44.2752 119.276C44.0424 119.509 43.7655 119.693 43.4607 119.817C43.1559 119.942 42.8293 120.004 42.5001 120.001H27.5001C27.1709 120.004 26.8443 119.942 26.5396 119.817C26.2348 119.693 25.9579 119.509 25.7251 119.276C25.4923 119.043 25.3082 118.766 25.1838 118.461C25.0593 118.157 24.9968 117.83 25.0001 117.501V88.3008C30.4763 95.6551 37.2552 101.943 45.0001 106.851Z" fill="#ADD7BA"/>
<path d="M132.5 45H122.5C121.119 45 120 46.1193 120 47.5V57.5C120 58.8807 121.119 60 122.5 60H132.5C133.881 60 135 58.8807 135 57.5V47.5C135 46.1193 133.881 45 132.5 45Z" fill="#8ACCA1"/>
<path d="M122.5 35H62.5C61.1193 35 60 36.1193 60 37.5V67.5C60 68.8807 61.1193 70 62.5 70H122.5C123.881 70 125 68.8807 125 67.5V37.5C125 36.1193 123.881 35 122.5 35Z" fill="#B8DFC4"/>
<path d="M30 27.5V132.5C30 133.163 29.7366 133.799 29.2678 134.268C28.7989 134.737 28.163 135 27.5 135C26.837 135 26.2011 134.737 25.7322 134.268C25.2634 133.799 25 133.163 25 132.5V27.5C25 26.837 25.2634 26.2011 25.7322 25.7322C26.2011 25.2634 26.837 25 27.5 25C28.163 25 28.7989 25.2634 29.2678 25.7322C29.7366 26.2011 30 26.837 30 27.5Z" fill="#8ACCA1"/>
<path d="M117.3 70.0001H62.5001C62.1709 70.0034 61.8443 69.941 61.5396 69.8165C61.2348 69.692 60.9579 69.508 60.7251 69.2752C60.4923 69.0424 60.3082 68.7655 60.1838 68.4607C60.0593 68.1559 59.9968 67.8293 60.0001 67.5001V37.5001C59.9968 37.1709 60.0593 36.8443 60.1838 36.5396C60.3082 36.2348 60.4923 35.9579 60.7251 35.7251C60.9579 35.4923 61.2348 35.3082 61.5396 35.1838C61.8443 35.0593 62.1709 34.9968 62.5001 35.0001H62.7001C70.9001 46.6501 87.0001 62.2001 117.3 70.0001Z" fill="#ADD7BA"/>
<path d="M30 94.3008V132.501C30 133.164 29.7366 133.8 29.2678 134.269C28.7989 134.737 28.163 135.001 27.5 135.001C26.837 135.001 26.2011 134.737 25.7322 134.269C25.2634 133.8 25 133.164 25 132.501V88.3008C26.5497 90.3955 28.2191 92.3988 30 94.3008Z" fill="#82C198"/>
</svg>
