<svg width="160" height="160" viewBox="0 0 160 160" fill="none" xmlns="http://www.w3.org/2000/svg">
<path d="M52.5 45H37.5C36.1193 45 35 46.1193 35 47.5V122.5C35 123.881 36.1193 125 37.5 125H52.5C53.8807 125 55 123.881 55 122.5V47.5C55 46.1193 53.8807 45 52.5 45Z" fill="#8ACCA1"/>
<path d="M87.5 45H72.5C71.1193 45 70 46.1193 70 47.5V122.5C70 123.881 71.1193 125 72.5 125H87.5C88.8807 125 90 123.881 90 122.5V47.5C90 46.1193 88.8807 45 87.5 45Z" fill="#8ACCA1"/>
<path d="M122.5 45H107.5C106.119 45 105 46.1193 105 47.5V122.5C105 123.881 106.119 125 107.5 125H122.5C123.881 125 125 123.881 125 122.5V47.5C125 46.1193 123.881 45 122.5 45Z" fill="#8ACCA1"/>
<path d="M125 113.349V122.499C125.003 122.828 124.941 123.155 124.816 123.46C124.692 123.765 124.508 124.041 124.275 124.274C124.042 124.507 123.765 124.691 123.461 124.816C123.156 124.94 122.829 125.002 122.5 124.999H107.5C107.171 125.002 106.844 124.94 106.54 124.816C106.235 124.691 105.958 124.507 105.725 124.274C105.492 124.041 105.308 123.765 105.184 123.46C105.059 123.155 104.997 122.828 105 122.499V110.199C111.25 111.449 117.95 112.549 125 113.349Z" fill="#83C198"/>
<path d="M90.0001 106.55V122.5C90.0034 122.829 89.941 123.156 89.8165 123.461C89.692 123.765 89.508 124.042 89.2752 124.275C89.0424 124.508 88.7655 124.692 88.4607 124.816C88.1559 124.941 87.8293 125.003 87.5001 125H72.5001C72.1709 125.003 71.8443 124.941 71.5396 124.816C71.2348 124.692 70.9579 124.508 70.7251 124.275C70.4923 124.042 70.3082 123.765 70.1838 123.461C70.0593 123.156 69.9968 122.829 70.0001 122.5V99.5C76.5015 102.295 83.1832 104.65 90.0001 106.55Z" fill="#83C198"/>
<path d="M55.0001 91.9984V122.498C55.0034 122.828 54.941 123.154 54.8165 123.459C54.692 123.764 54.508 124.041 54.2752 124.273C54.0424 124.506 53.7655 124.69 53.4607 124.815C53.1559 124.939 52.8293 125.002 52.5001 124.998H37.5001C37.1709 125.002 36.8443 124.939 36.5396 124.815C36.2348 124.69 35.9579 124.506 35.7251 124.273C35.4923 124.041 35.3082 123.764 35.1838 123.459C35.0593 123.154 34.9968 122.828 35.0001 122.498V77.1484C41.0733 82.8514 47.7844 87.8343 55.0001 91.9984Z" fill="#83C198"/>
<path d="M40.0002 37.5001V132.5C40.0035 132.829 39.941 133.156 39.8166 133.461C39.6921 133.765 39.5081 134.042 39.2753 134.275C39.0425 134.508 38.7656 134.692 38.4608 134.816C38.156 134.941 37.8294 135.003 37.5002 135H17.5002C17.171 135.003 16.8444 134.941 16.5396 134.816C16.2348 134.692 15.9579 134.508 15.7251 134.275C15.4923 134.042 15.3083 133.765 15.1838 133.461C15.0594 133.156 14.9969 132.829 15.0002 132.5V37.5001C14.9959 37.1722 15.0605 36.847 15.1896 36.5455C15.3188 36.2441 15.5098 35.9731 15.7502 35.7501L25.7502 25.7501C25.9759 25.5131 26.2474 25.3244 26.5482 25.1954C26.849 25.0665 27.1729 25 27.5002 25C27.8275 25 28.1514 25.0665 28.4522 25.1954C28.753 25.3244 29.0245 25.5131 29.2502 25.7501L39.2502 35.7501C39.4906 35.9731 39.6816 36.2441 39.8108 36.5455C39.9399 36.847 40.0045 37.1722 40.0002 37.5001Z" fill="#B8DFC4"/>
<path d="M75.0002 37.5001V132.5C75.0035 132.829 74.941 133.156 74.8166 133.461C74.6921 133.765 74.5081 134.042 74.2753 134.275C74.0425 134.508 73.7656 134.692 73.4608 134.816C73.156 134.941 72.8294 135.003 72.5002 135H52.5002C52.171 135.003 51.8444 134.941 51.5396 134.816C51.2348 134.692 50.9579 134.508 50.7251 134.275C50.4923 134.042 50.3083 133.765 50.1838 133.461C50.0594 133.156 49.9969 132.829 50.0002 132.5V37.5001C49.9959 37.1722 50.0605 36.847 50.1896 36.5455C50.3188 36.2441 50.5098 35.9731 50.7502 35.7501L60.7502 25.7501C60.9759 25.5131 61.2474 25.3244 61.5482 25.1954C61.849 25.0665 62.1729 25 62.5002 25C62.8275 25 63.1514 25.0665 63.4522 25.1954C63.753 25.3244 64.0245 25.5131 64.2502 25.7501L74.2502 35.7501C74.4906 35.9731 74.6816 36.2441 74.8108 36.5455C74.9399 36.847 75.0045 37.1722 75.0002 37.5001Z" fill="#B8DFC4"/>
<path d="M110 37.5001V132.5C110.003 132.829 109.941 133.156 109.817 133.461C109.692 133.765 109.508 134.042 109.275 134.275C109.042 134.508 108.766 134.692 108.461 134.816C108.156 134.941 107.829 135.003 107.5 135H87.5002C87.171 135.003 86.8444 134.941 86.5396 134.816C86.2348 134.692 85.9579 134.508 85.7251 134.275C85.4923 134.042 85.3083 133.765 85.1838 133.461C85.0594 133.156 84.9969 132.829 85.0002 132.5V37.5001C84.9959 37.1722 85.0605 36.847 85.1896 36.5455C85.3188 36.2441 85.5098 35.9731 85.7502 35.7501L95.7502 25.7501C95.9759 25.5131 96.2474 25.3244 96.5482 25.1954C96.849 25.0665 97.1729 25 97.5002 25C97.8275 25 98.1514 25.0665 98.4522 25.1954C98.753 25.3244 99.0245 25.5131 99.2502 25.7501L109.25 35.7501C109.491 35.9731 109.682 36.2441 109.811 36.5455C109.94 36.847 110.004 37.1722 110 37.5001Z" fill="#B8DFC4"/>
<path d="M145 37.5001V132.5C145.003 132.829 144.941 133.156 144.817 133.461C144.692 133.765 144.508 134.042 144.275 134.275C144.042 134.508 143.766 134.692 143.461 134.816C143.156 134.941 142.829 135.003 142.5 135H122.5C122.171 135.003 121.844 134.941 121.54 134.816C121.235 134.692 120.958 134.508 120.725 134.275C120.492 134.042 120.308 133.765 120.184 133.461C120.059 133.156 119.997 132.829 120 132.5V37.5001C119.996 37.1722 120.06 36.847 120.19 36.5455C120.319 36.2441 120.51 35.9731 120.75 35.7501L130.75 25.7501C130.976 25.5131 131.247 25.3244 131.548 25.1954C131.849 25.0665 132.173 25 132.5 25C132.827 25 133.151 25.0665 133.452 25.1954C133.753 25.3244 134.024 25.5131 134.25 25.7501L144.25 35.7501C144.491 35.9731 144.682 36.2441 144.811 36.5455C144.94 36.847 145.004 37.1722 145 37.5001Z" fill="#B8DFC4"/>
<path d="M145 115.1V132.5C145.003 132.829 144.941 133.156 144.816 133.461C144.692 133.765 144.508 134.042 144.275 134.275C144.042 134.508 143.765 134.692 143.461 134.816C143.156 134.941 142.829 135.003 142.5 135H122.5C122.171 135.003 121.844 134.941 121.54 134.816C121.235 134.692 120.958 134.508 120.725 134.275C120.492 134.042 120.308 133.765 120.184 133.461C120.059 133.156 119.997 132.829 120 132.5V112.75C127.8 113.8 136.1 114.6 145 115.1Z" fill="#ADD7BA"/>
<path d="M110 111.147V132.497C110.003 132.826 109.941 133.153 109.816 133.457C109.692 133.762 109.508 134.039 109.275 134.272C109.042 134.505 108.765 134.689 108.461 134.813C108.156 134.938 107.829 135 107.5 134.997H87.5001C87.1709 135 86.8443 134.938 86.5396 134.813C86.2348 134.689 85.9579 134.505 85.7251 134.272C85.4923 134.039 85.3082 133.762 85.1838 133.457C85.0593 133.153 84.9968 132.826 85.0001 132.497V105.047C93.1964 107.606 101.546 109.643 110 111.147Z" fill="#ADD7BA"/>
<path d="M75.0001 101.552V132.502C75.0034 132.832 74.941 133.158 74.8165 133.463C74.692 133.768 74.508 134.045 74.2752 134.277C74.0424 134.51 73.7655 134.694 73.4607 134.819C73.1559 134.943 72.8293 135.006 72.5001 135.002H52.5001C52.1709 135.006 51.8443 134.943 51.5396 134.819C51.2348 134.694 50.9579 134.51 50.7251 134.277C50.4923 134.045 50.3082 133.768 50.1838 133.463C50.0593 133.158 49.9968 132.832 50.0001 132.502V88.9023C57.8688 93.9806 66.2479 98.2204 75.0001 101.552Z" fill="#ADD7BA"/>
<path d="M40.0001 81.55V132.5C40.0034 132.829 39.941 133.156 39.8165 133.461C39.692 133.765 39.508 134.042 39.2752 134.275C39.0424 134.508 38.7655 134.692 38.4607 134.816C38.1559 134.941 37.8293 135.003 37.5001 135H17.5001C17.1709 135.003 16.8443 134.941 16.5396 134.816C16.2348 134.692 15.9579 134.508 15.7251 134.275C15.4923 134.042 15.3082 133.765 15.1838 133.461C15.0593 133.156 14.9968 132.829 15.0001 132.5V50.5C21.07 62.4846 29.5868 73.0625 40.0001 81.55Z" fill="#ADD7BA"/>
</svg>
