<svg width="560" height="569" viewBox="0 0 560 569" fill="none" xmlns="http://www.w3.org/2000/svg">
<g clip-path="url(#clip0_1366_8305)">
<path d="M498.04 393.551H533.592V378.523H498.04V393.551Z" fill="#EBEBEB"/>
<path d="M517.883 412.501L535.807 412.125L544.641 411.977C547.581 411.91 550.508 411.977 553.435 411.896L552.831 412.501V397.473L553.502 398.144L535.726 398.063C529.805 398.063 523.871 397.902 517.95 397.835L518.313 397.473C518.313 399.93 518.205 402.401 518.138 404.899L517.883 412.501ZM517.883 412.501L517.641 405.128C517.574 402.63 517.48 400.091 517.467 397.54V397.07H517.843C523.764 396.989 529.698 396.855 535.619 396.841L553.395 396.761H554.066V397.432L553.986 412.46V413.065H553.395C550.401 413.065 547.393 413.065 544.399 412.998L535.458 412.85L517.883 412.501Z" fill="#EBEBEB"/>
<path d="M256.022 264.892L273.959 264.516L282.78 264.368C285.72 264.301 288.647 264.368 291.574 264.301L290.97 264.892L290.903 249.864L291.574 250.535L273.798 250.455C267.877 250.455 261.943 250.307 256.022 250.226L256.384 249.864C256.384 252.322 256.277 254.793 256.21 257.304L256.022 264.892ZM256.022 264.892L255.834 257.465C255.767 254.954 255.686 252.416 255.659 249.864V249.501H256.035C261.956 249.434 267.89 249.286 273.811 249.273L291.587 249.192H292.259V249.864L292.191 264.892V265.456H291.601C288.607 265.456 285.599 265.456 282.619 265.375L273.664 265.228L256.022 264.892Z" fill="#EBEBEB"/>
<path d="M275.852 283.842H311.404V268.814H275.852V283.842Z" fill="#EBEBEB"/>
<path d="M235.882 283.842L253.819 283.466L262.654 283.318C265.594 283.251 268.507 283.318 271.434 283.251L270.843 283.842L270.763 268.814L271.434 269.486L253.658 269.405C247.737 269.405 241.816 269.257 235.882 269.177L236.258 268.814C236.258 271.272 236.137 273.743 236.083 276.254L235.882 283.842ZM235.882 283.842L235.694 276.402C235.694 273.904 235.546 271.366 235.52 268.814V268.451H235.882C241.816 268.451 247.737 268.237 253.658 268.223L271.434 268.143H272.119V268.814L272.052 283.842V284.447H271.448C268.454 284.447 265.446 284.447 262.466 284.366L253.524 284.218L235.882 283.842Z" fill="#EBEBEB"/>
<path d="M310.759 93.499H346.312V78.4709H310.759V93.499Z" fill="#EBEBEB"/>
<path d="M6.56563 412.501L24.5028 412.125L33.3371 411.977C36.264 411.91 39.1909 411.977 42.1178 411.896L41.527 412.501L41.4465 397.473L42.1178 398.144L24.3417 398.063C18.4208 398.063 12.4865 397.902 6.56563 397.835L6.92813 397.473C6.92813 399.93 6.82072 402.401 6.75359 404.899L6.56563 412.501ZM6.56563 412.501L6.37766 405.128C6.31053 402.63 6.22998 400.091 6.20312 397.54V397.07H6.56563C12.4865 396.989 18.4208 396.855 24.3417 396.841L42.1178 396.761H42.7891V397.432V412.46V413.065H42.1849C39.1909 413.065 36.1835 413.065 33.2029 412.998L24.2611 412.85L6.56563 412.501Z" fill="#EBEBEB"/>
<path d="M26.3955 32.0434L44.3327 31.6673L53.167 31.5196C56.1073 31.4525 59.0207 31.5196 61.9476 31.439L61.3569 32.0434L61.2763 17.0018L61.9476 17.6733L44.1715 17.5927C38.2507 17.5927 32.3298 17.4316 26.3955 17.3644L26.7714 17.0018C26.7714 19.4595 26.6506 21.9306 26.5834 24.442L26.3955 32.0434ZM26.3955 32.0434L26.2478 24.6032C26.2478 22.1052 26.1001 19.5669 26.0732 17.0152V16.6526H26.4357C32.3701 16.5855 38.2909 16.4378 44.2118 16.4243L61.9879 16.3438H62.6726V17.0018L62.4981 32.0434V32.6477H61.8939C58.8999 32.6477 55.8925 32.6477 52.9119 32.5671L43.9701 32.4194L26.3955 32.0434Z" fill="#EBEBEB"/>
<path d="M6.56602 50.9932L42.1182 50.9932V35.965H6.56602V50.9932Z" fill="#EBEBEB"/>
<path d="M517.883 32.0434L535.807 31.6673L544.641 31.5196C547.581 31.4525 550.508 31.5196 553.435 31.439L552.831 32.0434V17.0152L553.502 17.6867L535.726 17.6062C529.805 17.6062 523.871 17.445 517.95 17.3779L518.313 17.0152C518.313 19.4729 518.205 21.944 518.138 24.4554L517.883 32.0434ZM517.883 32.0434L517.641 24.6032C517.574 22.1052 517.48 19.5669 517.467 17.0152V16.6526H517.843C523.764 16.5855 529.698 16.4378 535.619 16.4243L553.395 16.3438H554.066V17.0018L554.026 32.0434V32.6477H553.435C550.441 32.6477 547.434 32.6477 544.44 32.5671L535.498 32.4194L517.883 32.0434Z" fill="#EBEBEB"/>
<path d="M171.612 461.225H75.0117V568.221H171.612V461.225Z" fill="#EBEBEB"/>
<path d="M25.1477 568.234H75.0254L75.0254 461.224H25.1477L25.1477 568.234Z" fill="#DBDBDB"/>
<path d="M28.5713 560.915C32.2769 553.305 35.9377 545.695 39.5538 538.084L50.4154 514.944L61.1563 491.831C64.7366 484.114 68.2452 476.369 71.6823 468.598C67.9767 476.208 64.3159 483.841 60.6998 491.496L49.8784 514.515L39.1376 537.628C35.5663 545.354 32.0442 553.117 28.5713 560.915Z" fill="#EBEBEB"/>
<path d="M28.5713 468.598C32.0442 476.378 35.5528 484.123 39.0973 491.831L49.8381 514.944L60.6595 537.963C64.2845 545.618 67.9454 553.229 71.642 560.794C68.1691 553.023 64.6605 545.278 61.116 537.56L50.3752 514.448L39.5538 491.429C35.9288 483.818 32.2679 476.208 28.5713 468.598Z" fill="#EBEBEB"/>
<path d="M171.612 299.622H75.0117V399.246H171.612V299.622Z" fill="#EBEBEB"/>
<path d="M25.1477 399.259H75.0254L75.0254 299.622H25.1477L25.1477 399.259Z" fill="#DBDBDB"/>
<path d="M115.115 322.748H117.156H118.7L119.573 320.976L120.808 322.748L122.473 319.082L124.057 322.748H128.582H130.636L131.388 320.304L132.086 322.748H133.428V299.622H115.115V322.748Z" fill="#DBDBDB"/>
<path d="M28.5713 392.907C32.2769 385.833 35.9377 378.716 39.5538 371.553L50.3752 350.065L61.116 328.577C64.6963 321.414 68.2049 314.203 71.642 306.941C67.9364 314.032 64.2756 321.141 60.6595 328.268L49.8381 349.689L39.0973 371.177C35.5528 378.42 32.0442 385.663 28.5713 392.907Z" fill="#EBEBEB"/>
<path d="M28.5713 306.995C32.0442 314.22 35.5528 321.414 39.0973 328.577L49.8381 350.065L60.6595 371.553C64.2845 378.716 67.9454 385.825 71.642 392.88C68.1691 385.645 64.6605 378.434 61.116 371.244L50.3752 349.756L39.5538 328.335C35.9288 321.2 32.2679 314.086 28.5713 306.995Z" fill="#EBEBEB"/>
<path d="M81.3751 393.067H92.1025V382.337H81.3751V393.067Z" fill="white"/>
<path d="M165.18 399.259H68.5801V461.225H165.18V399.259Z" fill="#DBDBDB"/>
<path d="M18.7024 461.225H68.5801L68.5801 399.259H18.7024L18.7024 461.225Z" fill="#B8BABC"/>
<path d="M108.684 422.385H110.724H112.255L113.141 420.599L114.363 422.385L116.041 418.719L117.612 422.385H122.136H124.204L124.943 419.941L125.654 422.385H126.997V399.259H108.684V422.385Z" fill="white"/>
<path d="M22.1396 457.505C25.8363 453.028 29.4971 448.511 33.1222 443.954L43.9435 430.336L54.6844 416.651C58.2109 412.085 61.7151 407.5 65.197 402.898C61.5093 407.375 57.8484 411.892 54.2145 416.449L43.3931 430.081L32.6522 443.752C29.1167 448.345 25.6125 452.93 22.1396 457.505Z" fill="#DBDBDB"/>
<path d="M22.1396 402.938C25.6215 407.54 29.1301 412.125 32.6657 416.691L43.4065 430.376L54.2279 443.994C57.8082 448.524 61.46 453.028 65.1835 457.504C61.7196 452.902 58.2154 448.318 54.6709 443.752L43.9301 430.08L33.1087 416.449C29.4926 411.954 25.8363 407.451 22.1396 402.938Z" fill="#DBDBDB"/>
<path d="M541.298 474.628H444.697V568.235H541.298V474.628Z" fill="#DBDBDB"/>
<path d="M394.819 568.234H444.697V474.628H394.819V568.234Z" fill="#B8BABC"/>
<path d="M484.801 497.754H486.842H488.386L489.258 495.968L490.48 497.754L492.158 494.088L493.743 497.754H498.254H500.321L501.06 495.31L501.771 497.754H503.114V474.628H484.801V497.754Z" fill="white"/>
<path d="M398.257 562.661C401.953 555.866 405.614 549.043 409.239 542.194L420.061 521.619L430.802 500.964C434.382 494.061 437.886 487.14 441.314 480.201C437.626 486.997 433.966 493.819 430.332 500.668L419.51 521.23L408.837 541.898C405.292 548.801 401.766 555.722 398.257 562.661Z" fill="#DBDBDB"/>
<path d="M398.257 480.201C401.739 487.14 405.247 494.061 408.783 500.964L419.457 521.619L430.278 542.194C433.903 549.043 437.564 555.866 441.26 562.661C437.797 555.713 434.292 548.792 430.748 541.898L420.007 521.23L409.186 500.668C405.596 493.819 401.953 486.997 398.257 480.201Z" fill="#DBDBDB"/>
<path d="M373.338 11.6299V240.074H530.503V11.6299H373.338ZM524.703 234.205H379.138V17.3645H524.703V234.205Z" fill="#EBEBEB"/>
<path d="M524.69 17.3643H379.125V234.204H524.69V17.3643Z" fill="white"/>
<path d="M379.138 135.4L524.703 135.4V129.599L379.138 129.599V135.4Z" fill="#EBEBEB"/>
<path d="M362.651 256.646H541.177V239.993L362.651 239.993V256.646Z" fill="#DBDBDB"/>
<path d="M367.391 263.308L536.451 266.853V256.646H367.391V263.308Z" fill="#EBEBEB"/>
<path d="M379.138 17.3643H524.703V166.343H379.138V17.3643ZM519.332 22.7362H384.508V160.971H519.332V22.7362Z" fill="#DBDBDB"/>
<path d="M478.25 17.3643H475.35V160.971H478.25V17.3643Z" fill="#DBDBDB"/>
<path d="M428.492 17.3643H425.592V160.971H428.492V17.3643Z" fill="#DBDBDB"/>
<path d="M29.4971 11.6299V240.074H186.662V11.6299H29.4971ZM180.862 234.205H35.2971V17.3645H180.862V234.205Z" fill="#EBEBEB"/>
<path d="M180.862 17.3643H35.2969V234.204H180.862V17.3643Z" fill="white"/>
<path d="M35.2972 135.4L180.862 135.4V129.599L35.2972 129.599V135.4Z" fill="#EBEBEB"/>
<path d="M18.8099 256.646H197.336V239.993L18.8099 239.993V256.646Z" fill="#DBDBDB"/>
<path d="M23.5498 263.308L192.61 266.853V256.646H23.5498V263.308Z" fill="#EBEBEB"/>
<path d="M35.2969 17.3643H180.862V166.343H35.2969V17.3643ZM175.492 22.7362H40.6673V160.971H175.492V22.7362Z" fill="#DBDBDB"/>
<path d="M134.409 17.3643H131.509V160.971H134.409V17.3643Z" fill="#DBDBDB"/>
<path d="M84.651 17.3643H81.751V160.971H84.651V17.3643Z" fill="#DBDBDB"/>
<path d="M0 568.235L70.0034 567.913L139.993 567.792L280 567.563L419.993 567.792L489.997 567.899L560 568.235L489.997 568.557L419.993 568.678L280 568.906L139.993 568.678L70.0034 568.557L0 568.235Z" fill="#58595B"/>
<path d="M331.328 185.441C332.093 185.911 332.859 186.382 333.611 186.878" stroke="#58595B" stroke-width="0.75" stroke-miterlimit="10"/>
<path d="M338.081 189.98C362.369 207.95 381.273 240.625 360.114 272.561C347.641 291.363 326.548 283.614 319.218 276.886C311.162 269.432 318.573 261.817 326.616 266.907C340.552 275.744 342.512 296.185 327.072 311.226C317.016 321.084 303.926 321.688 296.716 321.111" stroke="#58595B" stroke-width="0.75" stroke-miterlimit="10" stroke-dasharray="4.06 4.06"/>
<path d="M294.016 320.882C292.351 320.654 291.331 320.412 291.331 320.412" stroke="#58595B" stroke-width="0.75" stroke-miterlimit="10"/>
<path d="M280.403 319.379C279.772 324.751 290.741 327.759 291.574 320.722C292.406 313.684 281.034 313.966 280.403 319.379Z" fill="#58595B"/>
<path d="M294.768 328.269C293.748 330.297 290.136 330.579 286.404 327.973C283.869 326.038 281.727 323.635 280.094 320.896C283.25 320.567 286.44 320.845 289.492 321.715C293.909 323.206 295.842 326.214 294.768 328.269Z" fill="#EBEBEB"/>
<path d="M280.134 320.896C282.255 321.849 284.336 322.883 286.417 323.904C288.498 324.924 290.552 326.012 292.58 327.14C290.458 326.187 288.377 325.153 286.296 324.132C284.215 323.111 282.161 322.024 280.134 320.896Z" fill="#58595B"/>
<path d="M289.881 328.229C289.399 327.67 288.951 327.082 288.538 326.47C288.133 325.862 287.765 325.229 287.438 324.576C287.92 325.135 288.368 325.723 288.78 326.335C289.188 326.942 289.556 327.574 289.881 328.229Z" fill="#58595B"/>
<path d="M285.37 323.515C286.109 323.322 286.857 323.17 287.612 323.058C288.373 322.95 289.14 322.883 289.908 322.856C288.421 323.227 286.901 323.447 285.37 323.515Z" fill="#58595B"/>
<path d="M284.202 324.401C283.74 323.826 283.41 323.157 283.235 322.44C283.697 323.015 284.027 323.685 284.202 324.401Z" fill="#58595B"/>
<path d="M296.54 314.208C296.017 311.992 292.58 310.891 288.351 312.556C285.432 313.856 282.789 315.702 280.563 317.995C283.581 319.041 286.772 319.497 289.962 319.338C294.486 318.962 297.078 316.491 296.54 314.208Z" fill="#EBEBEB"/>
<path d="M280.563 317.995C282.846 317.565 285.115 317.028 287.37 316.504C289.626 315.98 291.882 315.416 294.083 314.785C291.814 315.215 289.545 315.752 287.29 316.276C285.034 316.8 282.806 317.364 280.563 317.995Z" fill="#58595B"/>
<path d="M291.748 313.106C291.164 313.522 290.604 313.97 290.07 314.449C289.537 314.951 289.031 315.48 288.553 316.034C289.143 315.626 289.704 315.178 290.231 314.691C290.767 314.193 291.274 313.664 291.748 313.106Z" fill="#58595B"/>
<path d="M286.243 316.652C287.603 317.36 289.034 317.923 290.513 318.331C289.155 317.617 287.723 317.054 286.243 316.652Z" fill="#58595B"/>
<path d="M285.37 315.524C285.077 315.743 284.812 315.996 284.578 316.276C284.346 316.564 284.143 316.875 283.974 317.203C284.266 316.98 284.532 316.723 284.766 316.438C285.01 316.164 285.213 315.856 285.37 315.524Z" fill="#58595B"/>
<path d="M280.403 319.378C280.787 319.423 281.15 319.58 281.445 319.831C281.74 320.082 281.954 320.415 282.061 320.787C282.167 321.159 282.161 321.555 282.043 321.924C281.925 322.293 281.7 322.618 281.397 322.859C281.094 323.101 280.727 323.247 280.341 323.279C279.955 323.312 279.568 323.23 279.229 323.042C278.89 322.855 278.614 322.572 278.436 322.228C278.258 321.884 278.185 321.495 278.228 321.11C278.288 320.593 278.551 320.121 278.958 319.796C279.366 319.472 279.885 319.321 280.403 319.378Z" fill="#B8BABC"/>
<path d="M280.859 315.47C281.116 315.5 281.364 315.581 281.589 315.706C281.815 315.832 282.013 316.001 282.174 316.204C282.334 316.407 282.453 316.639 282.523 316.888C282.593 317.136 282.614 317.396 282.584 317.653C282.554 317.909 282.474 318.158 282.348 318.383C282.222 318.609 282.053 318.807 281.851 318.968C281.648 319.128 281.416 319.247 281.168 319.317C280.919 319.388 280.659 319.408 280.403 319.378C279.885 319.318 279.412 319.054 279.088 318.645C278.765 318.235 278.617 317.714 278.677 317.196C278.738 316.678 279.002 316.205 279.411 315.881C279.82 315.558 280.341 315.41 280.859 315.47Z" fill="#B8BABC"/>
<path d="M159.166 445.834C159.166 445.834 130.541 503.166 130.528 503.166C128.165 514.998 126.312 525.433 125.842 530.913C125.835 530.944 125.835 530.976 125.842 531.007C125.594 532.277 125.645 533.587 125.99 534.834C125.983 534.865 125.983 534.897 125.99 534.928C129.038 538.017 223.1 559.68 226.685 559.331C230.27 558.981 229.505 548.869 226.524 545.122C223.543 541.375 191.227 516.919 191.227 516.919L219.207 459.492L159.166 445.834Z" fill="#FFBE9D"/>
<path d="M225.263 559.384C221.731 559.734 129.078 538.058 126.044 534.982C126.04 534.951 126.04 534.919 126.044 534.888C125.693 533.642 125.638 532.332 125.883 531.061C125.872 531.03 125.872 530.997 125.883 530.967C126.339 525.487 128.206 515.052 130.555 503.207L137.403 489.481L196.759 505.759L191.281 517.013C191.281 517.013 222.161 541.415 225.155 545.216C228.149 549.016 228.807 559.049 225.263 559.384Z" fill="#EBEBEB"/>
<path d="M226.551 557.88C222.967 558.149 128.676 534.109 125.668 530.913C124.514 529.718 127.212 515.764 130.958 499.003L131.079 498.479L192.087 513.32L191.805 514.34C191.805 514.34 223.772 539.696 226.713 543.564C229.653 547.432 230.123 557.625 226.551 557.88Z" fill="#58595B"/>
<path d="M226.404 553.945C210.615 549.513 146.492 533.075 130.542 529.879C130.407 529.879 130.381 529.946 130.542 529.986C146.102 534.727 210.359 550.642 226.377 554.16C226.686 554.281 226.739 554.039 226.404 553.945Z" fill="white"/>
<path d="M196.866 515.831C190.905 513.065 183.011 512.071 177.103 515.321C176.875 515.442 177.103 515.764 177.264 515.751C183.734 515.345 190.229 515.633 196.638 516.61C196.732 516.616 196.825 516.589 196.902 516.535C196.98 516.481 197.036 516.402 197.063 516.312C197.089 516.221 197.084 516.124 197.048 516.037C197.013 515.95 196.949 515.877 196.866 515.831Z" fill="white"/>
<path d="M200.679 519.699C194.732 516.946 186.837 515.952 180.916 519.189C180.688 519.31 180.916 519.632 181.091 519.632C187.561 519.219 194.056 519.508 200.465 520.492C200.562 520.501 200.661 520.476 200.741 520.42C200.822 520.364 200.881 520.281 200.907 520.186C200.932 520.091 200.924 519.99 200.882 519.901C200.84 519.812 200.769 519.74 200.679 519.699Z" fill="white"/>
<path d="M204.506 523.581C198.544 520.814 190.65 519.82 184.742 523.057C184.514 523.191 184.742 523.514 184.917 523.5C191.383 523.095 197.873 523.383 204.277 524.36C204.371 524.365 204.465 524.339 204.542 524.285C204.619 524.23 204.675 524.152 204.702 524.061C204.728 523.971 204.723 523.874 204.688 523.787C204.652 523.699 204.588 523.627 204.506 523.581Z" fill="white"/>
<path d="M228.847 554.872C230.364 555.947 228.551 561.52 227.222 561.668C225.893 561.815 123.197 535.143 121.573 534.297C119.948 533.451 122.177 527.354 124.258 527.582C126.339 527.811 228.847 554.872 228.847 554.872Z" fill="#8ACCA1"/>
<path d="M143.954 513.011C137.993 507.854 129.964 517.12 135.899 522.291C141.833 527.461 149.929 518.181 143.954 513.011Z" fill="white"/>
<path d="M137.576 484.902L206.371 502.254C206.371 502.254 270.494 386.501 269.057 357.076C267.084 316.49 219.448 191.699 219.448 191.699H162.414C162.414 191.699 200.262 326.603 200.786 349.3C201.014 361.172 137.576 484.902 137.576 484.902Z" fill="#B8BABC"/>
<path d="M209.312 488.286C205.647 486.822 172.901 477.367 148.465 472.17C148.439 472.179 148.415 472.196 148.399 472.219C148.382 472.242 148.373 472.269 148.373 472.298C148.373 472.326 148.382 472.353 148.399 472.376C148.415 472.399 148.439 472.416 148.465 472.425C156.158 475.111 204.707 487.91 209.258 488.541C209.366 488.581 209.473 488.393 209.312 488.286Z" fill="#58595B"/>
<path d="M205.512 320.318C200.974 301.274 196.114 282.284 191.012 263.415C185.91 244.546 180.446 225.503 174.445 206.781C173.72 204.485 172.954 202.215 172.216 199.932C172.195 199.859 172.145 199.797 172.078 199.761C172.012 199.724 171.933 199.716 171.86 199.737C171.787 199.759 171.726 199.808 171.689 199.875C171.653 199.941 171.644 200.02 171.665 200.093C177.036 218.747 182.406 237.361 187.495 256.083C192.583 274.804 197.43 293.579 201.995 312.488C203.136 317.162 204.25 321.822 205.338 326.509C206.602 331.313 207.579 336.188 208.265 341.108C208.829 345.809 208.506 350.574 207.312 355.155C206.016 359.657 204.322 364.035 202.25 368.236C194.024 386.098 185.803 403.964 177.586 421.835C169.37 439.751 168.04 443.833 160.132 461.897C159.152 464.139 158.172 466.382 157.232 468.612C157.232 468.759 157.38 468.894 157.461 468.733C166.456 451.032 167.839 446.775 176.257 428.752C184.675 410.729 193.04 392.491 201.391 374.347C205.15 366.154 209.567 357.801 210.131 348.642C210.695 339.08 207.687 329.491 205.512 320.318Z" fill="#58595B"/>
<path d="M208.627 468.504L210.829 531.625C211.191 543.712 211.715 554.281 212.507 559.72C212.501 559.751 212.501 559.783 212.507 559.814C212.552 561.105 212.892 562.369 213.501 563.508L213.581 563.588C217.246 565.912 313.766 565.858 317.136 564.716C320.506 563.575 317.526 553.905 313.78 550.91C310.034 547.916 273.059 531.41 273.059 531.41L270.252 468.356L208.627 468.504Z" fill="#FFBE9D"/>
<path d="M210.373 518.705C210.373 518.705 210.83 531.624 210.83 531.665C211.192 543.752 211.716 554.321 212.508 559.76C212.501 559.791 212.501 559.823 212.508 559.854C212.691 561.12 213.025 562.36 213.501 563.547L213.582 563.628C217.247 565.951 313.767 565.898 317.137 564.756C320.507 563.614 317.526 553.945 313.78 550.95C310.035 547.955 273.059 531.45 273.059 531.45L272.777 518.302L210.373 518.705Z" fill="#EBEBEB"/>
<path d="M317.19 564.649C313.78 565.737 216.495 564.232 212.816 561.815C211.474 560.915 210.802 546.733 210.561 529.583V529.046L273.341 529.315V530.389C273.341 530.389 310.329 547.62 314.075 550.695C317.821 553.77 320.614 563.601 317.19 564.649Z" fill="#58595B"/>
<path d="M316.156 560.915C299.763 560.257 233.573 559.156 217.314 559.76C217.179 559.76 217.179 559.854 217.314 559.854C233.546 560.861 299.749 561.439 316.156 561.197C316.492 561.117 316.505 560.915 316.156 560.915Z" fill="white"/>
<path d="M278.577 530.631C272.146 529.288 264.225 530.188 259.23 534.66C259.029 534.835 259.23 535.103 259.499 535.05C265.697 533.157 272.079 531.928 278.537 531.383C278.615 531.358 278.683 531.31 278.733 531.246C278.783 531.181 278.812 531.103 278.816 531.021C278.821 530.939 278.8 530.858 278.757 530.789C278.715 530.719 278.652 530.664 278.577 530.631Z" fill="white"/>
<path d="M283.196 533.505C276.751 532.162 268.843 533.076 263.849 537.602C263.647 537.776 263.849 538.045 264.104 537.978C270.306 536.083 276.693 534.858 283.155 534.325C283.253 534.313 283.342 534.266 283.409 534.195C283.476 534.123 283.515 534.03 283.52 533.932C283.524 533.834 283.495 533.738 283.435 533.66C283.376 533.582 283.291 533.527 283.196 533.505Z" fill="white"/>
<path d="M287.801 536.393C281.37 535.05 273.462 535.95 268.454 540.422C268.266 540.596 268.454 540.865 268.722 540.811C274.921 538.92 281.303 537.691 287.761 537.145C287.838 537.12 287.907 537.072 287.957 537.007C288.006 536.943 288.036 536.864 288.04 536.783C288.044 536.701 288.024 536.62 287.981 536.551C287.938 536.481 287.875 536.426 287.801 536.393Z" fill="white"/>
<path d="M318.735 561.184C320.467 561.882 319.997 567.724 318.735 568.167C317.473 568.611 211.326 566.502 209.594 566.072C207.862 565.643 208.56 559.183 210.668 558.874C212.776 558.565 318.735 561.184 318.735 561.184Z" fill="#8ACCA1"/>
<path d="M226.457 540.166C219.462 536.527 213.796 547.405 220.804 551.045C227.813 554.684 233.465 543.806 226.457 540.166Z" fill="white"/>
<path d="M218.737 191.592C218.482 192.76 204.264 248.991 202.492 250.039C200.478 251.234 254.155 323.474 260.519 358.943C264.547 381.626 273.945 513.844 273.945 513.844H205.499C205.499 513.844 198.786 401.556 196.558 364.556C195.685 350.2 141.846 283.829 136.731 239.577C135.12 225.637 145.136 191.538 145.136 191.538L218.737 191.592Z" fill="#B8BABC"/>
<path d="M203.767 460.419C202.962 441.819 202.223 423.178 200.867 404.604C200.102 394.075 198.598 383.882 197.551 373.393C197.551 372.842 197.054 372.708 197.068 373.272C197.551 391.953 199.095 410.433 200.089 429.101C201.082 447.768 202.035 452.119 203.096 470.733C203.687 481.263 204.21 491.792 205.029 502.307C205.038 502.334 205.055 502.358 205.078 502.374C205.101 502.391 205.129 502.4 205.157 502.4C205.185 502.4 205.213 502.391 205.236 502.374C205.258 502.358 205.276 502.334 205.284 502.307C205.325 483.613 204.586 479.087 203.767 460.419Z" fill="#58595B"/>
<path d="M260.586 359.829C260.001 354.917 259.049 350.055 257.74 345.284C256.33 340.66 254.473 336.185 252.195 331.921C247.536 322.977 242.233 314.328 237.118 305.639C232.002 296.95 226.672 288.073 221.275 279.397C218.241 274.526 215.193 269.66 212.132 264.798C209.017 259.896 205.728 255.089 202.519 250.254C202.494 250.213 202.454 250.183 202.407 250.172C202.36 250.161 202.311 250.168 202.27 250.193C202.229 250.218 202.2 250.258 202.189 250.305C202.177 250.352 202.185 250.401 202.21 250.442C207.446 259.225 212.629 268.022 217.865 276.805C223.101 285.588 228.256 294.398 233.412 303.208C238.568 312.018 243.576 320.56 248.436 329.37C250.829 333.553 252.889 337.917 254.598 342.424C256.188 347.093 257.343 351.899 258.049 356.78C259.875 368.155 261.365 379.611 263.647 390.879C263.656 390.906 263.673 390.929 263.696 390.946C263.719 390.962 263.747 390.971 263.775 390.971C263.803 390.971 263.831 390.962 263.854 390.946C263.877 390.929 263.894 390.906 263.903 390.879C263.191 380.511 261.956 370.13 260.586 359.829Z" fill="#58595B"/>
<path d="M267.917 502.106C264.01 501.596 234.19 500.562 209.245 501.636C209.084 501.636 209.097 501.878 209.245 501.891C217.368 502.603 263.298 502.925 267.876 502.388C267.997 502.375 268.051 502.133 267.917 502.106Z" fill="#58595B"/>
<path d="M211.42 246.198C204.446 248.74 197.708 251.885 191.281 255.599C191.226 255.624 191.183 255.67 191.161 255.726C191.14 255.783 191.142 255.846 191.167 255.901C191.192 255.956 191.237 255.999 191.294 256.021C191.351 256.042 191.414 256.04 191.469 256.015C198.262 253.088 205.204 250.294 211.836 247.004C211.943 246.949 212.023 246.853 212.06 246.739C212.096 246.624 212.086 246.5 212.031 246.393C211.976 246.286 211.88 246.205 211.766 246.169C211.651 246.132 211.527 246.143 211.42 246.198Z" fill="#58595B"/>
<path d="M213.474 199.65C213.474 199.422 213.044 199.368 213.044 199.65C213.046 207.239 212.665 214.823 211.903 222.373C211.581 225.879 208.761 245.204 202.693 243.861C201.672 243.62 201.162 242.626 201.001 241.081C201.018 239.077 201.289 237.082 201.807 235.145C202.478 231.116 203.015 227.087 203.364 222.937C204.076 215.312 203.995 207.634 203.122 200.026C203.111 199.983 203.086 199.945 203.051 199.918C203.015 199.891 202.972 199.876 202.928 199.876C202.883 199.876 202.84 199.891 202.805 199.918C202.77 199.945 202.744 199.983 202.733 200.026C202.909 210.596 202.29 221.163 200.88 231.64C200.115 236.676 197.578 244.264 202.854 245.07C208.13 245.876 211.688 233.158 212.333 229.679C214.012 219.761 214.396 209.667 213.474 199.65Z" fill="#58595B"/>
<path d="M202.854 244.277C202.317 245.589 201.868 246.935 201.512 248.306C201.125 249.36 200.934 250.475 200.948 251.597C200.954 251.643 200.975 251.685 201.006 251.719C201.038 251.753 201.079 251.777 201.124 251.787C201.169 251.797 201.216 251.794 201.259 251.776C201.302 251.759 201.339 251.729 201.364 251.691C201.998 250.701 202.474 249.618 202.774 248.481C203.244 247.232 203.727 246.01 204.116 244.747C204.179 244.58 204.172 244.395 204.098 244.232C204.024 244.07 203.888 243.944 203.72 243.881C203.553 243.819 203.368 243.826 203.205 243.9C203.043 243.974 202.917 244.11 202.854 244.277Z" fill="#58595B"/>
<path d="M205.714 382.606C205.069 373.044 205.109 362.958 201.041 354.094C198.881 349.774 196.394 345.626 193.603 341.685C190.829 337.441 188.09 333.174 185.387 328.886C174.646 311.736 164.281 294.236 154.842 276.307C150.291 267.672 146.102 258.755 143.82 249.219C141.594 239.185 141.171 228.835 142.571 218.653C142.893 216.114 143.242 213.59 143.658 211.065C143.66 211.031 143.649 210.997 143.629 210.97C143.608 210.942 143.578 210.923 143.545 210.915C143.512 210.907 143.477 210.911 143.446 210.926C143.415 210.941 143.391 210.966 143.377 210.998C141.167 220.68 140.412 230.638 141.134 240.543C142.168 250.014 144.834 259.234 149.015 267.793C153.178 276.804 158.132 285.48 163.019 294.116C168.058 303.069 173.245 311.892 178.58 320.586C183.95 329.262 189.482 337.763 195.027 346.304C197.855 350.333 200.059 354.766 201.565 359.452C202.786 364.343 203.488 369.349 203.659 374.386C205.002 395.525 210.372 465.804 212.279 486.836C212.507 489.522 212.749 492.208 213.004 494.894C212.996 494.921 212.995 494.951 213.001 494.979C213.006 495.008 213.018 495.034 213.036 495.057C213.053 495.08 213.076 495.099 213.102 495.112C213.128 495.125 213.156 495.131 213.185 495.131C213.214 495.131 213.243 495.125 213.269 495.112C213.295 495.099 213.317 495.08 213.335 495.057C213.352 495.034 213.364 495.008 213.37 494.979C213.375 494.951 213.374 494.921 213.366 494.894C212.561 473.782 207.097 403.677 205.714 382.606Z" fill="#58595B"/>
<path d="M172.86 210.125C172.86 209.977 172.619 210.031 172.619 210.125C172.417 215.994 172.619 222.064 170.323 227.584C168.255 232.674 164.093 236.246 159.434 238.919C156.725 240.44 153.933 241.807 151.07 243.015C150.869 243.109 150.949 243.431 151.177 243.364C156.548 241.645 162.093 239.778 166.591 236.179C171.397 232.311 173.505 226.711 173.733 220.667C173.815 217.132 173.523 213.598 172.86 210.125Z" fill="#58595B"/>
<path d="M202.653 114.463C210.333 138.046 231.076 178.215 238.487 183.063C245.053 187.348 275.946 182.567 289.506 179.303C294.554 178.081 283.196 139.591 277.812 141.001C271.354 142.693 252.115 147.031 250.718 145.956C249.322 144.882 229.921 120.977 216.173 106.902C203.66 94.1571 199.753 105.546 202.653 114.463Z" fill="#FFBE9D"/>
<path d="M286.538 179.599C289.129 179.277 311.054 178.256 321.11 172.79C326.481 169.876 340.189 160.233 338.819 156.768C337.571 153.612 333.167 155.331 333.167 155.331C333.167 155.331 339.222 150.939 337.45 146.561C335.678 142.183 328.36 145.473 328.36 145.473C328.36 145.473 334.254 140.504 332.173 136.274C330.092 132.043 323.299 136.569 323.299 136.569C323.299 136.569 328.897 132.285 325.715 129.519C321.876 126.188 312.437 135.267 306.06 137.389C304.61 137.872 276.039 145.097 276.039 145.097L286.538 179.599Z" fill="#FFBE9D"/>
<path d="M323.057 136.448C316.102 143.096 311.9 144.802 302.609 146.682C302.435 146.682 302.448 147.004 302.609 146.977C311.873 145.97 317.445 144.587 323.366 136.771C323.688 136.381 323.379 136.126 323.057 136.448Z" fill="#58595B"/>
<path d="M328.132 145.312C320.305 151.597 315.767 153.478 306.18 156.164C306.046 156.164 306.1 156.446 306.248 156.419C315.861 154.565 321.392 153.061 328.387 145.755C328.709 145.433 328.495 145.03 328.132 145.312Z" fill="#58595B"/>
<path d="M332.697 155.438C324.642 160.971 319.795 163.267 310.155 164.677C310.109 164.677 310.064 164.696 310.032 164.729C309.999 164.761 309.98 164.806 309.98 164.852C309.98 164.898 309.999 164.943 310.032 164.975C310.064 165.008 310.109 165.027 310.155 165.027C320.131 164.543 326.266 161.736 332.805 155.706C333.288 155.33 333.194 155.102 332.697 155.438Z" fill="#58595B"/>
<path d="M268.548 146.332C268.548 146.332 276.536 137.294 280.913 134.098C285.29 130.901 306.02 124.992 307.55 129.397C309.524 135.091 298.233 140.853 292.339 142.948C292.339 142.948 296.917 156.109 289.654 161.992C282.39 167.874 268.548 146.332 268.548 146.332Z" fill="#FFBE9D"/>
<path d="M307.591 131.156C305.644 137.643 297.723 139.899 292.151 142.357C292.068 142.392 291.995 142.447 291.938 142.516C291.88 142.584 291.839 142.666 291.818 142.753C291.797 142.84 291.797 142.931 291.817 143.019C291.838 143.106 291.879 143.188 291.936 143.257C293.493 148.897 294.03 157.304 290.083 162.059C289.976 162.193 290.15 162.381 290.285 162.26C295.212 157.748 295.346 149.434 293.252 143.364C299.011 140.933 306.852 138.314 307.644 131.183C307.658 131.156 307.604 131.156 307.591 131.156Z" fill="#58595B"/>
<path d="M286.525 186.22L276.402 140.101L251.349 144.654C241.467 133.332 221.718 110.703 213.756 103.907C204.358 95.9299 198.209 101.92 201.672 114.007C209.5 141.632 232.391 182.191 238.379 186.018C247.066 191.592 286.525 186.22 286.525 186.22Z" fill="#8ACCA1"/>
<path opacity="0.1" d="M250.758 158.689C251.998 158.958 253.262 159.107 254.531 159.132C257.216 159.494 258.397 163.456 255.954 164.96C254.671 165.751 253.22 166.23 251.718 166.358C250.217 166.486 248.706 166.261 247.307 165.699C244.622 164.651 242.353 162.046 242.93 158.984C243.03 158.413 243.276 157.878 243.644 157.43C244.012 156.983 244.49 156.638 245.031 156.43C245.571 156.222 246.157 156.157 246.73 156.242C247.303 156.327 247.844 156.559 248.301 156.916C249.045 157.604 249.87 158.2 250.758 158.689ZM243.83 147.716C242.863 152.282 249.925 156.204 253.537 153.773C253.828 153.553 254.066 153.269 254.232 152.944C254.399 152.619 254.49 152.261 254.499 151.895C254.508 151.53 254.435 151.168 254.285 150.835C254.134 150.502 253.911 150.207 253.631 149.972C252.57 149.113 251.684 148.979 250.744 148.2C250.416 147.943 250.126 147.64 249.885 147.3C249.353 146.566 248.671 145.952 247.885 145.5C247.476 145.326 247.032 145.246 246.588 145.267C246.144 145.289 245.71 145.411 245.32 145.624C244.929 145.837 244.592 146.136 244.334 146.499C244.076 146.861 243.904 147.278 243.83 147.716ZM232.566 147.958C231.116 149.852 232.203 152.699 233.479 154.418C234.053 155.274 234.844 155.962 235.77 156.413C236.697 156.864 237.727 157.06 238.755 156.983C239.129 156.93 239.481 156.77 239.766 156.522C240.052 156.274 240.26 155.949 240.365 155.586C240.47 155.222 240.468 154.836 240.358 154.474C240.249 154.112 240.037 153.789 239.748 153.545C238.941 152.931 238.296 152.128 237.869 151.208C237.238 149.784 236.822 147.945 235.184 147.327C234.736 147.143 234.242 147.105 233.772 147.218C233.302 147.331 232.88 147.59 232.566 147.958ZM262.304 177.826C260.411 181.654 266.171 186.005 269.662 185.253C270.83 184.998 271.958 183.467 270.924 182.366C270.091 181.479 269.098 180.781 268.319 179.841C267.366 178.699 266.842 177.235 265.352 176.658C264.791 176.423 264.162 176.414 263.594 176.631C263.026 176.849 262.564 177.277 262.304 177.826ZM208.224 130.889C207.894 130.26 207.437 129.706 206.882 129.263C207.633 131.188 208.426 133.118 209.258 135.052C209.303 133.595 208.945 132.155 208.224 130.889ZM215.702 126.86C215.44 123.542 214.144 120.39 211.997 117.848C210.386 115.766 207.593 112.476 204.639 113.188C204.325 113.286 204.051 113.483 203.858 113.749C203.665 114.015 203.562 114.336 203.565 114.665C203.377 116.935 205.982 119.366 207.11 121.179C208.452 123.462 209.513 125.987 210.963 128.256C211.266 128.723 211.712 129.079 212.234 129.271C212.756 129.463 213.326 129.482 213.86 129.323C214.393 129.164 214.86 128.837 215.193 128.391C215.525 127.944 215.704 127.403 215.702 126.846V126.86ZM214.83 141.297C215.354 141.27 215.857 141.075 216.263 140.741C216.668 140.408 216.957 139.953 217.085 139.443C217.294 138.401 217.225 137.322 216.884 136.314C216.683 135.355 216.218 134.471 215.541 133.763C215.299 133.538 215.003 133.381 214.681 133.305C214.36 133.23 214.024 133.24 213.707 133.333C213.391 133.427 213.104 133.601 212.874 133.838C212.645 134.076 212.482 134.369 212.4 134.689C212.292 135.473 212.292 136.269 212.4 137.053C212.4 137.389 212.4 137.724 212.4 138.074C212.393 138.58 212.447 139.085 212.561 139.578C212.705 140.068 213.004 140.499 213.413 140.807C213.821 141.114 214.318 141.281 214.83 141.283V141.297Z" fill="#030402"/>
<path d="M277.758 182.191C276.603 179.505 273.73 167.579 273.099 164.611C272.468 161.643 270.132 149.636 269.447 146.588C269.447 146.413 269.635 146.319 269.676 146.48C270.401 149.489 273.636 161.334 274.348 164.289C275.059 167.243 277.731 179.156 277.919 182.15C277.922 182.161 277.922 182.172 277.921 182.183C277.919 182.194 277.915 182.204 277.91 182.213C277.898 182.232 277.88 182.246 277.859 182.251C277.837 182.256 277.815 182.253 277.796 182.242C277.777 182.23 277.763 182.212 277.758 182.191Z" fill="#58595B"/>
<path opacity="0.1" d="M254.491 188.529C247.442 188.529 241.253 187.858 238.379 186.018C232.351 182.123 209.46 141.699 201.579 114.02C199.592 107.09 200.786 102.148 203.928 100.711L254.491 188.529Z" fill="black"/>
<path d="M140.88 197.917C141.054 198.172 224.833 208.916 225.732 208.137C226.206 205.804 226.542 203.445 226.739 201.073C226.739 201.073 219.06 109.83 215.086 104.471C211.608 99.7977 201.055 96.4133 193.872 99.462C178.795 105.855 142.692 187.374 143.082 190.786C143.055 190.745 140.665 197.595 140.88 197.917Z" fill="#8ACCA1"/>
<path opacity="0.1" d="M171.088 186.811C172.38 187.439 173.728 187.942 175.116 188.315C177.908 189.43 178.163 194.09 175.116 195.03C173.495 195.544 171.778 195.672 170.099 195.404C168.421 195.136 166.828 194.479 165.449 193.486C162.764 191.605 161.032 188.114 162.482 184.998C162.748 184.405 163.162 183.891 163.684 183.504C164.207 183.118 164.819 182.872 165.464 182.791C166.109 182.71 166.763 182.797 167.365 183.042C167.967 183.287 168.495 183.683 168.899 184.192C169.651 185.065 170.108 186.22 171.088 186.811ZM166.496 172.938C164.2 177.679 170.846 183.87 175.451 182.191C175.837 182.037 176.182 181.795 176.458 181.485C176.735 181.175 176.936 180.805 177.045 180.404C177.154 180.003 177.169 179.582 177.088 179.174C177.007 178.767 176.833 178.383 176.579 178.055C175.666 176.832 174.726 176.443 173.894 175.369C173.606 174.997 173.376 174.585 173.209 174.146C172.812 173.209 172.232 172.36 171.504 171.649C169.906 170.104 167.342 171.192 166.496 172.938ZM158.736 167.888C156.225 168.828 155.581 172.213 155.769 174.603C155.807 175.764 156.153 176.895 156.771 177.879C157.389 178.862 158.257 179.665 159.286 180.203C159.675 180.377 160.105 180.434 160.525 180.368C160.946 180.302 161.338 180.116 161.654 179.832C161.971 179.548 162.199 179.178 162.31 178.767C162.421 178.357 162.411 177.922 162.28 177.517C161.854 176.444 161.706 175.279 161.851 174.133C162.079 172.414 162.764 170.4 161.622 168.855C161.305 168.41 160.854 168.077 160.336 167.903C159.818 167.729 159.257 167.724 158.736 167.888ZM186.259 183.87C185.624 183.815 184.991 184.006 184.492 184.403C183.993 184.8 183.664 185.374 183.574 186.005C183.505 186.684 183.676 187.365 184.055 187.932C184.435 188.498 185.001 188.914 185.655 189.107C186.571 189.41 187.559 189.41 188.474 189.107C188.943 188.922 189.329 188.574 189.562 188.127C189.832 187.695 189.941 187.181 189.871 186.677C189.796 186.206 189.581 185.769 189.252 185.423C188.924 185.078 188.498 184.84 188.031 184.743C187.947 184.631 187.848 184.532 187.736 184.447C187.31 184.116 186.797 183.915 186.259 183.87ZM165.677 151.463C163.421 153.773 164.334 159.024 166.912 160.797C167.244 161.049 167.636 161.211 168.05 161.265C168.463 161.318 168.883 161.263 169.269 161.104C169.654 160.945 169.992 160.689 170.247 160.359C170.503 160.029 170.667 159.639 170.725 159.226C170.765 158.694 170.765 158.16 170.725 157.628C170.725 157.05 170.645 156.688 170.725 156.285C170.926 155.136 170.967 153.966 170.846 152.806C170.742 152.256 170.483 151.747 170.101 151.339C169.719 150.93 169.228 150.638 168.687 150.497C168.145 150.357 167.575 150.373 167.042 150.544C166.509 150.715 166.036 151.034 165.677 151.463ZM151.11 184.877C148.008 188.557 153.124 194.869 157.138 194.99C158.481 194.99 160.132 193.647 159.3 192.169C158.628 190.988 157.729 189.94 157.138 188.718C156.413 187.214 156.239 185.455 154.762 184.434C154.211 184.029 153.527 183.849 152.848 183.932C152.169 184.014 151.548 184.352 151.11 184.877ZM225.181 183.709C224.676 183.784 224.204 184.009 223.827 184.353C223.449 184.697 223.182 185.146 223.06 185.643C222.63 187.133 222.577 188.463 221.462 189.672C220.256 190.621 219.174 191.717 218.24 192.935C218.084 193.239 218.01 193.579 218.025 193.92C218.039 194.262 218.142 194.593 218.324 194.883C218.505 195.173 218.758 195.41 219.059 195.573C219.36 195.735 219.697 195.816 220.039 195.809C222.384 195.521 224.53 194.349 226.041 192.532C225.772 189.98 225.503 186.986 225.195 183.655L225.181 183.709ZM218.468 172.629C217.716 174.455 217.851 176.524 217.22 178.431C216.666 180.179 216.007 181.892 215.246 183.561C214.682 184.77 215.81 186.677 217.273 186.032C219.653 185.118 221.6 183.338 222.724 181.049C223.745 178.941 224.872 175.395 223.892 173.153C222.912 170.91 219.583 169.929 218.441 172.575L218.468 172.629ZM210.815 190.934C209.7 192.376 208.272 193.547 206.64 194.359C206.251 194.479 205.892 194.681 205.587 194.951C205.282 195.221 205.038 195.553 204.871 195.925C204.704 196.296 204.618 196.699 204.618 197.106C204.619 197.514 204.706 197.916 204.874 198.288C205.041 198.659 205.286 198.99 205.592 199.259C205.897 199.529 206.256 199.73 206.646 199.85C207.035 199.97 207.445 200.006 207.849 199.955C208.253 199.904 208.642 199.768 208.989 199.556C210.379 198.96 211.62 198.067 212.627 196.939C213.634 195.812 214.381 194.477 214.816 193.029C215.447 190.706 212.306 189.188 210.789 190.88L210.815 190.934ZM198.544 125.127C199.294 125.286 200.077 125.148 200.727 124.742C201.378 124.337 201.847 123.695 202.035 122.951C202.787 120.064 200.209 117.096 198.168 115.296C196.127 113.497 193.254 111.858 190.394 112.785C190.014 112.908 189.671 113.127 189.398 113.42C189.126 113.713 188.933 114.071 188.837 114.46C188.742 114.849 188.747 115.256 188.853 115.642C188.958 116.028 189.161 116.38 189.441 116.666C190.69 118.224 192.422 119.352 193.751 120.883C195.08 122.414 196.181 124.684 198.517 125.073L198.544 125.127ZM208.842 136.529C209.97 134.904 209.097 132.5 208.291 130.956C207.862 130.104 207.195 129.395 206.371 128.914C205.817 128.559 205.145 128.438 204.501 128.576C203.857 128.715 203.294 129.102 202.934 129.653C202.568 130.417 202.51 131.292 202.773 132.097C202.885 132.519 203.038 132.928 203.23 133.319V133.44V133.548C203.47 134.83 204.013 136.037 204.814 137.066C205.091 137.346 205.429 137.557 205.802 137.684C206.174 137.811 206.571 137.85 206.961 137.798C207.351 137.746 207.724 137.604 208.05 137.384C208.376 137.164 208.647 136.871 208.842 136.529ZM215.77 126.913C215.507 123.596 214.211 120.444 212.064 117.902C210.453 115.82 207.66 112.53 204.707 113.242C204.393 113.34 204.119 113.536 203.925 113.802C203.732 114.069 203.629 114.39 203.632 114.719C203.444 116.989 206.049 119.419 207.177 121.232C208.52 123.516 209.58 126.04 211.03 128.31C211.346 128.751 211.793 129.081 212.308 129.253C212.822 129.425 213.378 129.43 213.895 129.268C214.413 129.106 214.866 128.784 215.191 128.35C215.515 127.915 215.694 127.389 215.702 126.846L215.77 126.913ZM205.633 149.905C206.124 150.013 206.632 150.013 207.123 149.905C207.867 149.676 208.496 149.172 208.882 148.495C209.243 147.775 209.423 146.977 209.406 146.172C209.381 145.409 209.174 144.663 208.801 143.996L208.358 143.446L207.768 143.016C207.398 142.825 206.99 142.72 206.575 142.709C206.159 142.698 205.746 142.78 205.367 142.951C204.988 143.121 204.652 143.375 204.384 143.693C204.116 144.011 203.924 144.386 203.82 144.789C203.597 145.571 203.44 146.37 203.351 147.179L203.471 147.918C203.565 148.288 203.75 148.63 204.008 148.912C204.414 149.38 204.96 149.706 205.566 149.838L205.633 149.905ZM214.897 141.351C215.422 141.323 215.924 141.129 216.33 140.795C216.736 140.462 217.024 140.007 217.152 139.497C217.361 138.455 217.292 137.375 216.951 136.368C216.75 135.409 216.285 134.525 215.608 133.816C215.366 133.592 215.07 133.435 214.748 133.359C214.427 133.284 214.091 133.293 213.774 133.387C213.458 133.48 213.171 133.654 212.942 133.892C212.712 134.13 212.549 134.423 212.467 134.743C212.359 135.527 212.359 136.322 212.467 137.107C212.467 137.442 212.467 137.778 212.467 138.127C212.46 138.633 212.514 139.138 212.628 139.631C212.778 140.101 213.071 140.513 213.465 140.809C213.86 141.105 214.337 141.271 214.83 141.283L214.897 141.351Z" fill="#030402"/>
<path d="M210.185 118.774C205.069 118.304 198.518 107.372 197.269 100.428C197.188 99.945 199.229 95.9026 201.471 90.8798C202.814 87.8312 204.264 84.3931 205.338 81.1699L223.92 92.8674C221.412 96.5162 219.361 100.458 217.811 104.605C217.672 105.043 217.573 105.493 217.515 105.948C217.52 106.024 217.52 106.1 217.515 106.177C217.045 108.863 215.139 119.23 210.185 118.774Z" fill="#FFBE9D"/>
<path d="M217.516 105.976C217.52 106.052 217.52 106.128 217.516 106.204C216.8 106.064 216.095 105.871 215.408 105.626C203.781 101.436 205.835 86.1799 206.654 81.9629L211.286 84.8906L223.973 92.9486C221.467 96.5959 219.42 100.538 217.878 104.686C217.718 105.104 217.597 105.536 217.516 105.976Z" fill="#58595B"/>
<path d="M207.285 59.6422C203.445 66.5586 202.774 88.7718 207.03 94.6675C213.179 103.209 225.531 106.54 233.358 98.6965C240.944 91.0146 241.293 62.0461 236.352 56.4593C229.048 48.1596 212.951 49.422 207.285 59.6422Z" fill="#FFBE9D"/>
<path d="M225.115 77.5977C225.115 77.5977 224.994 77.5977 224.994 77.732C224.994 79.263 224.725 81.0089 223.329 81.4655V81.5595C225.034 81.3715 225.356 79.0481 225.115 77.5977Z" fill="#58595B"/>
<path d="M223.812 75.9598C221.355 75.6912 220.993 80.6066 223.262 80.8618C225.531 81.1169 225.866 76.1881 223.812 75.9598Z" fill="#58595B"/>
<path d="M233.922 78.1221C233.922 78.1221 234.03 78.2027 234.03 78.2698C233.855 79.7874 233.922 81.5601 235.251 82.1645C235.251 82.1645 235.251 82.2719 235.251 82.2585C233.573 81.8825 233.519 79.5322 233.922 78.1221Z" fill="#58595B"/>
<path d="M235.412 76.6446C237.869 76.6446 237.668 81.5734 235.412 81.5734C233.156 81.5734 233.344 76.6311 235.412 76.6446Z" fill="#58595B"/>
<path d="M225.799 74.9658C225.114 75.1135 224.456 75.1269 223.785 75.2075C223.09 75.3895 222.354 75.3376 221.691 75.0598C221.498 74.9325 221.352 74.7449 221.277 74.5263C221.202 74.3077 221.201 74.0703 221.274 73.8511C221.495 73.4505 221.817 73.1153 222.208 72.8795C222.599 72.6436 223.046 72.5155 223.503 72.5081C224.431 72.3297 225.391 72.5123 226.188 73.0184C226.354 73.1432 226.481 73.3123 226.555 73.5062C226.629 73.7002 226.647 73.9111 226.606 74.1147C226.566 74.3182 226.468 74.5061 226.325 74.6567C226.183 74.8073 226 74.9145 225.799 74.9658Z" fill="#58595B"/>
<path d="M237.614 72.0648C236.962 71.8818 236.321 71.6621 235.694 71.4067C234.987 71.2735 234.345 70.9098 233.868 70.3726C233.748 70.1757 233.698 69.9447 233.725 69.716C233.752 69.4873 233.854 69.2741 234.015 69.1102C234.382 68.8298 234.818 68.6542 235.277 68.6022C235.736 68.5502 236.2 68.6236 236.62 68.8147C237.527 69.063 238.311 69.6367 238.822 70.4263C238.928 70.6137 238.978 70.8278 238.965 71.0428C238.952 71.2578 238.877 71.4644 238.749 71.6377C238.621 71.811 238.446 71.9436 238.245 72.0194C238.043 72.0952 237.824 72.1109 237.614 72.0648Z" fill="#58595B"/>
<path d="M224 89.7123C225.977 89.2388 228.038 89.2388 230.015 89.7123C230.19 89.7123 230.364 89.3631 230.405 89.2019L230.512 85.9787C230.928 86.2205 233.023 87.3217 233.023 86.7308C233.241 81.4922 232.922 76.2449 232.069 71.0715C232.06 71.0414 232.041 71.0151 232.016 70.9965C231.991 70.9778 231.96 70.9678 231.928 70.9678C231.897 70.9678 231.866 70.9778 231.841 70.9965C231.816 71.0151 231.797 71.0414 231.787 71.0715C231.573 75.9197 232.19 80.7545 232.043 85.6295C231.302 85.2188 230.506 84.9159 229.68 84.7297C229.505 84.7297 229.68 88.1544 229.68 88.6647C227.832 88.028 225.808 88.1388 224.041 88.9736C223.342 89.4168 223.061 90.0077 224 89.7123Z" fill="#58595B"/>
<path d="M220.026 92.9083C220.361 93.2844 220.697 93.7947 221.234 93.8753C221.798 93.9023 222.362 93.806 222.885 93.5933C222.885 93.5933 222.979 93.5933 222.885 93.6738C222.654 93.9589 222.349 94.1749 222.003 94.298C221.657 94.4212 221.285 94.4469 220.925 94.3722C220.632 94.2783 220.372 94.1016 220.176 93.8634C219.981 93.6251 219.859 93.3354 219.824 93.0292C219.851 92.8815 219.972 92.8546 220.026 92.9083Z" fill="#58595B"/>
<path opacity="0.2" d="M213.77 52.5918C213.568 56.0433 212.749 66.747 211.084 68.9226C209.419 71.0983 205.902 76.1614 204.116 76.9806C204.358 69.8493 205.459 63.0672 207.298 59.5217C208.806 56.681 211.039 54.2901 213.77 52.5918Z" fill="#58595B"/>
<path d="M232.902 63.0537C231.963 64.0095 230.795 64.7089 229.51 65.085C228.224 65.4612 226.863 65.5016 225.558 65.2025C224.221 64.9051 222.984 64.268 221.966 63.3529C220.948 62.4378 220.182 61.2755 219.744 59.9782C219.744 59.8976 219.597 59.9782 219.623 59.9782C219.965 61.3788 220.683 62.659 221.701 63.6796C222.719 64.7001 223.997 65.4219 225.397 65.7665C226.794 66.0332 228.236 65.9252 229.578 65.4535C230.92 64.9817 232.113 64.163 233.036 63.0805C233.117 63.0939 233.009 62.9731 232.902 63.0537Z" fill="#58595B"/>
<path d="M226.162 43.1502C224.099 43.0106 222.033 43.3925 220.156 44.2609C218.279 45.1293 216.651 46.4561 215.421 48.1193C214.373 49.8119 213.928 51.8092 214.159 53.7867H214.334C214.359 52.0515 214.853 50.3555 215.763 48.878C216.673 47.4004 217.965 46.1963 219.503 45.393C221.183 44.4517 223.059 43.9123 224.983 43.8167C226.907 43.7212 228.827 44.0722 230.592 44.8424C232.329 45.5586 233.756 46.8671 234.62 48.5356C234.701 48.7102 235.05 48.6296 234.983 48.455C233.882 45.5273 230.324 43.3516 226.162 43.1502Z" fill="#58595B"/>
<path d="M251.805 54.8614C251.221 52.5877 249.851 50.5943 247.939 49.2343C245.253 47.3138 242.112 47.3406 238.97 47.4481C238.876 47.4481 238.889 47.5824 238.97 47.5689C241.641 47.29 244.336 47.789 246.73 49.0059C248.679 50.1758 250.164 51.9835 250.933 54.1228C251.664 56.317 251.58 58.7016 250.694 60.8384C249.809 62.9751 248.182 64.7203 246.113 65.7531C244.908 66.3193 243.601 66.6328 242.271 66.6744C240.941 66.716 239.617 66.4847 238.379 65.9948C238.285 65.9948 238.205 66.0888 238.299 66.1426C239.973 66.8823 241.82 67.139 243.633 66.8837C245.445 66.6285 247.15 65.8714 248.555 64.698C249.959 63.5247 251.008 61.9818 251.583 60.2436C252.157 58.5054 252.234 56.6411 251.805 54.8614Z" fill="#58595B"/>
<path d="M205.942 64.0065C205.942 64.0065 202.236 55.5591 206.197 51.1272C208.439 48.6292 215.179 49.4887 215.179 49.4887C217.192 46.9323 220.138 45.2802 223.369 44.8957C229.129 43.9959 235.694 47.8906 235.694 47.8906C235.694 47.8906 241.306 45.2046 246.126 48.4681C252.839 53.0208 251.161 63.6708 243.83 66.5717C238.675 68.6264 232.257 63.7111 232.257 63.7111C231.613 63.7111 224.658 67.2566 220.08 60.9445C220.08 60.9445 215.73 64.2617 212.252 61.4414C211.591 62.4653 210.631 63.2608 209.502 63.7197C208.373 64.1787 207.13 64.2788 205.942 64.0065Z" fill="#58595B"/>
<path d="M208.131 78.0411C208.131 78.0411 204.613 70.1577 201.136 71.3261C197.658 72.4946 199.35 83.2117 202.787 85.3067C203.206 85.5981 203.679 85.8024 204.179 85.9076C204.678 86.0127 205.193 86.0166 205.694 85.9189C206.195 85.8212 206.671 85.624 207.094 85.3389C207.517 85.0538 207.879 84.6867 208.158 84.2592L208.131 78.0411Z" fill="#FFBE9D"/>
<path d="M201.699 74.3613V74.4553C204.089 75.9998 204.989 78.6724 205.459 81.3449C205.357 81.0569 205.195 80.7943 204.983 80.5752C204.77 80.3562 204.513 80.1858 204.228 80.076C203.943 79.9662 203.638 79.9195 203.334 79.9392C203.029 79.9588 202.733 80.0444 202.465 80.1899C202.384 80.1899 202.465 80.3377 202.465 80.3377C202.954 80.2811 203.448 80.3805 203.877 80.6217C204.306 80.8629 204.648 81.2335 204.854 81.6807C205.219 82.4071 205.498 83.1732 205.687 83.9638C205.687 84.2189 206.197 84.1786 206.17 83.9638C206.855 80.4988 205.177 75.382 201.699 74.3613Z" fill="#58595B"/>
<path d="M394.226 93.7017L249.678 137.99L275.74 223.101L420.288 178.812L394.226 93.7017Z" fill="#8ACCA1"/>
<path opacity="0.2" d="M394.226 93.7017L249.678 137.99L275.74 223.101L420.288 178.812L394.226 93.7017Z" fill="black"/>
<path opacity="0.2" d="M394.219 93.6888L345.643 108.572L371.705 193.683L420.281 178.799L394.219 93.6888Z" fill="black"/>
<path d="M391.892 98.0254C390.255 105.564 388.661 113.103 387.113 120.641L382.535 143.311L378.104 166.075C376.654 173.649 375.24 181.237 373.861 188.839C375.499 181.309 377.093 173.77 378.641 166.223L383.219 143.553L387.65 120.843C389.1 113.233 390.514 105.627 391.892 98.0254Z" fill="#8ACCA1"/>
<path d="M415.751 175.946C410.381 170.431 404.961 164.938 399.492 159.467L383.112 143.136L366.625 126.927C361.112 121.555 355.571 116.183 350.004 110.811C355.374 116.335 360.794 121.828 366.263 127.289L382.643 143.62L399.13 159.83C404.652 165.256 410.193 170.628 415.751 175.946Z" fill="#8ACCA1"/>
<path d="M277.44 148.944L278.236 148.7L274.811 137.516L274.016 137.759L277.44 148.944Z" fill="#58595B"/>
<path d="M275.55 149.512L276.346 149.269L272.921 138.084L272.125 138.328L275.55 149.512Z" fill="#58595B"/>
<path d="M273.642 150.122L274.438 149.878L271.013 138.693L270.217 138.937L273.642 150.122Z" fill="#58595B"/>
<path d="M271.739 150.67L272.535 150.426L269.112 139.241L268.316 139.484L271.739 150.67Z" fill="#58595B"/>
<path d="M269.848 151.261L270.644 151.018L267.219 139.833L266.423 140.077L269.848 151.261Z" fill="#58595B"/>
<path d="M267.952 151.83L268.748 151.586L265.323 140.401L264.527 140.645L267.952 151.83Z" fill="#58595B"/>
<path d="M266.036 152.456L266.832 152.212L263.407 141.027L262.611 141.271L266.036 152.456Z" fill="#58595B"/>
<path d="M264.139 153.02L264.935 152.776L261.508 141.592L260.712 141.836L264.139 153.02Z" fill="#58595B"/>
<path d="M262.225 153.623L263.021 153.379L259.596 142.194L258.8 142.438L262.225 153.623Z" fill="#58595B"/>
<path d="M282.859 135.978L279.557 136.059L286.713 133.843L283.92 135.642L285.182 139.752C287.451 139.362 288.982 141.256 290.136 145.017L282.98 147.273C281.826 143.526 282.027 141.095 284.122 140.141L282.859 135.978Z" fill="#58595B"/>
<path d="M290.056 138.839L291.922 138.262L290.244 132.796L295.023 131.318L296.702 136.798L298.581 136.22L296.057 143.231L290.056 138.839Z" fill="#58595B"/>
<path opacity="0.1" d="M249.671 137.979L251.819 144.963L351.736 128.484L345.64 108.581L249.671 137.979Z" fill="black"/>
<path d="M439.018 188.449L390.429 203.329L371.7 193.687L420.289 178.793L439.018 188.449Z" fill="#8ACCA1"/>
<path opacity="0.2" d="M439.018 188.449L390.429 203.329L371.7 193.687L420.289 178.793L439.018 188.449Z" fill="black"/>
<path d="M265.621 241.578L314.21 226.684L324.32 208.204L275.731 223.084L265.621 241.578Z" fill="#8ACCA1"/>
<path opacity="0.1" d="M265.621 241.578L314.21 226.684L324.32 208.204L275.731 223.084L265.621 241.578Z" fill="black"/>
<path d="M185.656 124.845C192.758 148.603 212.508 189.309 219.838 194.278C226.296 198.723 257.297 194.681 270.857 191.74C275.932 190.652 265.487 151.893 260.117 153.169C253.618 154.713 234.271 158.541 232.902 157.48C231.533 156.419 212.763 131.963 199.337 117.62C187.146 104.566 182.971 115.86 185.656 124.845Z" fill="#FFBE9D"/>
<path d="M257.323 156.325C257.323 156.325 267.594 144.748 274.871 140.33C282.552 135.932 291.187 133.466 300.031 133.145C309.577 132.769 332.925 138.436 332.455 145.446C332.039 151.799 308.476 144.788 308.476 144.788C308.476 144.788 333.677 147.971 331.771 155.532C329.864 163.093 302.972 153.384 302.972 153.384C302.972 153.384 328.79 157.225 325.648 164.732C323.232 170.386 298.38 162.973 298.38 162.973C298.38 162.973 320.56 166.438 318.318 172.374C315.847 178.914 292.473 173.515 292.473 173.515C284.269 187.59 274.589 190.974 267.433 192.492C265.647 192.801 257.323 156.325 257.323 156.325Z" fill="#FFBE9D"/>
<path d="M299.83 143.123C302.798 143.392 305.818 143.647 308.759 144.171C311.699 144.694 314.612 145.339 317.499 146.145C321.28 147.117 324.938 148.518 328.401 150.322C322.024 147.568 311.524 145.5 308.584 144.95C305.644 144.399 302.73 143.741 299.804 143.217C299.723 143.244 299.75 143.123 299.83 143.123Z" fill="#58595B"/>
<path d="M297.722 153.719C301.495 154.216 305.281 154.579 309.04 155.25C312.8 155.922 316.277 156.889 319.969 157.815C320.251 157.882 320.117 158.017 319.835 157.95C316.102 157.171 312.612 156.741 308.879 156.016C305.147 155.29 301.441 154.404 297.695 153.8C297.642 153.8 297.655 153.706 297.722 153.719Z" fill="#58595B"/>
<path d="M294.272 162.475C300.094 163.107 305.835 164.341 311.404 166.155C311.686 166.236 311.498 166.383 311.202 166.316C305.536 164.973 301.092 163.899 294.259 162.677C294.151 162.663 294.151 162.462 294.272 162.475Z" fill="#58595B"/>
<path d="M267.782 198.616L258.76 152.256L233.613 156.204C224 144.654 204.801 121.555 196.96 114.571C187.763 106.365 181.466 112.221 184.621 124.375C191.844 152.161 213.756 193.203 219.69 197.232C228.202 203.007 267.782 198.616 267.782 198.616Z" fill="#8ACCA1"/>
<path opacity="0.1" d="M250.758 158.689C251.998 158.958 253.262 159.107 254.531 159.132C257.216 159.494 258.397 163.456 255.954 164.96C254.671 165.751 253.22 166.23 251.718 166.358C250.217 166.486 248.706 166.261 247.307 165.699C244.622 164.652 242.353 162.046 242.931 158.984C243.031 158.413 243.276 157.878 243.645 157.43C244.013 156.983 244.49 156.638 245.031 156.43C245.571 156.222 246.157 156.157 246.73 156.242C247.303 156.327 247.844 156.559 248.301 156.916C249.045 157.604 249.87 158.2 250.758 158.689ZM248.073 153.934C248.915 154.341 249.843 154.538 250.778 154.51C251.712 154.482 252.627 154.229 253.443 153.773C253.744 153.572 253.985 153.294 254.141 152.967L248.073 153.934ZM235.009 155.976C236.078 156.757 237.398 157.116 238.715 156.983C239.169 156.921 239.587 156.701 239.896 156.363C240.205 156.024 240.386 155.588 240.406 155.13L235.009 155.976ZM263.472 176.671C262.941 176.894 262.511 177.305 262.264 177.826C261.136 180.096 262.707 182.54 264.949 184.004L263.472 176.671ZM223.033 185.589C222.604 187.08 222.55 188.409 221.435 189.618C220.236 190.585 219.162 191.7 218.24 192.935C218.084 193.239 218.01 193.579 218.025 193.92C218.039 194.262 218.142 194.593 218.324 194.883C218.505 195.173 218.759 195.41 219.059 195.573C219.36 195.735 219.698 195.816 220.039 195.809C222.378 195.521 224.524 194.365 226.051 192.569C227.578 190.773 228.374 188.468 228.283 186.113C228.207 185.509 227.929 184.949 227.494 184.524C227.059 184.099 226.492 183.834 225.887 183.773C225.282 183.713 224.674 183.859 224.163 184.189C223.652 184.519 223.268 185.012 223.073 185.589H223.033ZM218.401 172.575C217.649 174.402 217.784 176.47 217.153 178.377C216.599 180.125 215.94 181.838 215.179 183.507C214.615 184.716 215.743 186.623 217.206 185.978C219.586 185.064 221.533 183.285 222.657 180.996C223.678 178.887 224.805 175.342 223.825 173.099C222.845 170.856 219.583 169.929 218.441 172.575H218.401ZM198.477 125.073C199.227 125.232 200.01 125.094 200.66 124.689C201.311 124.283 201.78 123.641 201.968 122.898C202.72 120.01 200.142 117.042 198.101 115.243C196.06 113.443 193.187 111.805 190.327 112.731C189.947 112.855 189.604 113.073 189.331 113.367C189.059 113.66 188.865 114.018 188.77 114.406C188.675 114.795 188.68 115.202 188.786 115.588C188.891 115.974 189.094 116.327 189.374 116.613C190.623 118.17 192.355 119.299 193.684 120.83C195.013 122.361 196.181 124.684 198.517 125.073H198.477ZM208.842 136.529C209.97 134.904 209.097 132.5 208.291 130.956C207.862 130.104 207.195 129.395 206.371 128.914C205.817 128.559 205.145 128.438 204.501 128.576C203.857 128.715 203.294 129.102 202.934 129.653C202.568 130.417 202.51 131.292 202.773 132.097C202.885 132.519 203.038 132.928 203.23 133.319V133.44V133.548C203.47 134.83 204.013 136.037 204.814 137.066C205.091 137.346 205.429 137.557 205.802 137.684C206.174 137.811 206.571 137.85 206.961 137.798C207.351 137.746 207.724 137.604 208.05 137.384C208.376 137.164 208.647 136.871 208.842 136.529ZM205.633 149.959C206.124 150.066 206.632 150.066 207.123 149.959C207.868 149.73 208.497 149.226 208.882 148.549C209.243 147.829 209.423 147.031 209.406 146.226C209.381 145.462 209.174 144.716 208.802 144.05L208.359 143.499L207.768 143.07C207.398 142.879 206.991 142.774 206.575 142.763C206.159 142.751 205.746 142.834 205.367 143.004C204.988 143.175 204.652 143.429 204.384 143.747C204.116 144.065 203.924 144.439 203.821 144.842C203.597 145.625 203.44 146.424 203.351 147.233L203.471 147.972C203.565 148.342 203.75 148.684 204.008 148.965C204.422 149.414 204.967 149.72 205.566 149.838L205.633 149.959ZM216.897 136.328L214.212 133.306C213.783 133.255 213.35 133.363 212.996 133.611C212.642 133.859 212.392 134.228 212.292 134.649C212.185 135.433 212.185 136.228 212.292 137.013C212.292 137.348 212.292 137.684 212.292 138.033C212.285 138.539 212.34 139.044 212.453 139.537C212.6 140.049 212.914 140.496 213.345 140.807C213.776 141.119 214.299 141.277 214.83 141.257C215.355 141.229 215.857 141.035 216.263 140.701C216.669 140.368 216.957 139.913 217.085 139.403C217.287 138.379 217.222 137.32 216.897 136.328Z" fill="#030402"/>
<path d="M259.109 194.358C258.021 191.605 255.47 179.652 254.866 176.657C254.262 173.662 252.261 161.629 251.657 158.554C251.657 158.393 251.845 158.285 251.885 158.46C252.53 161.481 255.497 173.394 256.128 176.375C256.759 179.357 259.162 191.309 259.27 194.318C259.275 194.339 259.272 194.362 259.26 194.381C259.249 194.399 259.231 194.413 259.209 194.418C259.188 194.424 259.165 194.42 259.147 194.409C259.128 194.398 259.114 194.379 259.109 194.358Z" fill="#58595B"/>
<path d="M250.812 199.918C246.69 200.16 242.569 200.254 238.447 200.227C234.31 200.245 230.176 200.007 226.068 199.515C223.963 199.307 221.905 198.763 219.973 197.904C218.235 196.676 216.726 195.153 215.515 193.405C213.081 190.044 210.879 186.522 208.923 182.862C204.895 175.623 201.431 168.089 198.048 160.595C194.665 153.101 191.59 145.392 188.771 137.63C192.194 145.137 195.578 152.658 199.095 160.112C202.613 167.565 206.171 174.992 210.01 182.258C211.927 185.882 214.043 189.397 216.348 192.787C217.424 194.475 218.787 195.961 220.375 197.178C222.206 198.023 224.159 198.571 226.162 198.803C234.339 199.794 242.579 200.167 250.812 199.918Z" fill="#58595B"/>
<path d="M191.388 144.184C190.837 143.627 190.338 143.02 189.898 142.371C189.442 141.728 189.093 141.017 188.864 140.263C189.067 140.596 189.286 140.919 189.522 141.23L190.18 142.183C190.622 142.826 191.025 143.494 191.388 144.184Z" fill="#58595B"/>
<path d="M212.588 131.734C215.985 135.146 219.032 138.893 222.188 142.478C225.343 146.064 228.363 149.851 231.586 153.424L232.781 154.767C232.995 154.968 233.197 155.197 233.398 155.385C233.6 155.573 233.6 155.559 233.694 155.64C233.788 155.72 233.694 155.64 233.694 155.64C233.694 155.64 233.788 155.64 233.841 155.64C234.862 155.64 236.151 155.411 237.305 155.264L244.448 154.203C249.201 153.504 253.967 152.779 258.733 152.134L258.908 153.316L258.626 152.148H258.693C253.98 153.155 249.295 154.055 244.515 154.928C242.139 155.358 239.762 155.734 237.372 156.096C236.151 156.308 234.918 156.452 233.68 156.526C233.582 156.539 233.483 156.539 233.385 156.526C233.253 156.487 233.13 156.423 233.022 156.338C232.887 156.233 232.757 156.121 232.633 156.002L231.975 155.358C231.545 154.915 231.143 154.471 230.74 154.015C227.585 150.348 224.524 146.642 221.516 142.881L217.018 137.227C215.555 135.468 214.212 133.534 212.588 131.734Z" fill="#58595B"/>
<path d="M214.347 132.137C214.852 132.758 215.302 133.423 215.689 134.124C216.068 134.817 216.335 135.565 216.481 136.34C216.32 135.978 216.119 135.655 215.931 135.306L215.38 134.272C214.998 133.579 214.653 132.867 214.347 132.137Z" fill="#58595B"/>
<path d="M53.3148 483.317C52.8179 470.751 52.9927 458.167 53.8384 445.619C55.69 419.758 59.6368 394.09 65.6399 368.867C68.9293 354.658 72.984 340.664 77.2132 326.724C77.334 326.308 78.0053 326.429 77.8979 326.858C64.8344 376.066 54.107 426.858 54.8454 477.999C55.0602 492.315 56.7116 506.377 58.0676 520.599C58.0676 520.988 57.4769 521.136 57.3963 520.747C54.6977 508.539 53.825 495.754 53.3148 483.317Z" fill="#8ACCA1"/>
<path d="M77.8976 326.791C77.8976 326.791 97.6875 377.046 93.257 388.851C88.8264 400.656 79.6832 403.181 79.6832 403.181C79.6832 403.181 91.7667 420.478 83.3351 436.756C74.9036 453.033 56.0803 452.2 54.8182 470.599C54.8182 470.545 53.771 393.645 77.8976 326.791Z" fill="#8ACCA1"/>
<path d="M56.9799 438.797C56.9468 438.71 56.9468 438.615 56.9799 438.528C59.5899 404.22 66.0343 370.313 76.1925 337.441C76.1925 337.347 76.3805 337.374 76.3536 337.441C72.4332 352.133 68.9693 366.906 65.9619 381.76C68.6065 379.248 71.8374 377.438 75.3601 376.495C75.3601 376.495 75.4541 376.495 75.3601 376.589C71.6418 377.965 68.3018 380.202 65.6128 383.116C65.04 386.017 64.4805 388.931 63.9346 391.859C68.3517 386.917 74.4874 384.459 80.6231 382.122C80.7037 382.122 80.7574 382.23 80.6231 382.257C74.2323 384.862 67.8549 388.219 63.5318 393.726C62.0101 402.061 60.6675 410.428 59.504 418.826C62.7037 415.491 66.8039 413.158 71.3054 412.111C71.4397 412.111 71.5203 412.286 71.3054 412.326C66.6594 413.669 62.5035 416.333 59.3428 419.995H59.2623C58.8685 422.949 58.497 425.908 58.1479 428.872C60.6982 426.766 63.5789 425.096 66.6735 423.93C66.754 423.93 66.7943 424.024 66.6735 424.051C63.6428 425.395 60.8675 427.253 58.4702 429.543C58.4702 429.543 58.4702 429.543 58.3627 429.543C58.0405 432.35 57.7049 435.171 57.4229 437.991C61.8817 432.604 67.6655 428.471 74.2055 425.998C74.2187 425.993 74.2328 425.99 74.2471 425.99C74.2613 425.99 74.2754 425.993 74.2885 425.999C74.3016 426.005 74.3134 426.013 74.3234 426.023C74.3333 426.033 74.3411 426.045 74.3464 426.058C74.3517 426.072 74.3544 426.086 74.3542 426.1C74.354 426.114 74.351 426.128 74.3454 426.141C74.3398 426.154 74.3317 426.166 74.3215 426.176C74.3113 426.186 74.2992 426.194 74.286 426.199C67.8262 429.046 62.151 433.414 57.7451 438.931C57.6998 438.996 57.6347 439.044 57.5596 439.068C57.4844 439.092 57.4035 439.091 57.3289 439.065C56.8993 443.39 56.5099 447.728 56.2012 452.065H56.0938C56.3086 447.674 56.6174 443.229 56.9799 438.797Z" fill="#58595B"/>
<path d="M72.8765 371.553C76.4594 369.32 80.5551 368.044 84.7719 367.847C84.8659 367.847 84.8794 367.981 84.7719 367.994C80.6989 368.748 76.7439 370.04 73.0107 371.835C72.9756 371.842 72.9392 371.837 72.9071 371.821C72.8751 371.805 72.8494 371.779 72.834 371.747C72.8186 371.714 72.8144 371.678 72.8221 371.643C72.8298 371.608 72.8489 371.576 72.8765 371.553Z" fill="#58595B"/>
<path d="M70.4737 424.75C73.2294 423.176 76.2595 422.141 79.402 421.701C79.5094 421.701 79.5229 421.849 79.402 421.862C76.3234 422.482 73.3457 423.526 70.5543 424.965C70.4603 425.018 70.3529 424.817 70.4737 424.75Z" fill="#58595B"/>
<path d="M1.28923 389.67C9.6571 395.461 17.3412 402.183 24.194 409.708C31.2799 417.66 36.7519 426.915 40.3053 436.957C47.8148 457.885 51.8556 479.901 52.2679 502.133C52.5251 514.445 51.3401 526.746 48.7368 538.783C48.714 538.867 48.6606 538.939 48.587 538.986C48.5135 539.033 48.4251 539.05 48.3393 539.035C48.2535 539.02 48.1764 538.973 48.1233 538.904C48.0702 538.835 48.0448 538.749 48.0521 538.662C51.295 517.418 51.1862 495.798 47.7299 474.588C44.3197 453.798 38.9895 431.182 25.7783 414.287C18.5148 405.128 9.54624 397.862 0.73876 390.355C0.215145 389.979 0.80589 389.334 1.28923 389.67Z" fill="#8ACCA1"/>
<path d="M49.3138 487.172C44.554 479.461 38.9572 472.3 32.6253 465.818C22.7169 455.92 14.3793 448.883 13.0904 442.329C11.8015 435.775 23.0122 430.967 23.0122 430.967C23.0122 430.967 9.30424 433.425 5.55838 427.664C1.81251 421.902 0 388.609 0 388.609C0 388.609 24.9053 406.471 36.5457 431.357C48.186 456.243 49.3138 487.172 49.3138 487.172Z" fill="#8ACCA1"/>
<path d="M8.9017 419.901C10.5423 419.667 12.2036 419.613 13.8559 419.74C14.0573 419.74 14.0439 420.089 13.8559 420.089C12.2179 420.089 10.58 420.009 8.92855 420.089C8.79429 420.062 8.79429 419.901 8.9017 419.901Z" fill="#58595B"/>
<path d="M26.8386 452.133C29.4742 452.188 32.079 452.711 34.5317 453.677C34.5317 453.677 34.5317 453.798 34.5317 453.785C31.9942 453.18 29.4298 452.925 26.8655 452.509C26.6104 452.509 26.6238 452.133 26.8386 452.133Z" fill="#58595B"/>
<path d="M32.2223 441C33.3169 440.991 34.4097 441.09 35.4848 441.295C35.5922 441.295 35.5788 441.496 35.4848 441.496C34.3947 441.551 33.3018 441.497 32.2223 441.335C32.1858 441.325 32.1538 441.303 32.1309 441.273C32.1081 441.242 32.0957 441.205 32.0957 441.167C32.0957 441.13 32.1081 441.093 32.1309 441.062C32.1538 441.032 32.1858 441.01 32.2223 441Z" fill="#58595B"/>
<path d="M122.378 425.031C114.271 427.779 106.502 431.438 99.2183 435.936C91.6767 440.755 85.1351 446.984 79.952 454.281C69.0385 469.485 60.6804 486.369 55.2078 504.268C52.1625 514.173 50.2791 524.4 49.5957 534.74C49.5957 534.819 49.6268 534.894 49.6822 534.949C49.7376 535.005 49.8127 535.036 49.8911 535.036C49.9694 535.036 50.0445 535.005 50.0999 534.949C50.1553 534.894 50.1865 534.819 50.1865 534.74C52.4552 516.823 57.5155 499.372 65.1833 483.022C72.7422 466.986 82.2881 449.917 96.8822 439.307C104.83 433.519 113.759 429.745 122.66 425.743C123.184 425.528 122.915 424.87 122.378 425.031Z" fill="#8ACCA1"/>
<path d="M60.9941 492.826C66.6244 487.683 72.8068 483.179 79.4281 479.396C89.7393 473.675 98.1037 469.901 100.668 464.905C103.232 459.909 95.2977 453.409 95.2977 453.409C95.2977 453.409 105.81 458.566 110.174 454.752C114.537 450.938 123.694 424.414 123.694 424.414C123.694 424.414 99.4195 433.063 84.248 450.576C69.0766 468.088 60.9941 492.826 60.9941 492.826Z" fill="#8ACCA1"/>
<path d="M81.1472 468.437C83.5301 468.27 85.9228 468.562 88.1959 469.297C88.1959 469.297 88.1959 469.418 88.1959 469.404C85.8729 469.014 83.5276 468.772 81.1741 468.679C81.142 468.682 81.1099 468.673 81.0847 468.653C81.0595 468.633 81.0434 468.603 81.0398 468.571C81.0362 468.539 81.0456 468.507 81.0657 468.482C81.0859 468.457 81.1152 468.441 81.1472 468.437Z" fill="#58595B"/>
<path d="M102.334 440.637C103.42 440.559 104.512 440.622 105.583 440.825C105.603 440.833 105.621 440.847 105.634 440.865C105.646 440.883 105.653 440.904 105.653 440.926C105.653 440.948 105.646 440.969 105.634 440.987C105.621 441.005 105.603 441.019 105.583 441.027C104.522 440.906 103.461 440.946 102.387 440.919C102.354 440.917 102.323 440.905 102.298 440.883C102.273 440.861 102.256 440.832 102.25 440.799C102.243 440.767 102.248 440.733 102.264 440.704C102.279 440.674 102.303 440.651 102.334 440.637Z" fill="#58595B"/>
<path d="M29.6582 568.235H84.4767L76.6628 510.956L74.6623 496.277H39.4726L37.4856 510.956L29.6582 568.235Z" fill="#B8BABC"/>
<path d="M37.4854 510.956H76.6625L74.6621 496.277H39.4724L37.4854 510.956Z" fill="#58595B"/>
<path d="M34.4381 503.61H79.6973V491.174H34.4381V503.61Z" fill="#B8BABC"/>
<path d="M321.621 30.1231C321.62 35.65 320.084 41.0681 317.185 45.7729C314.285 50.4777 310.136 54.2841 305.2 56.7675C300.264 59.2509 294.735 60.3136 289.23 59.8371C283.726 59.3605 278.461 57.3635 274.025 54.0688L259.404 57.8023L265.486 44.1977C263.346 40.1976 262.145 35.7618 261.976 31.2278C261.807 26.6938 262.673 22.1809 264.51 18.0322C266.347 13.8836 269.105 10.2085 272.575 7.28637C276.044 4.36425 280.135 2.27206 284.535 1.16891C288.934 0.065759 293.528 -0.019313 297.965 0.920163C302.403 1.85964 306.568 3.79893 310.143 6.59055C313.719 9.38218 316.611 12.9526 318.6 17.0304C320.589 21.1082 321.622 25.5859 321.621 30.1231Z" fill="white"/>
<path d="M321.621 30.1234C321.617 35.6527 320.093 41.0744 317.217 45.7962C316.517 46.9874 315.746 48.1355 314.908 49.2343C314.017 50.2863 313.062 51.282 312.048 52.2157C310.045 54.1046 307.785 55.7006 305.335 56.9565C302.877 58.2112 300.256 59.1153 297.548 59.6425C296.187 59.9066 294.81 60.0771 293.426 60.1528C292.045 60.267 290.658 60.267 289.277 60.1528C283.693 59.7194 278.338 57.7434 273.811 54.4451L274.213 54.5257L259.633 58.3666L258.451 58.6755L258.948 57.5474L264.976 43.916V44.48C262.783 40.4023 261.558 35.8744 261.395 31.247C261.232 26.6196 262.136 22.0167 264.036 17.7947C265.939 13.5845 268.772 9.86064 272.32 6.90302C275.865 3.98899 280.023 1.91575 284.483 0.838835C288.943 -0.238079 293.588 -0.290694 298.071 0.684941C302.514 1.69585 306.675 3.68726 310.249 6.51355C313.806 9.33262 316.677 12.922 318.647 17.0114C320.617 21.1009 321.633 25.584 321.621 30.1234ZM321.621 30.1234C321.621 23.2986 319.26 16.6839 314.938 11.4032C310.616 6.12247 304.599 2.50135 297.91 1.15499C293.511 0.279016 288.97 0.416799 284.632 1.55789C280.308 2.67498 276.298 4.77015 272.911 7.68196C269.555 10.6253 266.879 14.2639 265.07 18.3453C263.286 22.4152 262.45 26.8378 262.627 31.2784C262.834 35.6748 264.007 39.9714 266.064 43.8623L266.211 44.1443L266.077 44.4263L259.941 58.0174L259.257 57.2117L273.905 53.5856H274.133L274.307 53.7199C278.649 57.0183 283.824 59.0413 289.251 59.5619C290.591 59.6606 291.938 59.6606 293.278 59.5619C297.381 59.4209 301.406 58.3995 305.08 56.567C307.531 55.3736 309.792 53.826 311.793 51.974C312.806 51.0541 313.761 50.0718 314.653 49.0328C315.508 47.9643 316.301 46.8478 317.029 45.6887C319.958 41.0199 321.547 35.635 321.621 30.1234Z" fill="#58595B"/>
<path d="M293.869 33.347V36.6374C293.878 36.9662 293.82 37.2934 293.699 37.599C293.577 37.9046 293.394 38.1822 293.162 38.4148C292.929 38.6474 292.652 38.8301 292.346 38.9517C292.041 39.0733 291.714 39.1312 291.385 39.1219C291.059 39.1219 290.737 39.0576 290.437 38.9325C290.136 38.8075 289.863 38.6243 289.633 38.3934C289.404 38.1625 289.222 37.8885 289.099 37.5871C288.975 37.2858 288.913 36.963 288.915 36.6374V31.3863C288.915 31.3863 288.915 31.3863 288.915 31.2788C288.915 31.1714 288.915 31.2788 288.915 31.1848C288.931 30.5335 289.197 29.9132 289.656 29.4513C290.115 28.9893 290.734 28.7206 291.385 28.7003C292.151 28.7376 292.917 28.6189 293.636 28.3513C294.355 28.0836 295.013 27.6727 295.568 27.1434C296.124 26.6141 296.566 25.9774 296.868 25.2719C297.171 24.5665 297.326 23.807 297.326 23.0395C297.326 22.272 297.171 21.5126 296.868 20.8071C296.566 20.1017 296.124 19.465 295.568 18.9357C295.013 18.4064 294.355 17.9954 293.636 17.7278C292.917 17.4602 292.151 17.3415 291.385 17.3788C290.404 17.3757 289.44 17.631 288.589 18.119C287.738 18.607 287.031 19.3105 286.538 20.1588C286.373 20.4449 286.153 20.6956 285.89 20.8964C285.628 21.0972 285.328 21.2442 285.009 21.3291C284.69 21.4139 284.357 21.4349 284.03 21.3908C283.702 21.3467 283.387 21.2384 283.101 21.072C282.821 20.9061 282.576 20.6863 282.381 20.4254C282.186 20.1645 282.045 19.8677 281.965 19.5519C281.885 19.2361 281.869 18.9077 281.916 18.5854C281.964 18.2632 282.074 17.9535 282.242 17.6743C283.125 16.153 284.372 14.8749 285.871 13.9547C287.37 13.0346 289.074 12.5012 290.83 12.4025C292.586 12.3038 294.338 12.6428 295.931 13.3891C297.524 14.1354 298.906 15.2656 299.954 16.6783C301.002 18.0911 301.683 19.742 301.936 21.4829C302.188 23.2239 302.005 25.0003 301.401 26.6528C300.798 28.3052 299.794 29.782 298.479 30.9504C297.165 32.1188 295.58 32.9423 293.869 33.347ZM293.869 44.4267V45.34C293.876 45.6677 293.817 45.9934 293.695 46.2975C293.572 46.6015 293.389 46.8775 293.157 47.1086C292.925 47.3398 292.648 47.5212 292.343 47.642C292.038 47.7628 291.713 47.8203 291.385 47.8111C290.73 47.8111 290.101 47.5507 289.638 47.0873C289.175 46.6239 288.915 45.9954 288.915 45.34V44.4267C288.922 43.7723 289.184 43.1463 289.645 42.6823C290.106 42.2182 290.731 41.9527 291.385 41.9422C291.712 41.9386 292.037 42.0004 292.34 42.124C292.643 42.2476 292.918 42.4305 293.149 42.6619C293.381 42.8933 293.564 43.1686 293.687 43.4717C293.811 43.7748 293.872 44.0995 293.869 44.4267Z" fill="#8ACCA1"/>
</g>
<defs>
<clipPath id="clip0_1366_8305">
<rect width="560" height="568.907" fill="white"/>
</clipPath>
</defs>
</svg>
