<svg width="160" height="160" viewBox="0 0 160 160" fill="none" xmlns="http://www.w3.org/2000/svg">
<path d="M47.5 70H27.5C26.1193 70 25 71.1193 25 72.5V82.5C25 83.8807 26.1193 85 27.5 85H47.5C48.8807 85 50 83.8807 50 82.5V72.5C50 71.1193 48.8807 70 47.5 70Z" fill="#B8DFC4"/>
<path d="M57.5 80H17.5C13.3579 80 10 83.3579 10 87.5V127.5C10 131.642 13.3579 135 17.5 135H57.5C61.6421 135 65 131.642 65 127.5V87.5C65 83.3579 61.6421 80 57.5 80Z" fill="#8ACCA1"/>
<path d="M72.5 150C71.837 150 71.2011 149.737 70.7322 149.268C70.2634 148.799 70 148.163 70 147.5V62.5C70 61.837 70.2634 61.2011 70.7322 60.7322C71.2011 60.2634 71.837 60 72.5 60C73.163 60 73.7989 60.2634 74.2678 60.7322C74.7366 61.2011 75 61.837 75 62.5V147.5C75 148.163 74.7366 148.799 74.2678 149.268C73.7989 149.737 73.163 150 72.5 150Z" fill="#B8DFC4"/>
<path d="M72.4997 55H7.49971C7.04726 55.0001 6.60331 55.1229 6.21518 55.3554C5.82706 55.5879 5.50931 55.9214 5.29582 56.3204C5.08232 56.7193 4.98109 57.1686 5.00291 57.6206C5.02473 58.0725 5.16878 58.51 5.41971 58.8865L15.4197 73.8865C15.648 74.229 15.9572 74.5098 16.3201 74.704C16.6829 74.8983 17.0881 75 17.4997 75H74.9997V57.5C74.9997 56.837 74.7363 56.2011 74.2675 55.7322C73.7986 55.2634 73.1628 55 72.4997 55Z" fill="#8ACCA1"/>
<path d="M129.761 76.428C129.557 76.0007 129.237 75.6397 128.837 75.387C128.437 75.1342 127.973 75 127.5 75H107.5C107.134 75 106.772 75.0807 106.44 75.2362C106.109 75.3918 105.815 75.6184 105.581 75.9L80.581 105.9C80.2056 106.349 79.9999 106.915 80 107.5V132.5C79.9997 133.016 80.1592 133.519 80.4564 133.94C80.7537 134.362 81.1741 134.681 81.66 134.854C81.9292 134.951 82.2136 135.001 82.5 135C82.8703 135.001 83.236 134.918 83.5705 134.76C83.905 134.601 84.1998 134.369 84.4335 134.082L129.434 79.082C129.734 78.716 129.924 78.2722 129.982 77.8024C130.04 77.3326 129.963 76.856 129.761 76.428Z" fill="#A8D7B6"/>
<path d="M152.5 150H7.5C6.83696 150 6.20107 149.737 5.73223 149.268C5.26339 148.799 5 148.163 5 147.5C5 146.837 5.26339 146.201 5.73223 145.732C6.20107 145.263 6.83696 145 7.5 145H152.5C153.163 145 153.799 145.263 154.268 145.732C154.737 146.201 155 146.837 155 147.5C155 148.163 154.737 148.799 154.268 149.268C153.799 149.737 153.163 150 152.5 150Z" fill="#8ACCA1"/>
<path d="M65 121.599V127.499C65.0013 128.485 64.8082 129.46 64.4318 130.371C64.0553 131.281 63.5029 132.109 62.8062 132.805C62.1095 133.502 61.2822 134.055 60.3717 134.431C59.4611 134.807 58.4853 135.001 57.5 134.999H17.5C16.5147 135.001 15.5389 134.807 14.6283 134.431C13.7178 134.055 12.8905 133.502 12.1938 132.805C11.4971 132.109 10.9447 131.281 10.5682 130.371C10.1918 129.46 9.99869 128.485 10 127.499V91.6992C24.9899 106.863 44.1229 117.265 65 121.599Z" fill="#82C198"/>
<path d="M44.9998 112.5C45.0051 113.386 44.8527 114.267 44.5498 115.1C44.1608 116.128 43.5521 117.059 42.7663 117.827C41.9804 118.596 41.0363 119.184 39.9999 119.55V122.5C39.9999 123.163 39.7365 123.799 39.2676 124.268C38.7988 124.737 38.1629 125 37.4999 125C36.8368 125 36.2009 124.737 35.7321 124.268C35.2632 123.799 34.9999 123.163 34.9999 122.5V120H32.4999C31.8368 120 31.2009 119.737 30.7321 119.268C30.2633 118.799 29.9999 118.163 29.9999 117.5C29.9999 116.837 30.2633 116.201 30.7321 115.732C31.2009 115.263 31.8368 115 32.4999 115H37.4999C38.0706 115.008 38.6265 114.818 39.0732 114.463C39.5198 114.107 39.8296 113.608 39.9499 113.05V113C39.9938 112.837 40.0106 112.668 39.9999 112.5C40.0031 112.171 39.9407 111.844 39.8162 111.539C39.6917 111.235 39.5077 110.958 39.2749 110.725C39.0421 110.492 38.7652 110.308 38.4604 110.184C38.1556 110.059 37.8291 109.997 37.4999 110C35.7316 110.003 34.0193 109.38 32.6662 108.242C31.3131 107.104 30.4066 105.523 30.1072 103.78C29.8077 102.038 30.1347 100.245 31.0302 98.7206C31.9257 97.1958 33.332 96.0373 34.9999 95.45V92.5C34.9999 91.837 35.2632 91.2011 35.7321 90.7322C36.2009 90.2634 36.8368 90 37.4999 90C38.1629 90 38.7988 90.2634 39.2676 90.7322C39.7365 91.2011 39.9999 91.837 39.9999 92.5V95H42.4999C43.1629 95 43.7988 95.2634 44.2676 95.7322C44.7365 96.2011 44.9998 96.837 44.9998 97.5C44.9998 98.163 44.7365 98.7989 44.2676 99.2678C43.7988 99.7366 43.1629 100 42.4999 100H37.4999C36.8368 100 36.2009 100.263 35.7321 100.732C35.2632 101.201 34.9999 101.837 34.9999 102.5C34.9999 103.163 35.2632 103.799 35.7321 104.268C36.2009 104.737 36.8368 105 37.4999 105C38.4851 104.999 39.461 105.192 40.3715 105.568C41.2821 105.945 42.1094 106.497 42.8061 107.194C43.5028 107.89 44.0552 108.718 44.4316 109.628C44.8081 110.539 45.0012 111.515 44.9998 112.5Z" fill="#C4EDD1"/>
<path d="M44.55 115.097C44.161 116.125 43.5523 117.056 42.7664 117.824C41.9806 118.593 41.0365 119.181 40 119.547V122.497C40 123.16 39.7366 123.796 39.2678 124.265C38.7989 124.733 38.163 124.997 37.5 124.997C36.837 124.997 36.2011 124.733 35.7322 124.265C35.2634 123.796 35 123.16 35 122.497V119.997H32.5C31.837 119.997 31.2011 119.733 30.7322 119.265C30.2634 118.796 30 118.16 30 117.497C30 116.834 30.2634 116.198 30.7322 115.729C31.2011 115.26 31.837 114.997 32.5 114.997H37.5C38.0708 115.005 38.6267 114.815 39.0733 114.459C39.5199 114.104 39.8297 113.605 39.95 113.047C41.45 113.747 43 114.447 44.55 115.097Z" fill="#B8DFC4"/>
<path d="M145 24.9492V62.4992C145.007 64.1808 144.441 65.8147 143.396 67.1322C142.351 68.4498 140.889 69.3727 139.25 69.7492C138.686 69.9334 138.093 70.018 137.5 69.9992H102.5C101.515 70.0005 100.539 69.8074 99.6283 69.431C98.7178 69.0546 97.8905 68.5022 97.1938 67.8055C96.4971 67.1087 95.9447 66.2814 95.5682 65.3709C95.1918 64.4604 94.9987 63.4845 95 62.4992V24.9492L95.3 24.7492L118.7 10.3492C119.098 10.1279 119.545 10.0117 120 10.0117C120.455 10.0117 120.902 10.1279 121.3 10.3492L145 24.9492Z" fill="#B8DFC4"/>
<path d="M139.25 69.75C138.686 69.9342 138.093 70.0188 137.5 70H102.5C101.515 70.0013 100.539 69.8082 99.6283 69.4318C98.7178 69.0553 97.8905 68.5029 97.1938 67.8062C96.4971 67.1095 95.9447 66.2822 95.5682 65.3717C95.1918 64.4611 94.9987 63.4853 95 62.5V24.95L95.3 24.75C99.1761 34.8478 105.074 44.0477 112.631 51.7856C120.188 59.5236 129.246 65.6366 139.25 69.75Z" fill="#A8D7B6"/>
<path d="M130 52.5001V70.0001H110V52.5001C109.991 51.5179 110.196 50.5454 110.6 49.6501C111.149 48.2708 112.101 47.0891 113.332 46.2595C114.563 45.4299 116.016 44.991 117.5 45.0001H122.5C123.486 44.9988 124.461 45.1919 125.372 45.5684C126.282 45.9448 127.11 46.4972 127.807 47.1939C128.503 47.8906 129.056 48.7179 129.432 49.6285C129.808 50.539 130.002 51.5149 130 52.5001Z" fill="#8ACCA1"/>
<path d="M130 65.0484V69.9985H110V52.4984C109.991 51.5162 110.196 50.5437 110.6 49.6484C116.256 55.728 122.796 60.9197 130 65.0484Z" fill="#82C198"/>
<path d="M154.65 33.7992C154.427 34.1687 154.111 34.4736 153.734 34.684C153.357 34.8944 152.932 35.0031 152.5 34.9992C152.042 35.0077 151.591 34.8864 151.2 34.6492L145 30.8492L120 15.4492L97.2499 29.4492L94.9999 30.8492L88.7999 34.6492C88.2298 34.99 87.548 35.0913 86.9034 34.9308C86.2589 34.7703 85.7042 34.3611 85.3605 33.7928C85.0169 33.2244 84.9122 32.5431 85.0695 31.8978C85.2268 31.2525 85.6332 30.6957 86.1999 30.3492L94.9999 24.9492L95.2999 24.7492L118.7 10.3492C119.097 10.1279 119.545 10.0117 120 10.0117C120.455 10.0117 120.902 10.1279 121.3 10.3492L145 24.9492L153.8 30.3492C154.366 30.6975 154.773 31.2546 154.932 31.9001C155.091 32.5456 154.989 33.2277 154.65 33.7992Z" fill="#8ACCA1"/>
<path d="M97.2499 29.45L94.9999 30.85L88.7999 34.65C88.2298 34.9908 87.548 35.0921 86.9034 34.9316C86.2589 34.7711 85.7042 34.3619 85.3605 33.7936C85.0169 33.2252 84.9122 32.5439 85.0695 31.8986C85.2268 31.2533 85.6332 30.6965 86.1999 30.35L94.9999 24.95L95.2999 24.75C95.8999 26.3 96.5499 27.85 97.2499 29.45Z" fill="#82C198"/>
</svg>
