<svg width="639" height="666" viewBox="0 0 639 666" fill="none" xmlns="http://www.w3.org/2000/svg">
<g clip-path="url(#clip0_1366_8076)">
<path d="M84.2691 481.788C75.7749 476.449 66.1674 473.137 56.1895 472.107C51.6262 471.636 46.5914 471.772 42.9103 474.558C42.4826 474.797 42.1288 475.149 41.8874 475.576C41.646 476.003 41.5263 476.488 41.5413 476.978C41.7502 477.673 42.2114 478.265 42.8342 478.637C54.2577 487.358 71.5527 488.469 84.2691 481.788Z" fill="#DEDEDE"/>
<path d="M83.5535 480.95C77.066 476.183 71.0137 470.851 65.4676 465.014C59.8758 459.132 55.9488 451.867 54.0898 443.964C53.603 441.575 53.4509 438.835 54.9872 436.933C69.4529 448.226 80.846 462.807 83.5992 480.98" fill="#DEDEDE"/>
<path d="M84.1319 481.665C83.0367 473.751 82.6108 465.623 84.4666 457.845C86.3223 450.068 90.551 442.625 97.1526 438.181C99.6472 444.025 98.5672 450.753 96.8179 456.856C94.0843 466.312 89.836 475.261 84.2384 483.355" fill="#DEDEDE"/>
<path d="M98.2935 507.084C89.6993 508.134 82.2003 512.67 75.7812 518.499C69.312 524.373 64.8126 532.102 62.8975 540.63C71.3396 540.097 78.4888 534.146 83.6909 527.464C88.8931 520.782 92.4829 513.461 98.187 507.221" fill="#DEDEDE"/>
<path d="M101.382 511.148C97.9911 502.543 96.8023 493.228 97.9233 484.047C99.0443 474.866 102.44 466.111 107.801 458.576C112.699 476.019 110.843 495.729 101.382 511.148Z" fill="#DEDEDE"/>
<path d="M120.106 533.46C112.247 532.965 104.416 534.794 97.5867 538.718C90.7577 542.642 85.2325 548.488 81.6984 555.53C81.2268 556.473 80.8009 557.691 81.4398 558.574C81.7748 558.894 82.1818 559.129 82.6266 559.259C83.0713 559.388 83.5407 559.409 83.9952 559.32C91.6007 558.833 98.2632 554.266 103.77 549.092C109.276 543.917 114.128 537.905 120.243 533.415" fill="#DEDEDE"/>
<path d="M119.513 532.259C115.481 519.27 115.233 505.4 118.798 492.275C120.197 487.115 122.57 481.696 127.316 479.292C127.506 479.164 127.72 479.077 127.946 479.038C128.171 478.999 128.402 479.007 128.624 479.063C129.014 479.262 129.309 479.607 129.446 480.022C131.049 483.619 131.744 487.555 131.469 491.483C131.183 495.396 130.583 499.28 129.674 503.096C128.153 510.204 127.377 517.83 123.483 523.948C122.562 525.417 121.734 526.942 121.004 528.514C120.273 530.036 120.273 530.615 119.589 531.848" fill="#DEDEDE"/>
<path d="M169.085 539.64C165.42 525.667 169.314 508.712 178.121 497.251C178.76 496.414 179.642 495.501 180.676 495.607C182.304 495.759 182.73 497.921 182.654 499.549C181.984 513.923 177.281 527.817 169.085 539.64Z" fill="#DEDEDE"/>
<path d="M173.558 542.699C190.533 547.113 210.064 542.821 224.119 532.41C215.655 528.156 205.98 526.968 196.739 529.046C187.613 531.147 179.247 535.241 173.558 542.745" fill="#DEDEDE"/>
<path d="M177.33 533.384C186.837 517.875 205.06 507.753 223.222 506.84C221.123 514.222 215.053 519.975 208.208 523.445C201.364 526.916 193.712 528.422 186.183 529.884C183.247 530.462 179.231 531.086 177.33 533.384Z" fill="#DEDEDE"/>
<path d="M170.029 488.225C172.6 479.398 175.186 470.494 175.9 461.331C176.615 452.168 175.307 442.595 170.546 434.726C161.663 451.925 160.765 472.016 169.77 489.139" fill="#DEDEDE"/>
<path d="M199.934 473.097C210.308 454.223 231.496 439.14 252.929 437.024C244.669 457.618 222.111 473.553 199.934 473.097Z" fill="#DEDEDE"/>
<path d="M193.393 476.81C208.877 479.169 222.081 489.062 236.546 495.074C239.583 496.538 242.949 497.183 246.312 496.946C247.881 496.942 249.41 496.452 250.69 495.544C251.97 494.636 252.938 493.354 253.461 491.873C253.985 490.393 254.037 488.787 253.612 487.275C253.187 485.764 252.306 484.421 251.088 483.431C249.039 481.532 246.628 480.067 244 479.123C228.226 472.548 211.326 472.381 194.762 476.384" fill="#DEDEDE"/>
<path d="M184.433 487.677C187.932 488.682 189.133 490.493 191.917 492.852C201.384 500.907 212.581 506.668 224.636 509.686C225.883 509.991 227.526 510.112 228.15 508.986C228.773 507.86 227.998 506.809 227.298 505.942C222.035 499.767 215.203 495.128 207.524 492.517C199.918 489.702 193.423 486.308 184.418 487.038" fill="#DEDEDE"/>
<path d="M174.318 422.032C180.668 427.889 188.172 432.353 196.347 435.137C204.523 437.92 213.19 438.962 221.792 438.196C222.587 438.209 223.36 437.934 223.967 437.42C225.154 436.111 223.724 434.102 222.324 433.021C208.376 422.124 191.461 417.618 174.318 422.032Z" fill="#DEDEDE"/>
<path d="M186.305 417.633C194.713 411.45 204.464 407.344 214.76 405.651C225.057 403.959 235.608 404.726 245.552 407.892C238.098 415.244 227.74 419.201 217.32 420.282C206.908 421.24 196.409 420.354 186.305 417.664" fill="#DEDEDE"/>
<path d="M181.544 387.466C180.175 373.524 181.057 362.52 180.099 348.517C180.023 347.391 179.779 346.051 178.73 345.641C177.209 345.093 176.052 346.873 175.581 348.365C173.55 354.857 173.03 361.729 174.061 368.453C175.092 375.177 177.646 381.577 181.528 387.162" fill="#DEDEDE"/>
<path d="M180.539 389.019C189.985 383.174 197.073 375.533 203.614 366.568C208.178 360.328 212.026 352.87 210.992 345.184C204.588 345.062 198.503 348.593 194.335 353.464C190.168 358.334 187.703 364.407 185.848 370.541C183.992 376.675 182.714 382.976 180.539 389.019Z" fill="#DEDEDE"/>
<path d="M203.219 382.703C223.996 375.02 243.231 363.68 260.017 349.218C253.232 346.493 245.46 348.122 238.721 350.861C223.236 357.132 210.565 367.695 202.96 382.581" fill="#DEDEDE"/>
<path d="M186.913 396.645C197.409 397.786 208.056 398.532 218.461 396.797C228.865 395.062 238.342 391.028 247.909 387.01C248.739 386.766 249.448 386.224 249.902 385.488C250.053 385.044 250.065 384.565 249.937 384.113C249.81 383.662 249.548 383.26 249.187 382.961C248.452 382.383 247.593 381.982 246.677 381.789C236.288 378.882 225.078 380.267 214.856 383.692C205.115 387.021 195.75 391.362 186.913 396.645Z" fill="#DEDEDE"/>
<path d="M127.043 422.504C119.893 408.06 120.35 391.196 126.541 376.295C130.891 382.931 131.423 391.378 130.617 399.278C129.811 407.177 127.423 415.29 127.271 423.22" fill="#DEDEDE"/>
<path d="M98.4603 408.075C89.5038 407.959 80.6217 409.715 72.3817 413.229C64.1418 416.744 56.7253 421.94 50.6064 428.485C59.5201 429.886 68.7076 427.587 76.815 423.615C84.9225 419.642 92.1325 414.102 99.2665 408.577" fill="#DEDEDE"/>
<path d="M79.2492 401.652C70.5181 400.936 62.1064 399.856 53.7099 402.443C45.3134 405.031 37.6623 410.936 34.2246 418.957C42.4752 419.615 50.7506 418.037 58.182 414.391C65.5668 410.758 72.6166 406.48 79.2492 401.606" fill="#DEDEDE"/>
<path d="M107.694 401.94C99.8452 396.796 91.7681 391.545 82.6111 389.414C73.454 387.283 62.8367 388.851 56.4785 395.761C63.8863 400.099 72.876 400.616 81.455 400.616C90.034 400.616 100.575 400.51 108.683 403.371" fill="#DEDEDE"/>
<path d="M107.739 402.367C94.308 389.155 89.2123 365.442 94.6122 347.391C105.226 363.639 109.866 383.073 107.739 402.367Z" fill="#DEDEDE"/>
<path d="M144.702 364.955C147.227 359.049 149.022 352.87 151.289 346.858C153.368 340.793 156.555 335.167 160.689 330.268C164.89 325.318 170.866 322.218 177.33 321.638C175.26 330.735 171.319 339.3 165.756 346.787C160.193 354.274 153.131 360.519 145.022 365.122" fill="#DEDEDE"/>
<path d="M138.009 372.748C133.811 366.965 128.974 359.05 123.285 354.819C117.596 350.587 110.188 347.893 103.252 349.552C106.846 355.855 111.858 361.233 117.892 365.26C123.925 369.286 130.813 371.85 138.009 372.748Z" fill="#DEDEDE"/>
<path d="M139.348 365.427C136.595 358.441 133.827 351.378 132.716 343.951C131.606 336.523 132.29 328.578 136.078 322.109C143.455 336.051 145.828 351.028 139.729 365.594" fill="#DEDEDE"/>
<path d="M144.763 322.109C148.946 308.274 161.601 298.092 175.261 293.419C176.955 292.725 178.792 292.448 180.615 292.612C181.525 292.702 182.388 293.063 183.09 293.65C183.793 294.236 184.303 295.02 184.555 295.9C185.057 298.259 183.11 300.359 181.284 301.988C170.601 311.111 158.183 317.976 144.778 322.17" fill="#DEDEDE"/>
<path d="M144.915 310.786C145.447 301.867 146.01 292.826 148.9 284.378C151.791 275.931 157.388 268.001 165.511 264.303C166.895 273.313 162.925 282.263 158.134 290.025C153.342 297.788 147.577 305.093 144.702 313.739" fill="#DEDEDE"/>
<path d="M144.703 316.935C141.25 306.844 140.885 294.104 134.861 285.261C130.632 279.173 123.879 274.942 120.258 268.442C118.058 274.678 118.358 281.525 121.095 287.544C123.842 293.49 127.622 298.902 132.26 303.525C136.732 308.289 140.55 311.881 144.703 316.935Z" fill="#DEDEDE"/>
<path d="M144.763 613.794C144.505 613.794 144.261 546.55 144.246 463.614C144.231 380.678 144.428 313.419 144.702 313.419C144.976 313.419 145.204 380.648 145.219 463.614C145.235 546.581 145.037 613.794 144.763 613.794Z" fill="#DEDEDE"/>
<path d="M203.493 412.352C202.687 412.76 201.841 413.081 200.968 413.31L194.016 415.654C188.145 417.648 180.098 420.54 171.352 424.132C162.605 427.724 154.528 430.86 149.889 434.893C148.035 436.443 146.558 438.395 145.569 440.601C144.9 442.123 144.793 443.143 144.702 443.127C144.655 442.896 144.655 442.658 144.702 442.427C144.799 441.758 144.962 441.101 145.189 440.464C146.071 438.118 147.518 436.027 149.402 434.376C152.204 432 155.341 430.051 158.711 428.592C162.438 426.857 166.575 425.03 170.956 423.234C179.718 419.642 187.841 416.842 193.773 415C196.739 414.072 199.158 413.387 200.831 412.945C201.698 412.667 202.589 412.468 203.493 412.352Z" fill="#DEDEDE"/>
<path d="M222.75 365.046C222.535 365.316 222.295 365.565 222.035 365.792L219.875 367.832L211.829 375.138L185.027 399.018C174.577 408.333 165.542 417.283 159.275 423.934C156.141 427.283 153.662 430.022 151.973 432.001L150.026 434.223C149.822 434.497 149.581 434.743 149.312 434.954C149.46 434.646 149.649 434.359 149.874 434.101C150.285 433.553 150.878 432.747 151.684 431.757C153.206 429.733 155.685 426.887 158.773 423.478C166.859 414.633 175.41 406.224 184.388 398.288C194.884 389.003 204.436 380.647 211.373 374.635L219.632 367.542L221.914 365.655C222.431 365.275 222.72 365.016 222.75 365.046Z" fill="#DEDEDE"/>
<path d="M173.74 408.486C173.466 408.364 175.657 403.326 177.832 396.934C180.007 390.541 181.057 385.168 181.346 385.214C181.635 385.26 180.981 390.785 178.745 397.254C177.809 400.003 176.727 402.701 175.505 405.336C175.076 406.468 174.481 407.53 173.74 408.486Z" fill="#DEDEDE"/>
<path d="M144.824 449.2C144.233 448.624 143.694 447.998 143.211 447.328L139.089 442.016C135.621 437.541 130.829 431.362 125.399 424.574C119.969 417.785 115.086 411.712 111.511 407.314L107.283 402.093C106.697 401.487 106.186 400.812 105.762 400.084C106.39 400.616 106.97 401.201 107.496 401.834C108.576 403.006 110.097 404.726 111.953 406.872C115.679 411.164 120.699 417.177 126.084 423.965C131.468 430.753 136.184 437.009 139.515 441.605C141.173 443.904 142.557 445.776 143.394 447.1C143.951 447.742 144.431 448.447 144.824 449.2Z" fill="#DEDEDE"/>
<path d="M131.955 432.655C131.788 432.823 128.35 428.744 126.555 422.549C125.545 419.25 125.133 415.796 125.339 412.351H125.764C125.567 413.128 125.43 413.539 125.354 413.523C125.278 413.508 125.278 413.082 125.354 412.275H125.78C125.988 415.636 126.565 418.964 127.499 422.199C129.217 428.272 132.214 432.488 131.955 432.655Z" fill="#DEDEDE"/>
<path d="M115.33 411.728C114.17 410.841 112.903 410.105 111.558 409.536C108.171 408.528 104.611 408.243 101.108 408.699C97.553 408.974 94.0271 409.544 90.5666 410.404C89.1481 410.852 87.6994 411.198 86.2314 411.439C87.5295 410.683 88.9274 410.115 90.384 409.749C93.845 408.675 97.4175 408.001 101.032 407.74C104.667 407.253 108.367 407.65 111.816 408.897C113.277 409.411 114.517 410.41 115.33 411.728Z" fill="#DEDEDE"/>
<path d="M111.39 406.659C111.39 406.811 109.184 405.776 105.61 404.559C100.956 402.972 96.1216 401.975 91.2201 401.591C86.3152 401.234 81.385 401.485 76.5414 402.337C72.8147 403.006 70.5635 403.691 70.457 403.539C70.9278 403.245 71.4407 403.024 71.9781 402.885C73.4037 402.379 74.8624 401.972 76.3437 401.667C81.2288 400.585 86.2468 400.231 91.2353 400.617C96.2216 400.998 101.126 402.106 105.792 403.904C107.203 404.444 108.579 405.07 109.914 405.776C110.449 405.993 110.946 406.291 111.39 406.659Z" fill="#DEDEDE"/>
<path d="M144.702 385.213C144.443 385.213 142.557 378.73 140.489 370.587C138.42 362.444 136.96 355.777 137.218 355.716C137.477 355.655 139.363 362.2 141.432 370.343C143.5 378.486 144.961 385.137 144.702 385.213Z" fill="#DEDEDE"/>
<path d="M144.961 385.214C144.672 385.305 143.44 380.921 140.306 376.447C138.328 373.801 136.018 371.422 133.431 369.369C134.415 369.598 135.328 370.063 136.093 370.724C138.036 372.159 139.728 373.908 141.097 375.899C144.383 380.495 145.204 385.198 144.961 385.214Z" fill="#DEDEDE"/>
<path d="M144.763 577.949C144.656 577.949 144.458 576.321 143.698 573.475C142.57 569.45 141.041 565.55 139.135 561.831C134.571 552.334 126.053 540.294 115.314 528.24C109.99 522.151 104.834 516.413 100.453 510.934C96.5141 506.102 92.9543 500.973 89.8052 495.592C87.6927 491.958 85.8963 488.149 84.4357 484.207C83.9489 482.807 83.5838 481.711 83.3861 480.95C83.2516 480.576 83.1598 480.188 83.1123 479.793C83.2036 479.793 83.6903 481.315 84.8007 484.07C86.3798 487.931 88.2511 491.666 90.3984 495.242C93.6086 500.537 97.1976 505.594 101.137 510.371C105.533 515.804 110.705 521.512 116.029 527.6C126.798 539.685 135.225 551.953 139.743 561.527C141.572 565.318 142.995 569.292 143.987 573.383C144.291 574.905 144.504 575.971 144.58 576.747C144.682 577.14 144.743 577.543 144.763 577.949Z" fill="#DEDEDE"/>
<path d="M197.804 517.966C196.908 518.529 195.978 519.037 195.021 519.488C192.506 520.9 190.096 522.492 187.81 524.252C184.434 526.885 181.266 529.775 178.334 532.897C175.003 536.413 171.58 540.507 168.082 544.875C161.1 553.642 154.559 561.405 150.65 567.615C148.657 570.659 147.212 573.277 146.269 575.103C145.826 576.07 145.318 577.006 144.748 577.904C144.793 577.628 144.88 577.361 145.007 577.112C145.22 576.61 145.493 575.864 145.95 574.936C147.163 572.312 148.545 569.77 150.087 567.326C153.875 560.979 160.37 553.095 167.352 544.343C170.85 539.959 174.318 535.865 177.71 532.349C180.7 529.226 183.946 526.36 187.415 523.78C189.76 522.041 192.254 520.513 194.868 519.214C195.781 518.742 196.542 518.453 197.028 518.24C197.272 518.11 197.533 518.017 197.804 517.966Z" fill="#DEDEDE"/>
<path d="M198.869 537.418C196.938 537.861 194.975 538.146 192.998 538.271C188.274 538.762 183.605 539.684 179.049 541.025C174.549 542.488 170.332 544.706 166.576 547.585C163.686 549.808 162.332 551.649 162.195 551.543C162.41 551.044 162.708 550.586 163.078 550.188C163.984 549.043 165.003 547.993 166.12 547.053C169.844 543.946 174.13 541.585 178.745 540.097C183.354 538.725 188.106 537.887 192.906 537.601C194.884 537.359 196.88 537.298 198.869 537.418Z" fill="#DEDEDE"/>
<path d="M163.914 549.442C163.609 549.274 166.256 545.226 168.31 539.777C170.363 534.328 170.698 529.457 171.048 529.518C171.183 530.567 171.147 531.631 170.941 532.669C170.65 535.207 170.073 537.703 169.222 540.112C168.333 542.5 167.19 544.785 165.815 546.93C164.765 548.528 164.02 549.442 163.914 549.442Z" fill="#DEDEDE"/>
<path d="M215.023 465.729C214.728 465.93 214.412 466.099 214.08 466.232L211.327 467.48C210.11 467.997 208.635 468.667 206.992 469.535C205.349 470.402 203.387 471.27 201.364 472.487L198.154 474.314C197.044 474.953 195.949 475.714 194.777 476.445C192.42 477.875 190.047 479.641 187.522 481.452C176.689 489.507 167.241 499.275 159.549 510.371C157.845 512.958 156.157 515.394 154.803 517.814C154.103 519.001 153.388 520.127 152.78 521.269L151.076 524.541C149.935 526.596 149.114 528.559 148.323 530.249C147.532 531.938 146.893 533.43 146.422 534.663C145.95 535.896 145.555 536.718 145.25 537.463C145.131 537.798 144.978 538.119 144.794 538.422C144.841 538.072 144.933 537.729 145.068 537.402L146.056 534.526C146.482 533.263 147.045 531.756 147.821 529.96C148.597 528.164 149.342 526.246 150.468 524.145L152.126 520.827C152.719 519.686 153.419 518.544 154.103 517.327C155.442 514.876 157.145 512.411 158.819 509.716C166.48 498.461 176.007 488.598 186.989 480.554C189.545 478.758 191.948 476.993 194.351 475.577C195.538 474.862 196.648 474.055 197.789 473.477L201.044 471.696C203.098 470.524 205.06 469.672 206.748 468.865C208.191 468.152 209.668 467.512 211.175 466.947L214.004 465.866C214.337 465.779 214.679 465.733 215.023 465.729Z" fill="#DEDEDE"/>
<path d="M173.025 493.887C173.413 492.525 174.223 491.32 175.337 490.447C177.918 488.198 181.209 486.931 184.631 486.871C187.992 486.852 191.322 487.504 194.427 488.788C195.745 489.205 196.995 489.81 198.139 490.584C196.793 490.322 195.474 489.935 194.199 489.428C191.125 488.4 187.903 487.886 184.662 487.905C181.444 487.973 178.332 489.066 175.779 491.026C174.793 491.912 173.873 492.868 173.025 493.887Z" fill="#DEDEDE"/>
<path d="M166.743 500.372C166.485 500.219 168.843 496.749 169.39 491.757C169.938 486.765 168.508 482.868 168.797 482.792C169.361 483.522 169.737 484.379 169.892 485.288C171.017 489.624 170.474 494.225 168.371 498.18C167.565 499.671 166.835 500.432 166.743 500.372Z" fill="#DEDEDE"/>
<path d="M98.3545 587.584C99.7995 613.276 107.481 639.41 119.437 665.832H171.154C182.502 639.684 189.712 613.58 190.929 587.584H98.3545Z" fill="#DEDEDE"/>
<path d="M182.593 629.167C182.593 629.441 165.557 629.654 144.566 629.654C123.574 629.654 106.538 629.441 106.538 629.167C106.538 628.893 123.574 628.68 144.566 628.68C165.557 628.68 182.593 628.893 182.593 629.167Z" fill="#F2F2F2"/>
<path d="M181.498 638.481C181.498 638.74 165.527 638.953 145.813 638.953C126.1 638.953 110.128 638.74 110.128 638.481C110.128 638.222 126.1 637.994 145.813 637.994C165.527 637.994 181.498 638.207 181.498 638.481Z" fill="#F2F2F2"/>
<path d="M120.228 604.448C120.502 604.448 120.715 609.791 120.715 616.381C120.715 622.971 120.502 628.314 120.228 628.314C119.954 628.314 119.741 622.971 119.741 616.381C119.741 609.791 120.015 604.448 120.228 604.448Z" fill="#F2F2F2"/>
<path d="M148.018 604.448C148.277 604.448 148.505 609.988 148.505 616.807C148.505 623.626 148.277 629.166 148.018 629.166C147.759 629.166 147.531 623.626 147.531 616.807C147.531 609.988 147.744 604.448 148.018 604.448Z" fill="#F2F2F2"/>
<path d="M174.044 604.235C174.318 604.235 174.531 609.867 174.531 616.823C174.531 623.778 174.318 629.425 174.044 629.425C173.77 629.425 173.572 623.794 173.572 616.823C173.572 609.852 173.785 604.235 174.044 604.235Z" fill="#F2F2F2"/>
<path d="M189.407 604.449C189.407 604.723 169.405 604.936 144.763 604.936C120.121 604.936 100.104 604.723 100.104 604.449C100.104 604.175 120.091 603.962 144.763 603.962C169.435 603.962 189.407 604.236 189.407 604.449Z" fill="#F2F2F2"/>
<path d="M140.641 27.3203H18.5576V154.654H140.641V27.3203Z" fill="#DEDEDE"/>
<path d="M132.382 27.3203H10.2979V154.654H132.382V27.3203Z" fill="#F2F2F2"/>
<path d="M132.396 154.7H10.252V27.29H132.396V154.7ZM10.3128 154.624H132.396V27.3814H10.328L10.3128 154.624Z" fill="#DEDEDE"/>
<path d="M115.968 44.4434H26.71V137.547H115.968V44.4434Z" fill="white"/>
<path d="M26.6953 138.171C26.0611 139.106 25.321 139.964 24.4897 140.728C23.0751 142.25 21.0672 144.274 18.816 146.481C16.5648 148.688 14.5113 150.667 12.9902 152.067C12.2214 152.888 11.3526 153.609 10.4043 154.213C11.0369 153.282 11.7772 152.429 12.6099 151.671C14.0245 150.149 16.0324 148.11 18.2836 145.903C20.5348 143.696 22.6035 141.702 24.1246 140.302C24.8901 139.488 25.7536 138.772 26.6953 138.171Z" fill="#DEDEDE"/>
<path d="M115.953 137.928C116.888 138.567 117.751 139.307 118.524 140.135C120.045 141.565 122.053 143.575 124.274 145.812C126.494 148.049 128.457 150.135 129.856 151.657C130.669 152.427 131.389 153.29 132.001 154.229C131.064 153.603 130.206 152.868 129.445 152.037C127.924 150.622 125.901 148.597 123.68 146.345C121.46 144.092 119.497 142.022 118.098 140.5C117.285 139.73 116.565 138.866 115.953 137.928Z" fill="#DEDEDE"/>
<path d="M115.664 44.6869C116.304 43.7569 117.044 42.8995 117.87 42.1298C119.299 40.6078 121.292 38.5835 123.543 36.3765C125.795 34.1695 127.833 32.1909 129.354 30.7906C130.121 29.9684 130.99 29.2472 131.94 28.6445C131.312 29.5747 130.577 30.4278 129.749 31.1863C128.32 32.7084 126.312 34.7327 124.061 36.9549C121.809 39.1771 119.741 41.1557 118.22 42.556C117.463 43.3732 116.604 44.0894 115.664 44.6869Z" fill="#DEDEDE"/>
<path d="M26.4514 44.9157C25.5173 44.2812 24.6598 43.5406 23.8959 42.7088C22.3748 41.2933 20.3517 39.2842 18.1461 37.0316C15.9405 34.7789 13.9631 32.7242 12.5637 31.2021C11.7447 30.4372 11.0242 29.5732 10.4189 28.6299C11.3532 29.2523 12.2065 29.9885 12.9592 30.8216C14.4803 32.2371 16.5034 34.2462 18.7242 36.4988C20.945 38.7515 22.8768 40.8214 24.3979 42.3435C25.1804 43.1177 25.8696 43.981 26.4514 44.9157Z" fill="#DEDEDE"/>
<path d="M115.664 137.547C115.664 137.547 115.664 137.38 115.664 137.09C115.664 136.801 115.664 136.345 115.664 135.797C115.664 134.62 115.664 132.945 115.664 130.774C115.664 126.36 115.664 119.937 115.573 111.794C115.573 95.4929 115.466 72.2209 115.406 44.4437L115.74 44.7937H26.7405L27.136 44.398C27.136 78.5678 27.136 110.531 27.136 137.501L26.7861 137.166L91.2352 137.334L109.352 137.425H114.143H115.375H114.143H109.428L91.4025 137.517L26.7253 137.684H26.3906V137.349C26.3906 110.379 26.3906 78.4156 26.3906 44.2458V44.124H26.8013H115.664H116.014V44.4741C115.938 72.3731 115.877 95.6908 115.831 112.038C115.831 120.15 115.831 126.543 115.74 130.941C115.74 133.087 115.74 134.746 115.74 135.903C115.74 136.436 115.74 136.847 115.74 137.166C115.727 137.295 115.701 137.423 115.664 137.547Z" fill="#DEDEDE"/>
<path d="M86.2314 76.0869H56.4482V105.888H86.2314V76.0869Z" fill="#EBEBEB"/>
<path d="M612.198 0H434.807V257.271H612.198V0Z" fill="#DEDEDE"/>
<path d="M603.315 0H425.924V257.271H603.315V0Z" fill="#F5F5F5"/>
<path d="M581.259 27.8691H447.949V229.418H581.259V27.8691Z" fill="white"/>
<path d="M581.258 229.418C581.258 229.418 581.258 229.068 581.258 228.428C581.258 227.789 581.258 226.815 581.258 225.567C581.258 223.04 581.258 219.327 581.258 214.517C581.258 204.852 581.258 190.788 581.137 172.996C581.137 137.456 581.015 87.1372 580.924 27.8689L581.365 28.3103H448.071L448.558 27.8232C448.558 103.849 448.558 173.939 448.451 229.372L448.071 228.992L545.102 229.189L571.919 229.281H578.946H581.38H579.022H572.071L545.345 229.387L448.071 229.585H447.69V229.205C447.69 173.787 447.69 103.682 447.584 27.6558V27.3818H448.086H581.38H581.821V27.8232C581.73 87.1829 581.654 137.639 581.608 173.239C581.608 190.986 581.517 205.019 581.487 214.654C581.487 219.433 581.487 223.116 581.487 225.628C581.487 226.845 581.487 227.789 581.487 228.428C581.487 229.068 581.258 229.418 581.258 229.418Z" fill="#DEDEDE"/>
<path d="M603.801 -0.015625C602.872 1.58976 601.814 3.11684 600.637 4.5505C598.569 7.3054 595.648 11.0496 592.317 15.1135C588.986 19.1773 585.852 22.7237 583.54 25.3112C582.35 26.7705 581.031 28.1204 579.601 29.3446C580.6 27.7759 581.73 26.2943 582.977 24.9154C585.366 22.0388 588.286 18.4772 591.526 14.5503L600.059 4.18521C601.18 2.67667 602.432 1.27085 603.801 -0.015625Z" fill="#DEDEDE"/>
<path d="M581.943 228.763C588.571 239.308 596.368 249.07 605.186 257.864L581.943 228.763Z" fill="white"/>
<path d="M605.186 257.864C603.715 256.772 602.359 255.533 601.14 254.166C594.948 247.872 589.422 240.956 584.651 233.527C583.583 232.038 582.676 230.442 581.943 228.763C583.138 230.143 584.231 231.608 585.214 233.146C587.161 235.901 589.914 239.661 593.123 243.664C596.333 247.666 599.39 251.274 601.626 253.709C602.92 254.998 604.11 256.388 605.186 257.864Z" fill="#DEDEDE"/>
<path d="M425.97 257.073L449.197 228.397L425.97 257.073Z" fill="white"/>
<path d="M449.121 228.398C449.334 228.565 444.299 235.11 437.88 243.04C431.461 250.97 426.091 257.241 425.893 257.073C425.696 256.906 430.715 250.346 437.134 242.431C443.553 234.516 448.923 228.291 449.121 228.398Z" fill="#DEDEDE"/>
<path d="M425.97 -0.0151495C426.183 -0.182574 431.233 5.84471 437.256 13.4701C443.28 21.0956 447.98 27.3968 447.767 27.5643C443.775 23.2655 440.013 18.7591 436.496 14.0637C432.74 9.56094 429.226 4.86133 425.97 -0.0151495Z" fill="#DEDEDE"/>
<path d="M539.717 68.7959H495.088V195.612H539.717V68.7959Z" fill="#DEDEDE"/>
<path d="M508.474 526.611C508.322 526.779 507.12 526.064 505.766 524.983C504.413 523.902 503.454 522.883 503.591 522.7C503.728 522.517 504.945 523.248 506.299 524.328C507.652 525.409 508.611 526.398 508.474 526.611Z" fill="#58595B"/>
<path d="M545.164 471.681C545.392 466.552 545.529 461.3 543.916 456.46C542.304 451.62 538.547 447.1 533.527 446.065C527.793 444.878 521.921 448.5 518.696 453.401C515.472 458.302 514.392 464.238 513.433 470.022C506.896 509.895 504.485 550.336 506.239 590.704L529.709 593.992C540.053 551.831 543.293 515.013 545.164 471.681Z" fill="#B8BABC"/>
<path d="M530.271 445.852C530.271 445.852 530.271 445.989 530.165 446.232C530.058 446.476 529.921 446.856 529.769 447.298C529.389 448.287 528.872 449.641 528.248 451.346C527.929 452.229 527.488 453.188 527.138 454.284L525.997 457.83C525.586 459.109 525.16 460.478 524.689 461.924L523.472 466.567C521.506 474.219 519.982 481.98 518.909 489.808C517.646 498.636 516.81 508.408 516.156 518.727C514.954 539.305 514.771 557.965 514.239 571.466C513.996 578.224 513.767 583.642 513.509 587.462C513.372 589.289 513.281 590.735 513.205 591.8L513.113 592.927C513.129 593.053 513.129 593.181 513.113 593.307C513.091 593.181 513.091 593.052 513.113 592.927C513.113 592.622 513.113 592.242 513.113 591.785C513.113 590.72 513.159 589.274 513.25 587.447C513.418 583.673 513.554 578.208 513.722 571.45C514.102 557.95 514.193 539.29 515.395 518.681C516.049 508.392 516.916 498.59 518.224 489.762C519.322 481.91 520.902 474.133 522.955 466.475L524.217 461.833L525.602 457.754L526.818 454.208C527.183 453.112 527.64 452.168 527.99 451.285C528.72 449.596 529.283 448.241 529.709 447.282L530.165 446.247C530.182 446.111 530.218 445.978 530.271 445.852Z" fill="#58595B"/>
<path d="M532.447 445.943C533.673 447.387 534.645 449.029 535.322 450.799C537.124 455.658 537.855 460.85 537.467 466.019C536.843 478.987 535.672 496.856 534.135 516.597C532.599 536.337 530.926 554.008 529.405 566.976C528.705 573.414 528.112 578.635 527.671 582.197C527.443 583.932 527.26 585.317 527.138 586.336C527.138 586.763 527.017 587.113 526.971 587.402C526.968 587.527 526.942 587.651 526.895 587.767C526.875 587.646 526.875 587.523 526.895 587.402L526.971 586.321C527.062 585.286 527.184 583.901 527.351 582.151C527.701 578.468 528.203 573.262 528.872 566.93C530.104 554.024 531.732 536.17 533.284 516.444C534.835 496.719 536.082 478.835 536.858 465.897C537.297 460.81 536.665 455.687 535.002 450.86C534.306 449.145 533.45 447.499 532.447 445.943Z" fill="#58595B"/>
<path d="M548.707 506.627C547.17 506.506 545.666 506.115 544.265 505.47C542.772 505.08 541.361 504.425 540.098 503.537C541.636 503.639 543.142 504.026 544.539 504.679C546.036 505.067 547.449 505.728 548.707 506.627Z" fill="#58595B"/>
<path d="M551.537 482.7C548.846 484.506 545.868 485.839 542.729 486.642C545.411 484.82 548.392 483.486 551.537 482.7Z" fill="#58595B"/>
<path d="M550.061 463.172C548.924 463.499 547.728 463.562 546.563 463.355C544.646 463.218 543.11 462.929 543.125 462.685C544.262 462.358 545.46 462.301 546.624 462.518C547.805 462.461 548.983 462.685 550.061 463.172Z" fill="#58595B"/>
<path d="M525.86 450.662C525.663 450.783 524.628 449.505 523.563 447.8C522.499 446.095 521.784 444.619 522.042 444.497C522.301 444.376 523.259 445.654 524.324 447.359C525.389 449.063 526.058 450.509 525.86 450.662Z" fill="#58595B"/>
<path d="M517.859 462.472C516.792 462.849 515.649 462.964 514.528 462.807C513.399 462.921 512.26 462.754 511.212 462.32C512.278 461.939 513.421 461.818 514.543 461.97C516.368 462.015 517.859 462.228 517.859 462.472Z" fill="#58595B"/>
<path d="M512.11 486.095C510.886 486.045 509.69 485.717 508.611 485.136C506.756 484.39 505.326 483.614 505.417 483.386C506.641 483.437 507.837 483.765 508.916 484.345C510.771 485.09 512.201 485.882 512.11 486.095Z" fill="#58595B"/>
<path d="M511.502 505.957C511.502 506.185 510.209 506.657 508.459 507.023C506.71 507.388 505.417 507.479 505.295 507.251C505.174 507.023 506.588 506.551 508.338 506.201C510.087 505.851 511.456 505.729 511.502 505.957Z" fill="#58595B"/>
<path d="M508.794 538.468C507.833 539.045 506.748 539.384 505.63 539.457C503.835 539.777 502.344 539.853 502.314 539.625C502.284 539.397 503.683 538.955 505.478 538.635C506.553 538.308 507.692 538.251 508.794 538.468Z" fill="#58595B"/>
<path d="M506.998 556.398C507.105 556.611 505.918 557.448 504.352 558.27C502.785 559.092 501.431 559.609 501.309 559.411C501.188 559.213 502.374 558.361 503.956 557.539C505.538 556.717 506.892 556.2 506.998 556.398Z" fill="#58595B"/>
<path d="M521.647 576.839C521.434 576.961 520.415 575.53 519.335 573.658C518.579 572.582 518.061 571.357 517.813 570.066C518.011 569.944 519.046 571.375 520.11 573.247C520.859 574.329 521.381 575.55 521.647 576.839Z" fill="#58595B"/>
<path d="M525.86 542.927C526.028 543.095 524.872 544.449 523.305 545.972C521.738 547.494 520.263 548.635 520.141 548.468C520.019 548.3 521.13 546.946 522.712 545.424C524.294 543.902 525.708 542.76 525.86 542.927Z" fill="#58595B"/>
<path d="M524.932 525.165C524.765 525.333 523.7 524.45 522.544 523.217C521.388 521.984 520.612 520.858 520.78 520.69C520.947 520.523 522.027 521.406 523.168 522.654C524.308 523.902 525.099 525.089 524.932 525.165Z" fill="#58595B"/>
<path d="M527.883 502.487C528.05 502.639 527.092 504.009 525.738 505.531C524.384 507.053 523.152 508.149 522.985 507.981C522.818 507.814 523.761 506.459 525.115 504.937C526.468 503.415 527.655 502.335 527.883 502.487Z" fill="#58595B"/>
<path d="M529.404 486.018C529.252 486.186 527.883 485.135 526.362 483.674C524.841 482.213 523.806 480.889 523.974 480.721C524.141 480.554 525.495 481.619 527.016 483.081C528.537 484.542 529.632 485.851 529.404 486.018Z" fill="#58595B"/>
<path d="M532.674 463.766C532.424 464.977 531.904 466.116 531.153 467.099C530.119 468.819 529.13 470.143 528.933 469.991C529.186 468.781 529.706 467.642 530.454 466.658C531.488 464.938 532.446 463.644 532.674 463.766Z" fill="#58595B"/>
<path d="M538.729 443.142C538.54 444.338 538.088 445.476 537.406 446.476C536.463 448.211 535.535 449.52 535.337 449.413C535.523 448.217 535.976 447.078 536.66 446.08C537.603 444.421 538.531 443.036 538.729 443.142Z" fill="#58595B"/>
<path d="M545.574 452.503C545.68 452.716 544.737 453.371 543.49 454.025C542.243 454.68 541.132 454.939 541.026 454.725C540.919 454.512 541.862 453.873 543.125 453.203C544.387 452.534 545.483 452.305 545.574 452.503Z" fill="#58595B"/>
<path d="M545.741 526.611C544.152 526.624 542.584 526.243 541.178 525.5C539.658 525.001 538.292 524.121 537.208 522.943C538.696 523.399 540.138 523.995 541.513 524.724C542.985 525.202 544.403 525.834 545.741 526.611Z" fill="#58595B"/>
<path d="M542.943 542.258C542.943 542.486 541.574 542.958 539.779 543.308C537.984 543.658 536.508 543.749 536.478 543.521C536.448 543.293 537.847 542.821 539.627 542.471C540.7 542.143 541.836 542.07 542.943 542.258Z" fill="#58595B"/>
<path d="M539.505 569.229C538.057 568.518 536.824 567.436 535.93 566.093C534.825 564.915 534.048 563.466 533.679 561.893C534.753 563.028 535.725 564.255 536.584 565.561C537.658 566.7 538.635 567.927 539.505 569.229Z" fill="#58595B"/>
<path d="M501.782 581.405C501.629 581.238 502.588 580.172 503.911 579.031C505.234 577.889 506.436 577.128 506.588 577.296C506.74 577.463 505.782 578.528 504.459 579.67C503.135 580.811 501.934 581.649 501.782 581.405Z" fill="#58595B"/>
<path d="M490.951 522.76C489.43 517.981 486.555 512.426 481.551 512.35C480.061 512.429 478.621 512.91 477.381 513.74C476.142 514.571 475.149 515.72 474.508 517.068C473.137 519.731 472.482 522.705 472.607 525.698C473.227 546.948 476.848 568.003 483.361 588.239H501.614C501.427 565.995 497.83 543.913 490.951 522.76Z" fill="#B8BABC"/>
<path d="M457.821 492.716C455.25 482.472 447.614 476.947 438.746 476.43C430.654 477.845 427.506 485.821 426.578 493.994C425.65 502.167 428.099 510.295 430.654 518.134C438.686 543.278 446.712 568.427 454.733 593.581L477.55 591.085C470.309 557.402 466.172 526.155 457.821 492.716Z" fill="#B8BABC"/>
<path d="M481.551 512.35C480.97 513.172 480.461 514.042 480.03 514.952C479.083 517.54 478.786 520.32 479.163 523.05C479.528 526.535 479.923 530.66 480.501 535.332C481.079 540.005 481.931 544.982 482.965 550.233C485.034 560.766 487.361 570.218 488.852 577.113C489.597 580.552 490.16 583.338 490.525 585.286C490.677 586.169 490.799 586.914 490.905 587.523C490.969 587.782 490.994 588.049 490.981 588.315C490.869 588.072 490.787 587.817 490.738 587.554C490.586 586.96 490.419 586.23 490.206 585.347L488.274 577.234C486.646 570.385 484.213 560.964 482.19 550.401C481.17 545.119 480.349 540.051 479.801 535.424C479.512 533.11 479.315 530.858 479.132 528.833C478.95 526.809 478.737 524.861 478.63 523.095C478.31 520.282 478.707 517.433 479.786 514.815C480.195 513.879 480.796 513.038 481.551 512.35Z" fill="#58595B"/>
<path d="M439.081 475.775C438.072 476.937 437.151 478.174 436.328 479.474C434.218 483.111 433.023 487.206 432.845 491.407C432.747 497.641 433.703 503.847 435.674 509.763C437.667 516.551 439.872 524.009 442.169 531.817L453.836 571.938C455.281 577.022 456.437 581.162 457.289 584.114C457.654 585.484 457.958 586.595 458.171 587.432C458.295 587.814 458.382 588.206 458.43 588.604C458.256 588.244 458.118 587.866 458.019 587.478C457.745 586.656 457.411 585.56 456.969 584.206C456.072 581.253 454.81 577.143 453.273 572.029L441.363 531.984C439.081 524.161 436.906 516.764 434.929 509.9C432.951 503.035 431.886 496.703 432.267 491.3C432.498 487.025 433.795 482.876 436.039 479.23C436.859 477.921 437.887 476.755 439.081 475.775Z" fill="#58595B"/>
<path d="M472.561 588.665C472.348 588.32 472.174 587.953 472.044 587.569C471.74 586.838 471.253 585.773 470.736 584.357C469.656 581.557 468.257 577.432 466.827 572.257C465.397 567.082 463.952 560.827 462.583 553.871C461.214 546.915 459.799 539.229 458.278 531.177C456.757 523.126 454.932 515.561 452.894 508.773C451.118 502.76 448.896 496.889 446.246 491.208C444.468 487.383 442.436 483.681 440.162 480.128C439.371 478.849 438.641 477.936 438.245 477.266C437.993 476.948 437.778 476.6 437.606 476.231C437.889 476.52 438.148 476.831 438.382 477.16C438.839 477.799 439.599 478.682 440.436 479.945C442.841 483.449 444.982 487.127 446.84 490.95C449.579 496.631 451.868 502.519 453.684 508.56C455.898 515.948 457.726 523.446 459.16 531.025C460.682 539.061 462.096 546.732 463.389 553.719C464.682 560.705 466.081 566.915 467.45 572.105C468.819 577.295 470.128 581.42 471.116 584.281C471.573 585.712 472.014 586.793 472.257 587.538C472.382 587.907 472.484 588.283 472.561 588.665Z" fill="#58595B"/>
<path d="M431.035 514.435C431.035 514.663 429.848 515.15 428.266 515.546C426.684 515.942 425.346 516.048 425.3 515.835C425.254 515.622 426.487 515.105 428.068 514.724C429.65 514.344 430.974 514.131 431.035 514.435Z" fill="#58595B"/>
<path d="M428.616 498.804C426.071 499.25 423.477 499.352 420.904 499.108C423.387 498.238 426.073 498.132 428.616 498.804Z" fill="#58595B"/>
<path d="M431.187 484.588C431.035 484.755 429.803 483.964 428.419 482.792C427.035 481.62 426.046 480.524 426.198 480.356C426.35 480.189 427.582 480.98 428.966 482.152C430.351 483.324 431.339 484.405 431.187 484.588Z" fill="#58595B"/>
<path d="M438.138 471.422C438.366 471.422 438.305 472.579 438.26 473.934C438.214 475.288 438.26 476.384 437.986 476.415C437.712 476.445 437.378 475.334 437.423 473.903C437.469 472.472 437.91 471.377 438.138 471.422Z" fill="#58595B"/>
<path d="M452.346 477.632C452.528 477.754 451.981 478.88 451.098 480.128C450.216 481.376 449.364 482.289 449.167 482.167C448.969 482.046 449.532 480.904 450.414 479.656C451.296 478.408 452.148 477.495 452.346 477.632Z" fill="#58595B"/>
<path d="M461.564 493.644C461.64 493.873 460.468 494.558 458.917 495.166C457.365 495.775 456.057 496.125 455.966 495.912C455.875 495.699 457.061 495.014 458.613 494.39C460.164 493.766 461.472 493.431 461.564 493.644Z" fill="#58595B"/>
<path d="M467.146 510.143C464.921 511.661 462.2 512.271 459.54 511.847C460.749 511.379 462.011 511.062 463.297 510.904C464.538 510.471 465.833 510.215 467.146 510.143Z" fill="#58595B"/>
<path d="M441.47 505.455C441.257 505.455 441.47 504.253 441.835 502.913C442.2 501.574 442.762 500.554 442.991 500.615C443.219 500.676 442.991 501.833 442.626 503.157C442.261 504.481 441.698 505.531 441.47 505.455Z" fill="#58595B"/>
<path d="M445.06 526.155C445.133 524.948 445.487 523.775 446.094 522.73C446.87 520.934 447.615 519.549 447.889 519.686C447.816 520.893 447.462 522.066 446.854 523.111C446.079 524.861 445.273 526.246 445.06 526.155Z" fill="#58595B"/>
<path d="M436.207 531.817C436.115 532.045 434.685 531.65 432.921 531.102C431.157 530.554 429.772 530.051 429.879 529.823C429.985 529.595 431.4 529.747 433.24 530.295C435.081 530.843 436.298 531.619 436.207 531.817Z" fill="#58595B"/>
<path d="M441.302 548.696C441.439 548.894 440.465 549.823 439.127 550.766C437.788 551.71 436.602 552.288 436.465 552.167C436.328 552.045 437.302 551.04 438.64 550.096C439.979 549.153 441.18 548.514 441.302 548.696Z" fill="#58595B"/>
<path d="M445.394 565.53C445.394 565.758 444.253 566.245 442.702 566.611C441.15 566.976 439.857 567.113 439.812 566.885C439.766 566.656 440.968 566.185 442.504 565.804C444.04 565.424 445.349 565.302 445.394 565.53Z" fill="#58595B"/>
<path d="M467.602 524.191C467.723 524.389 466.689 525.211 465.183 525.713C463.677 526.216 462.369 526.352 462.324 526.124C462.278 525.896 463.464 525.47 464.894 524.937C466.324 524.404 467.48 523.993 467.602 524.191Z" fill="#58595B"/>
<path d="M470.781 550.37C470.675 550.583 469.443 550.218 468.028 549.548C466.614 548.878 465.534 548.163 465.64 547.95C465.747 547.737 466.963 548.117 468.378 548.787C469.793 549.457 470.873 550.172 470.781 550.37Z" fill="#58595B"/>
<path d="M476.379 569.106C475.11 569.055 473.869 568.722 472.744 568.132C470.827 567.386 469.337 566.61 469.428 566.382C470.69 566.445 471.924 566.777 473.048 567.356C474.273 567.688 475.41 568.286 476.379 569.106Z" fill="#58595B"/>
<path d="M446.292 583.779C446.185 583.581 447.676 582.576 449.41 581.207C451.144 579.837 452.452 578.634 452.65 578.802C452.848 578.969 451.722 580.461 449.927 581.846C448.924 582.824 447.663 583.494 446.292 583.779Z" fill="#58595B"/>
<path d="M461.107 574.266C460.863 574.266 460.544 573.033 459.966 571.572C459.388 570.111 458.81 568.954 458.992 568.817C459.175 568.68 460.148 569.685 460.757 571.268C461.365 572.851 461.32 574.236 461.107 574.266Z" fill="#58595B"/>
<path d="M457.183 551.725C457.046 551.923 456.088 551.466 455.038 550.705C453.989 549.944 453.258 549.183 453.395 549.016C453.532 548.848 454.491 549.274 455.525 550.035C456.559 550.796 457.32 551.542 457.183 551.725Z" fill="#58595B"/>
<path d="M491.682 516.429C491.819 516.612 490.891 517.525 489.598 518.484C488.305 519.443 487.164 520.006 487.027 519.853C486.89 519.701 487.818 518.758 489.111 517.799C490.404 516.84 491.545 516.231 491.682 516.429Z" fill="#58595B"/>
<path d="M496.884 530.645C496.884 530.873 495.454 531.178 493.644 530.98C491.833 530.782 490.48 530.173 490.601 529.96C490.723 529.747 492.122 529.96 493.78 530.143C495.438 530.325 496.868 530.417 496.884 530.645Z" fill="#58595B"/>
<path d="M474.523 533.84C474.523 534.054 473.23 534.541 471.481 534.662C469.732 534.784 468.332 534.48 468.363 534.251C468.393 534.023 469.747 533.932 471.405 533.825C473.063 533.719 474.478 533.612 474.523 533.84Z" fill="#58595B"/>
<path d="M476.455 520.386C476.455 520.614 475.071 520.644 473.58 519.96C472.09 519.275 471.223 518.209 471.375 518.057C471.527 517.905 472.561 518.575 473.93 519.199C475.299 519.823 476.486 520.157 476.455 520.386Z" fill="#58595B"/>
<path d="M498.8 545.926C497.657 545.666 496.59 545.145 495.682 544.404C494.085 543.4 492.883 542.425 493.005 542.228C493.126 542.03 494.526 542.684 496.123 543.75C497.72 544.815 498.982 545.728 498.8 545.926Z" fill="#58595B"/>
<path d="M553.361 585.834H434.092V606.99H553.361V585.834Z" fill="#8ACCA1"/>
<path d="M442.99 602.789L457.502 665.999H528.583L544.448 602.789H442.99Z" fill="#8ACCA1"/>
<path d="M553.286 607.021C553.286 607.249 526.378 607.447 493.203 607.447C460.027 607.447 433.119 607.249 433.119 607.021C433.119 606.793 460.012 606.595 493.203 606.595C526.393 606.595 553.286 606.793 553.286 607.021Z" fill="#58595B"/>
<path d="M486.951 534.297C486.753 534.419 485.947 533.475 485.141 532.181C484.335 530.888 483.833 529.731 484.03 529.609C484.228 529.487 485.034 530.431 485.84 531.725C486.647 533.019 487.149 534.221 486.951 534.297Z" fill="#58595B"/>
<path d="M486.997 551.314C486.939 550.209 487.153 549.106 487.62 548.103C488.183 546.398 488.822 545.059 489.05 545.165C489.108 546.271 488.894 547.373 488.426 548.377C487.864 550.066 487.225 551.39 486.997 551.314Z" fill="#58595B"/>
<path d="M492.899 569.228C492.686 569.335 491.803 567.904 490.906 566.032C490.241 564.954 489.821 563.744 489.674 562.486C489.887 562.394 490.769 563.81 491.666 565.682C492.331 566.76 492.751 567.97 492.899 569.228Z" fill="#58595B"/>
<path d="M480.228 583.55C480.045 583.398 480.76 582.302 481.749 581.085C482.738 579.867 483.802 579.015 483.97 579.167C484.137 579.319 483.437 580.415 482.449 581.633C481.46 582.85 480.395 583.703 480.228 583.55Z" fill="#58595B"/>
<path d="M477.581 557.463C477.581 557.692 476.394 557.676 475.025 557.463C473.656 557.25 472.561 556.839 472.607 556.611C472.652 556.383 473.793 556.398 475.162 556.611C476.531 556.824 477.687 557.235 477.581 557.463Z" fill="#58595B"/>
<path d="M197.333 133.452L183.735 109.465C192.158 95.7965 195.167 79.4696 192.17 63.6937C189.174 47.9179 180.388 33.8342 167.54 24.2112C154.692 14.5883 138.712 10.122 122.74 11.6905C106.769 13.259 91.9611 20.7487 81.2283 32.6874C70.4954 44.6261 64.6137 60.1501 64.7393 76.2079C64.8649 92.2657 70.9888 107.696 81.9071 119.465C92.8254 131.234 107.748 138.491 123.743 139.809C139.737 141.127 155.645 136.411 168.341 126.588L197.333 133.452Z" fill="#F2F2F2"/>
<path d="M197.333 133.453L168.28 126.817H167.991L168.174 126.573L168.447 126.862C164.379 130.02 159.952 132.687 155.259 134.807C149.667 137.315 143.746 139.011 137.675 139.845C134.315 140.314 130.92 140.482 127.53 140.348C125.78 140.256 124.001 140.211 122.206 140.058L116.791 139.236C104.267 136.781 92.7485 130.673 83.6864 121.681C74.6244 112.689 68.4234 101.215 65.8642 88.7047C64.0136 79.2469 64.2733 69.4969 66.6247 60.1512C69.0285 50.3907 73.7213 41.3436 80.3147 33.7589L82.931 30.8823C83.7828 29.9082 84.8171 29.1015 85.745 28.2187C86.6729 27.3359 87.6007 26.4227 88.6655 25.6769L91.7077 23.3786C92.7169 22.6002 93.7792 21.8933 94.8868 21.263L98.142 19.2843L101.549 17.6405C102.662 17.0619 103.81 16.5535 104.987 16.1185C114.117 12.5068 123.943 10.9982 133.736 11.7046C142.997 12.3357 152.007 14.996 160.127 19.4974C174.691 27.6345 185.58 41.0525 190.549 56.9853C192.524 63.7658 193.463 70.8063 193.333 77.8677C192.999 89.1363 189.693 100.116 183.75 109.694V109.496L197.181 133.574L183.567 109.572V109.465V109.374C186.193 105.067 188.311 100.47 189.88 95.6756C191.738 89.8893 192.763 83.8674 192.922 77.7916C193.029 70.7933 192.075 63.8192 190.093 57.1071C185.134 41.3476 174.321 28.0928 159.884 20.0758C151.848 15.6624 142.944 13.0647 133.797 12.4656C124.131 11.7435 114.426 13.1998 105.398 16.7273C104.227 17.1649 103.084 17.6732 101.975 18.2493L98.6135 19.8931L95.404 21.8414C94.3101 22.467 93.2583 23.1635 92.2553 23.9265L89.2131 26.2096C88.1788 26.9402 87.3117 27.8839 86.3382 28.7058C85.3647 29.5277 84.4216 30.4257 83.5698 31.3237L80.9839 34.1699C74.4507 41.6578 69.7944 50.5954 67.4005 60.2425C65.0746 69.4725 64.8098 79.1019 66.6247 88.4459C68.3898 97.2843 72.0199 105.644 77.2725 112.966C86.7473 126.187 100.881 135.319 116.821 138.521L122.191 139.343C123.97 139.495 125.735 139.556 127.469 139.647C130.828 139.792 134.193 139.634 137.523 139.176C143.546 138.376 149.426 136.726 154.986 134.275C159.659 132.178 164.074 129.548 168.143 126.436L169.33 125.523L168.417 126.71L168.31 126.406L197.333 133.453Z" fill="#58595B"/>
<path d="M86.6572 82.4942L88.2848 78.8718C90.2999 80.2728 92.6913 81.0315 95.145 81.0483C97.9894 81.0483 99.1607 80.0894 99.1607 78.8109C99.1607 74.9145 86.9919 77.5933 86.9919 69.8613C86.9919 66.3302 89.8363 63.3926 95.7534 63.3926C98.2793 63.3404 100.772 63.977 102.963 65.2343L101.442 68.8872C99.7565 67.8871 97.8486 67.3222 95.8903 67.2434C93.0306 67.2434 91.9355 68.324 91.9355 69.633C91.9355 73.4685 104.104 70.8202 104.104 78.4608C104.104 81.9311 101.229 84.9143 95.2819 84.9143C92.2262 85.0184 89.2133 84.173 86.6572 82.4942Z" fill="#58595B"/>
<path d="M105.732 76.5585C105.732 71.7336 109.444 68.3242 114.524 68.3242C119.605 68.3242 123.271 71.7336 123.271 76.5585C123.271 81.3833 119.59 84.7927 114.509 84.7927C109.429 84.7927 105.732 81.3681 105.732 76.5585ZM118.586 76.5585C118.521 75.7649 118.226 75.0076 117.737 74.3792C117.248 73.7507 116.587 73.2785 115.835 73.0203C115.082 72.7621 114.27 72.7291 113.499 72.9254C112.728 73.1216 112.031 73.5386 111.493 74.1253C110.955 74.712 110.599 75.4429 110.47 76.2286C110.341 77.0142 110.444 77.8205 110.765 78.5487C111.087 79.277 111.614 79.8955 112.282 80.3287C112.949 80.7619 113.729 80.9909 114.524 80.9876C115.091 80.9946 115.653 80.8819 116.174 80.6568C116.694 80.4317 117.161 80.0994 117.544 79.6814C117.928 79.2634 118.219 78.7692 118.398 78.2311C118.577 77.6929 118.641 77.123 118.586 76.5585Z" fill="#58595B"/>
<path d="M136.291 68.324V72.6009C135.911 72.6009 135.607 72.6009 135.257 72.6009C134.667 72.5474 134.072 72.6277 133.518 72.8359C132.963 73.0441 132.462 73.3748 132.053 73.8034C131.644 74.232 131.336 74.7474 131.154 75.3113C130.971 75.8753 130.918 76.4731 130.998 77.0605V84.6707H126.435V68.5523H130.876V70.6679C131.526 69.8724 132.356 69.2444 133.299 68.8365C134.241 68.4287 135.267 68.2529 136.291 68.324Z" fill="#58595B"/>
<path d="M148.977 68.3244V72.6014C148.581 72.6014 148.292 72.6014 147.927 72.6014C145.372 72.6014 143.683 74.0017 143.683 77.061V84.6712H139.12V68.5528H143.547V70.6684C144.2 69.8736 145.034 69.2463 145.978 68.8386C146.923 68.431 147.951 68.2547 148.977 68.3244Z" fill="#58595B"/>
<path d="M168.158 68.5521L160.948 85.5381C159.427 89.3888 157.191 90.5608 154.316 90.5608C152.7 90.579 151.127 90.0417 149.859 89.0388L151.548 85.7359C152.275 86.3695 153.2 86.7301 154.164 86.7557C155.442 86.7557 156.157 86.1773 156.78 84.7618V84.6096L149.859 68.4912H154.636L159.199 79.3434L163.762 68.4912L168.158 68.5521Z" fill="#58595B"/>
<path d="M169.375 82.0838C169.428 81.363 169.751 80.6887 170.28 80.1966C170.809 79.7045 171.505 79.4309 172.227 79.4309C172.949 79.4309 173.645 79.7045 174.174 80.1966C174.703 80.6887 175.026 81.363 175.079 82.0838C175.026 82.8047 174.703 83.4789 174.174 83.9711C173.645 84.4632 172.949 84.7367 172.227 84.7367C171.505 84.7367 170.809 84.4632 170.28 83.9711C169.751 83.4789 169.428 82.8047 169.375 82.0838ZM169.466 63.8193H174.988L174.06 77.4112H170.425L169.466 63.8193Z" fill="#58595B"/>
<path d="M261.082 172.722L284.705 163.97L343.206 159.693L358.615 164.381L337.837 253.893L286.804 264.927L263.136 233.482L261.082 172.722Z" fill="#FFBE9D"/>
<path d="M393.631 176.39L355.497 162.844C355.497 162.844 319.736 214.03 261.082 172.661C261.082 172.661 235.36 181.915 231.527 184.046C227.694 186.177 249.415 251.214 249.415 251.214L246.86 332.08C280.324 349.355 333.867 342.932 380.473 335.124L379.135 245.323L393.631 176.39Z" fill="#8ACCA1"/>
<path d="M378.816 103.027C380.793 100.184 381.661 96.7139 381.256 93.2735C380.85 89.8331 379.199 86.6606 376.614 84.3556C374.03 82.0506 370.691 80.7728 367.229 80.7637C363.767 80.7546 360.421 82.0149 357.825 84.3063L350.219 97.8068C345.951 102.914 343.149 109.085 342.112 115.66C341.129 122.3 342.712 129.066 346.538 134.579C348.457 137.246 350.929 139.466 353.784 141.089C356.639 142.711 359.811 143.698 363.082 143.982C366.354 144.266 369.648 143.839 372.74 142.732C375.831 141.625 378.648 139.864 380.997 137.568C383.346 135.272 385.172 132.495 386.35 129.428C387.528 126.361 388.031 123.076 387.824 119.797C387.617 116.518 386.705 113.322 385.15 110.428C383.596 107.534 381.435 105.009 378.816 103.027Z" fill="#58595B"/>
<path d="M359.041 104.078C358.813 99.5117 358.327 94.9456 359.62 90.5164C360.262 88.9228 360.682 87.2479 360.867 85.5393C360.856 84.2955 360.464 83.0848 359.744 82.0704C359.025 81.056 358.012 80.2864 356.842 79.8653C355.673 79.4442 354.402 79.3918 353.202 79.715C352.001 80.0383 350.928 80.7217 350.128 81.6734L349.915 82.1756C347.283 84.3065 346.021 87.6702 344.987 90.8969C343.393 95.9261 342.093 101.044 341.093 106.224C340.388 109.111 340.218 112.103 340.591 115.052C340.789 116.521 341.333 117.923 342.176 119.142C343.019 120.362 344.139 121.364 345.443 122.068C349.58 123.986 354.691 121.338 356.958 117.396C359.224 113.454 359.315 108.614 359.041 104.078Z" fill="#8ACCA1"/>
<path d="M353.413 88.4309C352.546 83.2559 350.295 78.3854 349.504 73.2105C348.469 66.4069 350.006 59.5121 350.386 52.6324C350.766 45.7528 349.686 38.1883 344.651 33.5004C339.282 28.4929 331.205 28.2645 323.98 26.9556C315.766 25.4335 307.978 22.222 299.9 20.076C291.823 17.9299 283.077 16.9101 275.259 19.8477C268.185 22.496 262.649 28.0515 257.644 33.6982C249.522 42.8457 241.916 53.6826 241.916 65.9199C241.916 72.2668 244.152 78.4158 244.958 84.7171C245.734 90.8053 245.247 96.8934 246.662 102.982C248.076 109.07 252.092 114.854 258.085 115.949L323.827 122.525C328.141 122.644 332.428 121.805 336.379 120.068C340.33 118.331 343.847 115.738 346.677 112.478C349.506 109.217 351.578 105.369 352.743 101.211C353.908 97.0529 354.136 92.6881 353.413 88.4309Z" fill="#58595B"/>
<path d="M335.525 56.1636L335.357 48.112L286.682 40.8823C271.745 39.9082 256.26 55.4939 255.925 70.4708C255.56 87.1067 255.758 107.441 258.222 119.755C263.181 144.503 282.392 146.893 282.392 146.893V160.956C282.4 168.448 285.38 175.631 290.676 180.928C295.972 186.224 303.152 189.201 310.639 189.205C314.426 189.205 318.173 188.444 321.659 186.965C325.145 185.487 328.299 183.323 330.933 180.601C333.566 177.879 335.626 174.655 336.99 171.121C338.354 167.587 338.993 163.814 338.871 160.028L335.525 56.1636Z" fill="#FFBE9D"/>
<path d="M266.254 87.0608C266.297 87.8832 266.654 88.6577 267.251 89.2242C267.848 89.7908 268.64 90.106 269.463 90.1049C269.874 90.1234 270.285 90.0584 270.67 89.9137C271.055 89.7691 271.406 89.5478 271.704 89.2633C272.001 88.9787 272.237 88.6368 272.399 88.2583C272.56 87.8798 272.643 87.4724 272.643 87.0608C272.6 86.2384 272.243 85.464 271.645 84.8974C271.048 84.3309 270.256 84.0156 269.433 84.0168C269.022 83.9982 268.612 84.0633 268.227 84.2079C267.842 84.3526 267.49 84.5739 267.193 84.8584C266.896 85.143 266.659 85.4848 266.498 85.8634C266.336 86.2419 266.253 86.6493 266.254 87.0608Z" fill="#58595B"/>
<path d="M261.691 80.8355C262.101 81.2313 264.459 79.3135 267.882 79.2222C271.304 79.1308 273.966 80.7442 274.27 80.2724C274.438 80.0745 274.012 79.3439 272.871 78.5829C271.341 77.6171 269.552 77.1442 267.745 77.2283C265.96 77.2916 264.243 77.9265 262.847 79.0395C261.782 79.8919 261.463 80.6529 261.691 80.8355Z" fill="#58595B"/>
<path d="M298.76 85.9651C298.803 86.7875 299.16 87.562 299.757 88.1285C300.354 88.6951 301.146 89.0104 301.969 89.0092C302.38 89.0278 302.791 88.9627 303.176 88.818C303.561 88.6734 303.912 88.4521 304.21 88.1676C304.507 87.883 304.743 87.5411 304.904 87.1626C305.066 86.7841 305.149 86.3767 305.148 85.9651C305.106 85.1427 304.748 84.3683 304.151 83.8017C303.554 83.2352 302.762 82.9199 301.939 82.9211C301.528 82.9025 301.118 82.9676 300.733 83.1122C300.348 83.2569 299.996 83.4782 299.699 83.7627C299.402 84.0473 299.165 84.3891 299.004 84.7677C298.842 85.1462 298.759 85.5536 298.76 85.9651Z" fill="#58595B"/>
<path d="M295.459 80.1051C295.87 80.5008 298.213 78.583 301.65 78.4917C305.088 78.4004 307.735 80.0137 308.024 79.5419C308.206 79.344 307.78 78.6135 306.639 77.8525C305.11 76.8866 303.32 76.4138 301.513 76.4978C299.75 76.575 298.057 77.209 296.676 78.3091C295.581 79.131 295.262 79.9224 295.459 80.1051Z" fill="#58595B"/>
<path d="M284.02 106.102C282.189 105.61 280.303 105.35 278.407 105.325C277.525 105.325 276.689 105.127 276.506 104.534C276.405 103.632 276.574 102.721 276.993 101.916C277.738 99.7547 278.514 97.4868 279.32 95.1276C282.53 85.4627 284.827 77.6089 284.507 77.3959C284.188 77.1828 281.191 85.0061 277.982 94.671C277.206 97.0454 276.46 99.3133 275.761 101.49C275.22 102.579 275.085 103.826 275.38 105.006C275.523 105.312 275.734 105.582 275.998 105.793C276.262 106.004 276.571 106.152 276.902 106.223C277.4 106.338 277.911 106.389 278.423 106.376C280.293 106.523 282.174 106.431 284.02 106.102Z" fill="#58595B"/>
<path d="M282.454 146.954C294.456 146.655 306.148 143.082 316.268 136.619C316.268 136.619 308.313 154.473 282.454 153.225V146.954Z" fill="#A47449"/>
<path d="M285.816 114.336C286.428 113.48 287.251 112.797 288.205 112.354C289.16 111.911 290.213 111.723 291.261 111.809C292.025 111.841 292.773 112.029 293.461 112.362C294.149 112.694 294.762 113.164 295.262 113.742C295.74 114.298 296.037 114.986 296.114 115.715C296.19 116.444 296.041 117.179 295.688 117.821C295.16 118.46 294.455 118.927 293.661 119.163C292.867 119.399 292.021 119.393 291.231 119.146C289.588 118.64 288.063 117.812 286.744 116.71C286.342 116.445 285.992 116.11 285.709 115.721C285.587 115.53 285.522 115.308 285.522 115.082C285.522 114.855 285.587 114.633 285.709 114.442" fill="#A47449"/>
<path d="M311.309 69.8925C311.111 68.9184 307.643 68.8575 303.704 67.7921C299.764 66.7266 296.707 65.1589 296.098 65.9199C295.809 66.27 296.235 67.2289 297.406 68.3095C298.983 69.6654 300.847 70.6442 302.858 71.1716C304.869 71.699 306.974 71.7613 309.012 71.3536C310.549 70.9731 311.385 70.3491 311.309 69.8925Z" fill="#58595B"/>
<path d="M271.563 67.4114C270.483 67.0918 268.019 69.2683 264.642 71.0643C261.265 72.8603 258.101 73.8344 257.812 74.8998C257.706 75.4021 258.512 75.8587 260.109 75.8739C262.306 75.7912 264.45 75.1803 266.361 74.0931C268.297 73.0964 269.958 71.638 271.198 69.8466C272.034 68.4768 272.065 67.594 271.563 67.4114Z" fill="#58595B"/>
<path d="M326.444 32.4043L288.903 35.3571L257.797 46.0875C261.797 54.8088 262.558 61.9776 272.11 62.8299C276.899 63.2476 281.715 62.4301 286.098 60.4557C290.481 58.4813 294.285 55.4157 297.148 51.5516C298.76 58.6139 306.716 62.2059 313.88 63.2104C318.951 64.1298 324.176 63.6564 329 61.8406C333.7 59.8315 337.685 55.6002 338.324 50.5166C338.963 45.433 331.494 33.2414 326.444 32.4043Z" fill="#58595B"/>
<path d="M356.182 57.3662C354.09 53.4823 350.665 50.4872 346.538 48.9341L345.579 41.6436L317.758 50.4257C311.172 60.8669 314.184 76.0874 324.345 83.4084L324.467 88.6899C324.588 94.228 326.117 99.6441 328.908 104.428L337.731 123.651C344.21 123.803 345.686 116.787 348.257 111.049C350.827 105.311 350.858 98.8723 350.63 92.5711C350.518 89.527 350.361 86.4829 350.158 83.4388C352.135 80.0903 354.949 76.9701 356.607 73.4086C357.762 70.8786 358.323 68.1183 358.25 65.3381C358.176 62.5579 357.468 59.8313 356.182 57.3662Z" fill="#58595B"/>
<path d="M328.178 90.3026C328.558 90.1047 343.389 84.2144 344.286 99.8306C345.184 115.447 329.395 113.133 329.349 112.692C329.303 112.25 328.178 90.3026 328.178 90.3026Z" fill="#FFBE9D"/>
<path d="M333.745 106.528C333.745 106.528 334.034 106.71 334.506 106.893C335.166 107.127 335.892 107.094 336.529 106.802C338.141 106.102 339.373 103.408 339.267 100.592C339.23 99.2551 338.892 97.9441 338.278 96.7562C338.104 96.2782 337.817 95.8496 337.441 95.5076C337.064 95.1655 336.61 94.9202 336.118 94.7928C335.807 94.7378 335.487 94.7909 335.21 94.9431C334.934 95.0954 334.717 95.3377 334.597 95.6299C334.415 96.0865 334.521 96.391 334.445 96.4214C334.369 96.4518 334.095 96.1779 334.186 95.5234C334.248 95.1354 334.441 94.7806 334.734 94.5188C334.941 94.3386 335.183 94.2025 335.445 94.1188C335.706 94.035 335.982 94.0054 336.255 94.0318C336.913 94.1089 337.539 94.3556 338.072 94.7479C338.605 95.1401 339.028 95.6644 339.297 96.2692C340.04 97.5813 340.452 99.0543 340.499 100.561C340.59 103.712 339.16 106.741 336.94 107.517C336.532 107.668 336.095 107.723 335.662 107.678C335.23 107.633 334.813 107.489 334.445 107.258C333.791 106.878 333.7 106.528 333.745 106.528Z" fill="#A47449"/>
<path d="M354.554 55.5094C354.797 55.5094 354.949 56.2856 354.706 57.5489C354.288 59.3474 353.425 61.0119 352.196 62.389C350.342 64.5196 347.841 65.9843 345.077 66.5594C341.852 67.2443 338.628 66.5594 335.951 66.8486C334.532 67.0543 333.136 67.3958 331.783 67.8684C331.053 68.0814 330.262 68.2945 329.501 68.4619C328.74 68.6294 327.98 68.7511 327.25 68.8425C324.574 69.2574 321.837 69.0331 319.264 68.188C317.5 67.5966 315.925 66.5459 314.701 65.1439C313.879 64.1546 313.666 63.4544 313.849 63.287C314.305 62.8304 316.222 64.809 319.933 65.4635C322.156 65.7931 324.42 65.7053 326.611 65.2048C327.25 65.083 327.904 64.9308 328.558 64.7634C329.212 64.596 329.851 64.3677 330.551 64.1241C332.138 63.5291 333.785 63.1105 335.464 62.8761C339.175 62.5564 342.096 63.3174 344.408 62.8761C346.535 62.5579 348.534 61.6631 350.188 60.2886C353.185 57.9294 353.96 55.3572 354.554 55.5094Z" fill="white"/>
<path d="M297.634 112.449C297.725 112.89 294.683 113.818 291.306 115.614C287.93 117.41 285.435 119.389 285.115 119.054C284.796 118.719 286.926 116.132 290.561 114.214C294.197 112.296 297.573 112.038 297.634 112.449Z" fill="#58595B"/>
<path d="M300.357 114.823C300.144 114.717 300.525 113.636 300.205 112.342C299.886 111.049 299.14 110.212 299.277 110.044C299.414 109.877 300.631 110.562 300.981 112.16C301.331 113.758 300.525 114.96 300.357 114.823Z" fill="#A47449"/>
<path d="M307.582 89.6635C307.764 89.7548 307.019 91.1856 305.255 92.0379C303.49 92.8903 301.893 92.525 301.954 92.3119C302.015 92.0988 303.399 92.0684 304.92 91.3226C306.441 90.5768 307.399 89.5265 307.582 89.6635Z" fill="#A47449"/>
<path d="M309.027 90.866C309.21 90.9878 308.632 92.0076 307.4 92.6773C306.168 93.347 305.011 93.2861 304.996 93.073C304.981 92.8599 305.955 92.5707 307.019 91.9771C308.084 91.3835 308.845 90.729 309.027 90.866Z" fill="#A47449"/>
<path d="M266.421 94.1688C266.421 94.3819 265.57 94.5189 264.687 94.0623C263.805 93.6056 263.425 92.8446 263.592 92.7076C263.76 92.5707 264.322 92.9816 265.113 93.3469C265.904 93.7122 266.437 93.9405 266.421 94.1688Z" fill="#A47449"/>
<path d="M266.254 96.0103C266.254 96.2234 265.28 96.2386 264.246 95.7668C263.212 95.2949 262.588 94.5643 262.725 94.4121C262.862 94.2599 263.637 94.6252 264.565 95.0514C265.493 95.4776 266.33 95.8733 266.254 96.0103Z" fill="#A47449"/>
<path d="M288.386 65.5693C286.637 66.977 284.516 67.8446 282.282 68.0663C280.048 68.2879 277.798 67.854 275.807 66.8174C277.918 67.2063 280.066 67.3594 282.21 67.274C284.326 66.9366 286.397 66.3648 288.386 65.5693Z" fill="#A47449"/>
<path d="M289.861 67.168C289.528 67.7891 289.064 68.3308 288.502 68.7564C287.941 69.1819 287.294 69.4811 286.606 69.6337C285.958 69.9113 285.257 70.043 284.552 70.0193C283.848 69.9956 283.157 69.8172 282.529 69.4967C283.817 69.3587 285.097 69.1504 286.362 68.8727C288.401 68.2486 289.694 66.9549 289.861 67.168Z" fill="#A47449"/>
<path d="M262.618 57.5637C262.618 57.5637 262.466 57.4267 262.238 57.1223C261.901 56.6762 261.611 56.1968 261.371 55.6916C260.498 53.8219 260.076 51.7729 260.139 49.7099C260.139 44.4893 263.181 37.3662 269.266 32.176C272.087 29.7249 275.379 27.876 278.94 26.7423C281.836 25.8286 284.863 25.3967 287.899 25.4638C289.952 25.49 291.995 25.7608 293.984 26.2705C294.668 26.4531 295.201 26.6205 295.505 26.7575C295.809 26.8945 296.037 26.9706 296.022 27.0011C293.345 26.3925 290.613 26.061 287.869 26.0117C284.897 26.0317 281.946 26.5144 279.122 27.4425C275.679 28.5839 272.495 30.3942 269.752 32.7696C263.881 37.8228 260.839 44.6872 260.732 49.7251C260.622 51.72 260.949 53.7148 261.691 55.5698C262.208 56.8787 262.679 57.518 262.618 57.5637Z" fill="#B8BABC"/>
<path d="M318.732 63.1645C318.277 63.1348 317.831 63.032 317.409 62.8601C316.238 62.4607 315.107 61.951 314.032 61.3381C310.443 59.325 307.375 56.4999 305.073 53.0886C303.912 51.1197 303.166 48.9338 302.882 46.6656C302.615 44.847 302.508 43.0084 302.563 41.171C302.595 39.936 302.717 38.705 302.928 37.4877C302.968 37.0362 303.081 36.5942 303.262 36.1787C303.399 36.1787 303.08 38.0965 303.126 41.1862C303.143 42.9816 303.301 44.7729 303.597 46.5438C303.917 48.6915 304.645 50.7581 305.742 52.632C307.992 55.9486 310.915 58.7542 314.321 60.8662C316.937 62.4796 318.778 63.0428 318.732 63.1645Z" fill="#B8BABC"/>
<path d="M274.499 57.3507C274.261 56.8705 274.097 56.3575 274.012 55.8286C273.712 54.4286 273.574 52.9986 273.601 51.5669C273.622 46.7535 275.348 42.1036 278.473 38.4442C281.598 34.7849 285.919 32.3535 290.668 31.5825C292.078 31.331 293.513 31.2492 294.942 31.339C295.457 31.3433 295.969 31.4201 296.463 31.5673C294.541 31.6258 292.625 31.8139 290.729 32.1304C286.176 33.0283 282.059 35.4373 279.045 38.9674C276.03 42.4975 274.294 46.9422 274.118 51.5821C274.1 53.5118 274.227 55.4401 274.499 57.3507Z" fill="#B8BABC"/>
<path d="M324.893 27.9447C321.637 27.4836 318.328 27.5607 315.097 28.173C311.916 29.0234 308.899 30.3967 306.168 32.2368C306.756 31.435 307.501 30.7617 308.358 30.2582C312.365 27.5273 317.253 26.4078 322.048 27.1228C323.04 27.2107 324.006 27.4898 324.893 27.9447Z" fill="#B8BABC"/>
<path d="M379.804 103.347C379.013 104.169 375.028 101.49 369.582 99.9071C364.137 98.3242 359.36 98.2177 359.163 97.0913C359.087 96.5739 360.273 95.8585 362.403 95.478C365.192 95.0701 368.037 95.2828 370.734 96.101C373.432 96.9192 375.916 98.3227 378.009 100.212C379.561 101.703 380.154 102.966 379.804 103.347Z" fill="white"/>
<path d="M377.416 107.411C377.416 107.411 378.101 107.061 379.287 106.376C380.941 105.405 382.409 104.148 383.622 102.662C385.427 100.495 386.568 97.8525 386.908 95.052C387.255 91.5986 386.336 88.1366 384.322 85.3109C382.253 82.4872 379.204 80.5385 375.773 79.8468C372.991 79.2509 370.114 79.2509 367.331 79.8468C364.767 80.4669 362.251 81.2706 359.802 82.2516C360.386 81.8312 361.019 81.4836 361.688 81.2166C363.458 80.3782 365.315 79.7351 367.225 79.2989C370.078 78.6068 373.049 78.5549 375.925 79.1467C379.525 79.8297 382.736 81.8461 384.915 84.7934C386.871 87.485 387.846 90.7661 387.677 94.0898C387.508 97.4134 386.206 100.579 383.987 103.058C382.711 104.546 381.162 105.776 379.424 106.68C378.933 106.926 378.425 107.134 377.903 107.304C377.745 107.358 377.582 107.394 377.416 107.411Z" fill="#58595B"/>
<path d="M251.651 335.747C251.651 335.747 219.267 404.026 219.586 435.456C219.799 455.243 247.483 665.832 247.483 665.832H306.472L311.263 469.641L315.309 464.223L317.834 470.402C317.834 470.402 308.936 660.977 311.02 665.832H376.96C376.96 665.832 397.92 514.724 400.704 491.832C403.488 468.941 406.788 457.982 405.359 424.68C403.929 391.378 380.595 335.747 380.595 335.747C380.595 335.747 291.169 350.313 251.651 335.747Z" fill="#58595B"/>
<path d="M254.633 336.188L249.172 355.047L264.946 358.441L269.403 339.476L254.633 336.188Z" fill="#B8BABC"/>
<path d="M275.381 340.267L272.187 358.441C284.546 359.706 296.971 360.215 309.393 359.963C327.905 359.46 345.99 357.908 354.098 355.077L351.74 338.867C351.74 338.867 290.592 344.484 275.381 340.267Z" fill="#B8BABC"/>
<path d="M359.635 337.955L363.544 353.936C363.544 353.936 376.169 352.551 381.371 349.507L377.021 335.154L359.635 337.955Z" fill="#B8BABC"/>
<path d="M275.38 663.2C275.228 658.847 273.068 596.139 270.254 514.253C268.946 473.158 268.018 435.837 267.744 408.867C267.744 402.124 267.744 396.021 267.668 390.602C267.592 385.184 267.759 380.648 267.79 376.904C267.82 373.16 267.988 370.237 268.048 368.228C268.048 367.254 268.048 366.508 268.124 365.96C268.2 365.412 268.124 365.199 268.124 365.199C268.124 365.199 268.124 365.458 268.124 365.975C268.124 366.493 268.124 367.254 268.124 368.228C268.124 370.252 268.124 373.16 268.018 376.904C267.911 380.648 268.018 385.305 268.018 390.602C268.018 395.899 268.124 402.063 268.2 408.867C268.611 435.822 269.63 473.082 270.938 514.222C272.247 555.363 273.448 592.562 274.315 619.548C274.726 633.033 275 643.9 275.152 651.511C275.152 655.255 275.243 658.162 275.274 660.186C275.274 661.16 275.274 661.906 275.274 662.454C275.274 663.002 275.38 663.2 275.38 663.2Z" fill="#B8BABC"/>
<path d="M313.743 361.181C313.801 361.476 313.827 361.777 313.819 362.079C313.819 362.748 313.819 363.601 313.819 364.636C313.819 366.949 313.819 370.13 313.925 374.011C314.002 381.941 314.169 392.885 314.503 404.97C314.838 417.055 315.325 427.998 315.69 435.913C315.872 439.794 316.009 442.975 316.116 445.289C316.116 446.303 316.146 447.156 316.207 447.846C316.249 448.144 316.249 448.446 316.207 448.744C316.143 448.453 316.097 448.158 316.07 447.861L315.842 445.304C315.644 443.097 315.416 439.901 315.158 435.943C314.656 428.029 314.093 417.085 313.743 405C313.393 392.915 313.408 382.017 313.408 374.011C313.408 370.054 313.484 366.843 313.545 364.62L313.636 362.079C313.632 361.776 313.668 361.474 313.743 361.181Z" fill="#B8BABC"/>
<path d="M316.238 448.744C315.905 448.705 315.575 448.65 315.249 448.577L312.435 448.029C308.961 447.356 305.528 446.487 302.152 445.426C301.006 445.061 299.912 444.549 298.897 443.904C298.593 443.7 298.351 443.415 298.197 443.082C298.091 442.763 298 442.458 297.908 442.154C297.752 441.512 297.635 440.862 297.558 440.206C297.254 437.542 297.422 434.741 297.391 431.789C297.391 425.868 297.467 419.384 297.513 412.581C297.65 398.989 297.787 386.706 297.878 377.68C297.969 373.281 298.045 369.689 298.091 367.102C298.091 365.915 298.121 364.956 298.182 364.225C298.174 363.888 298.205 363.551 298.273 363.221C298.306 363.555 298.306 363.891 298.273 364.225C298.273 364.956 298.273 365.915 298.273 367.102C298.273 369.689 298.273 373.281 298.273 377.68C298.273 386.691 298.182 398.989 298.136 412.581C298.136 419.399 298.015 425.883 297.954 431.789C297.954 434.741 297.787 437.557 298.045 440.129C298.112 440.76 298.219 441.385 298.365 442.002C298.441 442.291 298.517 442.595 298.608 442.869C298.726 443.087 298.892 443.275 299.095 443.417C300.043 444.026 301.066 444.512 302.137 444.863C306.32 446.309 309.864 447.07 312.283 447.694L315.066 448.394C315.475 448.439 315.872 448.557 316.238 448.744Z" fill="#B8BABC"/>
<path d="M349.139 663.2C349.139 663.2 349.139 662.941 349.139 662.423C349.139 661.906 349.215 661.099 349.276 660.11C349.397 658.055 349.595 655.072 349.823 651.252C350.386 643.535 351.177 632.424 352.166 618.695C354.174 591.222 356.972 553.247 359.208 511.269C361.444 469.292 362.251 431.195 361.353 403.661C361.216 400.221 361.064 396.949 360.927 393.859C360.79 390.769 360.699 387.771 360.425 385.107C359.939 379.658 359.68 374.955 359.193 371.135C358.706 367.315 358.265 364.392 357.976 362.353C357.855 361.364 357.748 360.603 357.687 360.055C357.626 359.507 357.611 359.278 357.611 359.278C357.611 359.278 357.611 359.537 357.763 360.055C357.915 360.572 357.976 361.348 358.144 362.322C358.448 364.362 358.919 367.315 359.497 371.089C360.075 374.864 360.334 379.628 360.866 385.077C361.171 387.801 361.292 390.724 361.444 393.829C361.597 396.934 361.749 400.206 361.916 403.646C363.011 431.21 362.114 469.307 359.999 511.315C357.885 553.324 354.873 591.268 352.713 618.741C351.633 632.439 350.751 643.565 350.143 651.282C349.838 655.087 349.595 658.07 349.428 660.125C349.336 661.115 349.276 661.876 349.23 662.423C349.184 662.971 349.139 663.2 349.139 663.2Z" fill="#B8BABC"/>
<path d="M310.533 360.602V364.133L330.977 363.342C331.625 363.318 332.239 363.043 332.687 362.574C333.136 362.105 333.384 361.48 333.38 360.831V341.942C333.38 341.276 333.116 340.637 332.645 340.166C332.174 339.695 331.536 339.431 330.87 339.431H309.164V342.262L329.745 343.327V350.192H328.36C328.216 350.187 328.072 350.212 327.938 350.265C327.803 350.317 327.68 350.396 327.577 350.497C327.473 350.598 327.391 350.718 327.335 350.851C327.279 350.985 327.25 351.128 327.25 351.272C327.254 351.551 327.365 351.817 327.561 352.016C327.756 352.215 328.021 352.33 328.299 352.338H329.821V359.187L310.533 360.602Z" fill="#DEDEDE"/>
<path d="M298.699 340.709H292.919V360.496H298.699V340.709Z" fill="#58595B"/>
<path d="M327.935 353.525C327.859 353.602 327.539 353.525 327.205 352.993C326.788 352.386 326.584 351.658 326.627 350.923C326.664 350.187 326.966 349.489 327.478 348.959C327.859 348.548 328.193 348.442 328.254 348.518C328.315 348.594 327.509 349.583 327.418 350.984C327.326 352.384 328.102 353.388 327.935 353.525Z" fill="#58595B"/>
<path d="M311.507 349.507C311.507 349.507 311.614 349.385 311.842 349.4C311.998 349.427 312.146 349.489 312.275 349.581C312.405 349.673 312.511 349.794 312.587 349.933C312.713 350.142 312.788 350.378 312.804 350.622C312.819 350.866 312.776 351.11 312.678 351.333C312.535 351.609 312.316 351.838 312.046 351.992C311.776 352.146 311.467 352.218 311.157 352.201C310.843 352.16 310.55 352.022 310.319 351.807C310.087 351.591 309.928 351.309 309.864 350.999C309.822 350.757 309.845 350.508 309.931 350.278C310.016 350.048 310.161 349.845 310.351 349.69C311.005 349.187 311.537 349.431 311.492 349.507C311.446 349.583 311.066 349.659 310.746 350.085C310.655 350.187 310.592 350.31 310.563 350.444C310.533 350.577 310.539 350.716 310.579 350.846C310.616 350.991 310.695 351.122 310.806 351.222C310.917 351.322 311.055 351.387 311.203 351.41C311.364 351.411 311.523 351.373 311.666 351.299C311.81 351.224 311.932 351.116 312.024 350.983C312.077 350.858 312.104 350.724 312.104 350.588C312.104 350.452 312.077 350.317 312.024 350.192C311.887 349.674 311.522 349.614 311.507 349.507Z" fill="#58595B"/>
<path d="M368.533 353.525C368.923 352.499 369.434 351.523 370.054 350.617C370.617 349.659 371.21 348.639 371.849 347.573L372.929 345.777C373.331 345.192 373.687 344.576 373.994 343.936C374.083 343.635 374.102 343.319 374.049 343.01C373.997 342.701 373.874 342.408 373.69 342.155C373.239 341.683 372.728 341.273 372.168 340.937L369.294 338.883C368.374 338.294 367.527 337.599 366.769 336.812C367.78 337.223 368.736 337.76 369.613 338.411L372.579 340.344L373.431 340.907C373.771 341.114 374.07 341.382 374.313 341.698C374.57 342.051 374.741 342.459 374.815 342.889C374.889 343.319 374.863 343.761 374.739 344.179C374.597 344.569 374.403 344.938 374.161 345.275L373.568 346.204L372.442 347.969L370.51 350.907C369.962 351.858 369.298 352.737 368.533 353.525Z" fill="#58595B"/>
<path d="M403.153 399.597C402.992 399.721 402.812 399.819 402.62 399.887C402.077 400.114 401.511 400.282 400.932 400.389C398.775 400.674 396.58 400.402 394.558 399.597C391.596 398.418 388.787 396.885 386.192 395.031C375.214 387.701 366.888 377.027 362.448 364.59C362.167 363.859 361.948 363.106 361.794 362.338C362.181 363.019 362.497 363.738 362.737 364.484C363.315 365.884 364.258 367.863 365.414 370.268C368.639 376.483 372.805 382.161 377.766 387.101C380.493 389.808 383.45 392.273 386.603 394.468C389.141 396.292 391.876 397.824 394.756 399.034C396.674 399.854 398.76 400.203 400.841 400.054C402.377 399.887 403.153 399.521 403.153 399.597Z" fill="#B8BABC"/>
<path d="M254.724 368.761C254.04 370.171 253.198 371.499 252.214 372.718C247.768 378.815 242.4 384.181 236.303 388.623C235.085 389.602 233.764 390.444 232.363 391.135C233.5 390.074 234.704 389.088 235.968 388.182C241.818 383.526 247.12 378.221 251.773 372.368C252.683 371.107 253.668 369.903 254.724 368.761Z" fill="#B8BABC"/>
<path d="M307.795 215.917L306.73 165.096C306.213 158.567 300.57 159.784 300.57 159.784C300.57 159.784 300.205 177.805 298.699 187.927C297.193 198.048 291.747 209.235 291.565 211.503C291.382 213.771 290.683 233.04 290.044 239.22C289.194 244.436 287.897 249.569 286.165 254.562L300.631 265.688L305.027 259.508C305.027 259.508 309.97 255.977 311.111 251.563C312.252 247.149 307.795 215.917 307.795 215.917Z" fill="#FFBE9D"/>
<path d="M307.796 215.917C307.796 215.917 307.872 216.191 307.963 216.739L308.328 219.128C308.647 221.229 309.089 224.319 309.606 228.261C310.123 232.203 310.731 237.073 311.203 242.69C311.34 244.105 311.431 245.551 311.507 247.058C311.507 247.819 311.583 248.58 311.507 249.356C311.523 250.165 311.441 250.972 311.264 251.761C310.759 253.362 309.942 254.846 308.86 256.129C307.759 257.474 306.503 258.685 305.118 259.736V259.66L300.738 265.855L300.525 266.129L300.251 265.916L285.77 254.82L285.572 254.668V254.409C287.914 248.048 289.337 241.386 289.801 234.623C290.272 227.545 290.561 220.224 290.927 212.721C290.927 212.081 290.993 211.444 291.124 210.818C291.292 210.194 291.489 209.616 291.687 209.022L292.95 205.597C293.801 203.33 294.623 201.031 295.368 198.84C296.861 194.461 297.881 189.935 298.41 185.339C299.414 176.344 299.734 167.729 299.931 159.814V159.525H300.205C301.38 159.312 302.591 159.45 303.689 159.921C304.761 160.41 305.616 161.277 306.092 162.356C306.541 163.373 306.774 164.472 306.776 165.583C306.776 166.633 306.776 167.668 306.776 168.703C306.776 172.797 306.929 176.694 306.989 180.362C307.111 187.683 307.218 194.06 307.309 199.372C307.4 204.684 307.431 208.763 307.461 211.64C307.461 213.025 307.461 214.106 307.461 214.882C307.461 215.217 307.461 215.491 307.461 215.719C307.461 215.947 307.461 215.993 307.461 215.993C307.461 215.993 307.461 215.902 307.461 215.719C307.461 215.536 307.461 215.232 307.461 214.897C307.461 214.121 307.461 213.04 307.339 211.655C307.248 208.778 307.142 204.639 306.989 199.403C306.837 194.167 306.685 187.713 306.503 180.392C306.503 176.724 306.335 172.782 306.229 168.734C306.107 166.694 306.411 164.487 305.514 162.645C305.112 161.705 304.366 160.954 303.43 160.545C302.47 160.14 301.413 160.023 300.388 160.21L300.662 159.875C300.464 167.82 300.175 176.42 299.141 185.476C298.593 190.14 297.548 194.733 296.022 199.174C295.277 201.442 294.501 203.741 293.604 205.963L292.341 209.387C292.143 209.95 291.946 210.529 291.809 211.092C291.683 211.667 291.622 212.254 291.626 212.842C291.261 220.346 290.972 227.682 290.485 234.76C290.018 241.613 288.568 248.364 286.181 254.805L286.059 254.394L300.494 265.535L300.023 265.612L304.434 259.447C307.147 257.571 309.231 254.919 310.412 251.837C310.573 251.092 310.649 250.331 310.64 249.569C310.64 248.808 310.64 248.047 310.64 247.301C310.64 245.779 310.488 244.364 310.381 242.964C309.94 237.362 309.378 232.507 308.936 228.535C308.495 224.562 308.085 221.503 307.826 219.402C307.704 218.367 307.613 217.576 307.537 216.998C307.461 216.419 307.796 215.917 307.796 215.917Z" fill="#A47449"/>
<path d="M306.792 169.617C306.396 169.036 305.969 168.477 305.514 167.942C304.946 167.381 304.288 166.918 303.567 166.573C303.147 166.336 302.662 166.242 302.185 166.305C301.708 166.368 301.264 166.585 300.92 166.923L300.996 166.679C301.194 168.201 301.498 170.028 301.65 171.976C301.802 173.924 301.848 176.009 301.787 178.186C301.598 182.79 301.034 187.372 300.099 191.884C299.749 193.604 299.445 194.928 299.217 195.948C299.148 196.475 299 196.988 298.775 197.47C298.921 195.58 299.175 193.7 299.536 191.839C300.326 187.354 300.834 182.825 301.057 178.277C301.057 176.131 301.057 174.076 300.951 172.189C300.844 170.302 300.57 168.506 300.418 166.923V166.786L300.494 166.679C300.712 166.433 300.978 166.235 301.277 166.099C301.576 165.963 301.9 165.891 302.228 165.888C302.79 165.885 303.344 166.021 303.841 166.283C304.598 166.656 305.274 167.173 305.833 167.805C306.183 168.221 306.475 168.682 306.7 169.175C306.776 169.419 306.822 169.617 306.792 169.617Z" fill="#A47449"/>
<path d="M307.202 189.342C307.03 188.559 306.908 187.766 306.837 186.968C306.725 186.08 306.418 185.227 305.939 184.471C305.191 183.607 304.14 183.063 303.004 182.949L303.414 182.645C303.323 185.537 303.14 189.007 302.775 192.706C302.273 197.896 301.528 202.584 300.889 205.947C300.555 207.622 300.25 208.991 300.022 209.905C299.945 210.401 299.797 210.883 299.581 211.335C299.733 209.492 299.982 207.658 300.326 205.841C300.844 202.477 301.498 197.804 301.984 192.63C302.349 188.946 302.578 185.491 302.745 182.614V182.219L303.14 182.295C304.425 182.479 305.587 183.156 306.38 184.182C306.862 185.021 307.148 185.957 307.217 186.922C307.341 187.724 307.336 188.541 307.202 189.342Z" fill="#A47449"/>
<path d="M299.718 216.815C299.582 216.983 298.73 216.343 298.623 215.141C298.517 213.939 299.217 213.132 299.384 213.284C299.551 213.436 299.308 214.152 299.384 215.065C299.46 215.978 299.84 216.663 299.718 216.815Z" fill="#A47449"/>
<path d="M297.391 204.274C297.194 204.35 296.615 203.208 296.722 201.656C296.828 200.103 297.559 199.053 297.741 199.16C297.924 199.266 297.589 200.347 297.513 201.717C297.437 203.087 297.604 204.198 297.391 204.274Z" fill="#A47449"/>
<path d="M328.361 244.76C327.22 238.672 325.166 219.509 324.832 217.226C324.497 214.943 318.291 204.198 316.07 194.213C313.849 184.228 312.222 166.268 312.222 166.268C312.222 166.268 306.517 165.446 306.441 172.006L308.951 222.767C308.951 222.767 306.7 254.242 308.175 258.565C309.651 262.888 314.838 266.053 314.838 266.053L319.66 271.898L333.35 259.722C331.267 254.885 329.598 249.88 328.361 244.76Z" fill="#FFBE9D"/>
<path d="M328.36 244.759C328.36 244.759 328.36 244.835 328.36 245.003C328.36 245.17 328.467 245.459 328.543 245.764C328.725 246.449 328.969 247.438 329.364 248.808C330.526 252.537 331.876 256.205 333.41 259.797V259.919L333.304 260.025L319.72 272.202L319.492 272.4L319.31 272.171L314.457 266.342H314.534C313.107 265.419 311.79 264.337 310.609 263.115C309.317 261.825 308.325 260.266 307.704 258.549C307.345 256.725 307.182 254.868 307.217 253.009C307.217 251.137 307.217 249.234 307.217 247.301C307.384 239.569 307.841 231.335 308.419 222.705C307.993 214.273 307.552 205.338 307.095 196.176C306.806 190.27 306.517 184.486 306.244 178.87C306.244 177.455 306.107 176.07 306.031 174.685C305.901 173.292 305.901 171.891 306.031 170.499C306.108 169.776 306.33 169.077 306.683 168.441C307.035 167.806 307.512 167.248 308.084 166.8C309.266 165.984 310.704 165.627 312.13 165.796H312.419V166.115C312.967 171.93 313.59 177.546 314.336 182.858C314.925 187.959 315.906 193.007 317.272 197.957C318.677 202.299 320.354 206.549 322.291 210.681C323.158 212.644 324.056 214.471 324.725 216.358C324.954 217.313 325.102 218.285 325.166 219.265C325.273 220.194 325.379 221.107 325.485 221.99C326.276 229.113 326.915 234.76 327.402 238.641C327.645 240.528 327.843 242.02 327.98 243.07L328.147 244.211C328.165 244.343 328.165 244.476 328.147 244.607C328.099 244.484 328.063 244.357 328.041 244.227C328.041 243.937 327.919 243.557 327.828 243.085C327.645 242.081 327.402 240.604 327.113 238.671C326.55 234.805 325.835 229.158 324.984 222.05C324.877 221.168 324.755 220.254 324.649 219.326C324.566 218.383 324.419 217.448 324.208 216.525C323.554 214.714 322.611 212.857 321.744 210.924C319.766 206.776 318.054 202.505 316.617 198.139C315.218 193.151 314.201 188.062 313.575 182.919C312.835 177.541 312.186 171.96 311.628 166.176L311.948 166.511C310.72 166.378 309.486 166.685 308.464 167.379C307.974 167.771 307.566 168.256 307.266 168.808C306.966 169.359 306.778 169.965 306.715 170.59C306.587 171.937 306.587 173.292 306.715 174.639C306.715 176.009 306.852 177.409 306.913 178.809C307.202 184.441 307.491 190.225 307.78 196.115C308.236 205.247 308.662 214.197 309.088 222.629C308.495 231.228 308.023 239.478 307.825 247.179C307.825 249.112 307.749 251 307.825 252.857C307.79 254.653 307.937 256.448 308.267 258.214C308.854 259.816 309.783 261.27 310.989 262.476C312.131 263.664 313.401 264.721 314.777 265.627L319.599 271.486H319.188L332.878 259.447V259.675C331.373 256.059 330.078 252.36 328.999 248.595C328.634 247.286 328.406 246.281 328.284 245.551L328.147 244.775C328.36 244.851 328.345 244.759 328.36 244.759Z" fill="#A47449"/>
<path d="M306.67 176.634C306.804 176.142 307.014 175.675 307.294 175.248C307.568 174.711 307.894 174.201 308.267 173.726C308.758 173.035 309.473 172.535 310.29 172.311C310.832 172.233 311.384 172.341 311.857 172.617C312.329 172.894 312.694 173.322 312.891 173.833C313.166 174.927 313.253 176.059 313.15 177.181C313.15 179.465 313.272 181.976 313.515 184.594C313.972 189.068 314.673 193.514 315.614 197.912C316.082 199.725 316.443 201.565 316.694 203.421C316.462 202.972 316.283 202.497 316.162 202.006C315.888 201.078 315.492 199.723 315.066 198.049C313.957 193.653 313.174 189.181 312.724 184.67C312.493 182.181 312.391 179.681 312.42 177.181C312.535 176.166 312.489 175.138 312.283 174.137C312.147 173.755 311.888 173.428 311.547 173.208C311.206 172.987 310.801 172.886 310.397 172.92C309.692 173.099 309.067 173.505 308.617 174.077C308.228 174.505 307.872 174.963 307.552 175.446C307.303 175.874 307.007 176.272 306.67 176.634Z" fill="#A47449"/>
<path d="M307.674 196.967C307.594 196.748 307.553 196.516 307.552 196.282C307.504 195.634 307.504 194.983 307.552 194.334C307.602 193.309 307.845 192.302 308.267 191.366C308.556 190.735 308.978 190.174 309.502 189.719C310.027 189.265 310.643 188.929 311.309 188.733L311.689 188.611V189.022C312.039 191.808 312.48 195.11 313.074 198.626C313.941 203.847 314.929 208.55 315.69 211.929C316.173 213.744 316.559 215.583 316.846 217.439C316.596 216.996 316.411 216.519 316.298 216.023C315.994 215.095 315.599 213.755 315.142 212.066C314.245 208.702 313.165 204.014 312.298 198.763C311.705 195.232 311.294 191.914 311.005 189.098L311.446 189.388C310.861 189.545 310.316 189.824 309.847 190.207C309.377 190.59 308.995 191.068 308.723 191.61C308.294 192.48 308.016 193.416 307.902 194.38C307.719 196.008 307.78 196.967 307.674 196.967Z" fill="#A47449"/>
<path d="M317.181 222.934C316.998 222.797 317.348 222.082 317.348 221.169C317.348 220.255 317.074 219.525 317.257 219.388C317.439 219.251 318.169 219.966 318.139 221.184C318.109 222.401 317.318 223.102 317.181 222.934Z" fill="#A47449"/>
<path d="M318.565 210.27C318.337 210.27 318.459 209.068 318.261 207.713C318.063 206.359 317.668 205.293 317.865 205.187C318.063 205.08 318.839 206.069 319.052 207.607C319.265 209.144 318.763 210.331 318.565 210.27Z" fill="#A47449"/>
<g opacity="0.3">
<path opacity="0.3" d="M324.801 271.426C321.987 268.169 318.428 264.897 314.153 264.927C310.336 264.927 307.08 267.591 304.373 270.269C295.659 279.209 288.525 289.564 283.275 300.893C277.814 312.08 271.198 325.535 267.045 337.27C276.172 335.352 284.264 329.659 290.424 322.612C296.585 315.565 301.072 307.179 304.981 298.701C306.35 295.779 308.312 292.385 311.537 292.308C313.91 292.308 315.857 294.15 317.348 296.007C321.622 301.41 324.497 307.772 327.509 313.967C330.521 320.162 333.806 326.372 338.704 331.227C343.602 336.082 350.401 339.446 357.246 338.685C349.428 314.865 341.229 290.36 324.801 271.426Z" fill="black"/>
</g>
<path d="M231.527 184.152C231.527 184.152 211.586 196.724 210.992 221.488C210.399 246.252 211.875 312.263 216.301 321.106C220.727 329.949 223.906 361.775 252.534 348.502C268.581 341.06 285.998 316.905 297.406 296.631C302.754 287.167 307.391 277.317 311.279 267.165L284.34 249.783L250.465 289.858L249.415 251.32L231.527 184.152Z" fill="#8ACCA1"/>
<path d="M250.465 289.812C250.465 289.949 249.248 290.025 247.422 290.543C245.004 291.249 242.743 292.411 240.76 293.967C238.781 295.552 236.976 297.342 235.375 299.31C234.754 300.172 234.062 300.982 233.307 301.73C233.698 300.73 234.247 299.8 234.934 298.975C236.434 296.851 238.232 294.954 240.273 293.343C242.324 291.709 244.724 290.568 247.286 290.01C248.321 289.727 249.403 289.659 250.465 289.812Z" fill="#58595B"/>
<path d="M250.298 289.508C247.647 289.436 244.994 289.542 242.357 289.828C239.78 290.382 237.239 291.099 234.752 291.974C236.958 290.359 239.549 289.352 242.266 289.051C244.937 288.49 247.708 288.648 250.298 289.508Z" fill="#58595B"/>
<path d="M311.279 267.118C311.236 267.4 311.159 267.676 311.051 267.94L310.229 270.238C309.514 272.232 308.374 275.063 306.883 278.549C302.924 287.583 298.287 296.304 293.01 304.637C287.713 312.955 281.864 320.907 275.502 328.441C273.069 331.333 271.046 333.631 269.601 335.169L267.927 336.949C267.739 337.162 267.53 337.356 267.304 337.528C267.443 337.28 267.612 337.051 267.806 336.843L269.327 334.971C270.696 333.357 272.643 331.013 275.031 328.091C281.244 320.473 287.008 312.499 292.295 304.21C297.547 295.911 302.232 287.267 306.32 278.336C307.841 274.896 309.104 272.095 309.895 270.132C310.29 269.234 310.594 268.488 310.853 267.894C310.96 267.618 311.104 267.357 311.279 267.118Z" fill="#58595B"/>
<path d="M249.415 251.274C249.437 251.517 249.437 251.761 249.415 252.004C249.415 252.552 249.491 253.252 249.537 254.12C249.613 256.038 249.719 258.686 249.856 262.065C250.085 268.945 250.389 278.549 250.754 289.797L250.115 289.568L264.93 271.989L283.99 249.508L284.188 249.265L284.446 249.432L303.886 262.156L309.316 265.779L310.731 266.753C310.902 266.855 311.061 266.978 311.202 267.118C311.019 267.05 310.845 266.958 310.685 266.844L309.164 265.961L303.627 262.491L284.051 250.026L284.492 249.95L265.508 272.506L250.647 290.055L250.008 290.786V289.827C249.765 278.564 249.552 268.96 249.4 262.08C249.4 258.732 249.309 255.992 249.278 254.12V252.004C249.304 251.758 249.35 251.513 249.415 251.274Z" fill="#58595B"/>
<path d="M393.631 176.39C393.631 176.39 410.485 184.928 411.23 224.578C411.975 264.227 414.926 311.258 411.23 319.416C408.431 325.504 401.86 344.149 389.935 350.511C386.345 352.414 383.622 352.505 378.724 351.79C362.448 349.415 341.092 330.375 324.862 299.112C312.511 275.322 311.75 264.303 311.75 264.303L334.414 241.472L378.663 296.372L379.485 243.74L393.631 176.39Z" fill="#8ACCA1"/>
<path d="M379.135 245.323C379.135 245.323 379.135 245.627 379.135 246.236C379.135 246.845 379.135 247.758 379.135 248.9C379.135 251.274 379.135 254.699 379.135 259.098C379.135 267.986 379.013 280.741 378.922 296.372V297.209L378.404 296.555L334.079 241.761H334.658L317.134 259.432L311.993 264.607L312.1 264.242C316.277 281.902 323.733 298.62 334.079 313.526C342.292 325.765 352.553 336.495 364.41 345.245C366.781 347.027 369.329 348.557 372.016 349.811C373.251 350.367 374.534 350.81 375.849 351.135C377.1 351.399 378.364 351.592 379.637 351.714C383.843 352.225 388.104 351.388 391.805 349.324C394.077 347.918 396.038 346.064 397.57 343.875C398.103 343.145 398.498 342.551 398.742 342.155C398.985 341.76 399.152 341.577 399.152 341.577C398.696 342.405 398.188 343.203 397.631 343.967C396.142 346.221 394.193 348.135 391.912 349.583C388.162 351.732 383.824 352.628 379.53 352.14C378.298 351.988 377.005 351.881 375.682 351.592C374.335 351.269 373.021 350.821 371.757 350.253C369.037 349.009 366.456 347.478 364.06 345.686C352.096 336.96 341.74 326.216 333.456 313.937C323.018 298.956 315.504 282.137 311.309 264.364V264.151L311.461 263.998L316.602 258.808L334.14 241.153L334.445 240.833L334.718 241.183C351.451 262.005 366.662 280.893 378.83 296.144L378.298 296.327C378.511 280.695 378.663 267.956 378.785 259.067C378.861 254.668 378.922 251.244 378.967 248.869C378.967 247.713 378.967 246.83 378.967 246.206C379.007 245.909 379.063 245.614 379.135 245.323Z" fill="#58595B"/>
<path d="M396.734 316.813C395.9 315.776 395.137 314.682 394.453 313.54C392.645 310.905 390.663 308.393 388.52 306.022C386.364 303.665 384.084 301.425 381.691 299.309C380.638 298.485 379.656 297.574 378.755 296.585C379.937 297.219 381.04 297.99 382.04 298.883C384.577 300.886 386.942 303.095 389.114 305.489C391.288 307.884 393.234 310.478 394.924 313.236C395.687 314.341 396.296 315.544 396.734 316.813Z" fill="#58595B"/>
<path d="M391.821 184.335C391.927 184.426 390.604 186.055 388.779 188.901C383.959 196.296 380.809 204.653 379.546 213.391C379.059 216.739 378.968 218.84 378.831 218.84C378.742 218.338 378.716 217.826 378.755 217.318C378.758 215.97 378.84 214.623 378.998 213.284C379.961 204.382 383.169 195.871 388.322 188.551C389.09 187.446 389.918 186.384 390.802 185.37C391.094 184.981 391.437 184.633 391.821 184.335Z" fill="#58595B"/>
<path d="M245.704 224.943C245.582 224.943 245.308 222.919 244.7 219.647C243.926 215.386 242.91 211.174 241.658 207.029C240.386 202.893 238.893 198.828 237.186 194.852C236.396 193.236 235.691 191.58 235.071 189.891C235.388 190.26 235.654 190.669 235.862 191.108C236.334 191.915 236.957 193.117 237.688 194.624C239.57 198.558 241.151 202.628 242.418 206.801C243.68 210.976 244.631 215.239 245.263 219.555C245.491 221.214 245.628 222.599 245.689 223.482C245.767 223.966 245.772 224.458 245.704 224.943Z" fill="#58595B"/>
<g opacity="0.3">
<path opacity="0.3" d="M398.94 316.707C398.218 313.499 396.549 310.582 394.148 308.336C389.692 303.556 384.449 299.577 378.648 296.57C385.842 302.332 392.036 309.244 396.978 317.027C397.358 317.635 398.103 318.32 398.666 317.879C398.809 317.724 398.91 317.535 398.958 317.329C399.006 317.124 399 316.909 398.94 316.707Z" fill="black"/>
</g>
<g opacity="0.3">
<path opacity="0.3" d="M250.176 289.767C245.52 289.06 240.762 289.94 236.666 292.264C232.57 294.588 229.373 298.222 227.588 302.582C227.22 303.373 227.033 304.237 227.04 305.109C227.055 305.543 227.189 305.964 227.428 306.327C227.667 306.69 228.001 306.979 228.394 307.164C228.873 307.304 229.382 307.294 229.855 307.136C230.328 306.979 230.742 306.68 231.041 306.281C231.636 305.483 232.098 304.594 232.41 303.648C234.022 299.881 236.608 296.613 239.902 294.178C243.195 291.744 247.078 290.232 251.15 289.797L250.176 289.767Z" fill="black"/>
</g>
<path d="M638.924 665.27C638.924 665.483 495.94 665.665 319.492 665.665C143.044 665.665 0.0605469 665.483 0.0605469 665.27C0.0605469 665.057 143.044 664.874 319.568 664.874C496.092 664.874 638.924 665.118 638.924 665.27Z" fill="#58595B"/>
</g>
<defs>
<clipPath id="clip0_1366_8076">
<rect width="639" height="666" fill="white"/>
</clipPath>
</defs>
</svg>
