<svg width="320" height="98" viewBox="0 0 320 98" fill="none" xmlns="http://www.w3.org/2000/svg">
<path d="M0 97.2152V0H1.50394C14.4859 0 26.9362 5.12041 36.1158 14.2348C45.2955 23.3492 50.4525 35.7109 50.4525 48.6006C50.4525 61.4903 45.2955 73.852 36.1158 82.9664C26.9362 92.0808 14.4859 97.2012 1.50394 97.2012L0 97.2152ZM2.99022 3.00753V94.2077C14.8751 93.7687 26.1258 88.7722 34.3776 80.2685C42.6295 71.7649 47.2399 60.4161 47.2399 48.6076C47.2399 36.7991 42.6295 25.4503 34.3776 16.9467C26.1258 8.44298 14.8751 3.44655 2.99022 3.00753Z" fill="white"/>
<path d="M48.6977 50.0936C36.5948 50.097 24.9199 45.6477 15.9275 37.6048C6.93513 29.562 1.26314 18.4961 0.00683594 6.54416V6.38993V0.00683594H97.6463V1.49307C97.6477 7.87578 96.3826 14.1962 93.9232 20.0933C91.4638 25.9905 87.8583 31.3487 83.3127 35.862C78.7671 40.3752 73.3705 43.955 67.4312 46.397C61.4918 48.8389 55.1261 50.095 48.6977 50.0936ZM2.99 6.31282C4.22123 17.8039 9.7973 28.4034 18.5927 35.9716C27.388 43.5398 38.7476 47.5132 50.3785 47.0896C62.0094 46.6661 73.0453 41.8772 81.2587 33.6897C89.4721 25.5021 94.2512 14.5256 94.6314 2.9758H2.99V6.31282Z" fill="white"/>
<path d="M73.9191 73.6497H23.4736V23.5664H73.9191V73.6497ZM26.4639 70.6913H70.9465V26.5249H26.4639V70.6913Z" fill="white"/>
<path d="M114.783 29.4691V48.2188H138.581V51.2123H114.783V70.7402H111.503V26.4756H141.335V29.4691H114.783Z" fill="white"/>
<path d="M189.524 48.6078C189.55 53.1709 188.211 57.6388 185.677 61.4453C183.142 65.2519 179.527 68.2256 175.288 69.9896C171.05 71.7537 166.379 72.2285 161.869 71.3541C157.358 70.4796 153.21 68.2952 149.951 65.0778C146.693 61.8603 144.469 57.7545 143.563 53.281C142.657 48.8075 143.109 44.1675 144.862 39.9493C146.614 35.7311 149.589 32.1245 153.408 29.5866C157.228 27.0488 161.72 25.6939 166.316 25.6939C169.358 25.674 172.374 26.2521 175.191 27.395C178.007 28.5379 180.568 30.2229 182.725 32.3529C184.883 34.4829 186.594 37.0159 187.761 39.8057C188.928 42.5955 189.527 45.587 189.524 48.6078ZM186.181 48.6078C186.169 44.7095 184.993 40.9022 182.802 37.6669C180.612 34.4316 177.505 31.9133 173.874 30.4301C170.243 28.9469 166.251 28.5653 162.401 29.3335C158.552 30.1016 155.018 31.9851 152.246 34.7461C149.475 37.5071 147.589 41.0217 146.828 44.8461C146.066 48.6704 146.463 52.6331 147.969 56.2335C149.474 59.834 152.02 62.9107 155.286 65.0753C158.551 67.2398 162.389 68.3951 166.316 68.3951C168.931 68.3983 171.521 67.8883 173.936 66.8943C176.352 65.9002 178.546 64.4418 180.393 62.6029C182.239 60.7641 183.7 58.5809 184.694 56.1791C185.687 53.7773 186.193 51.2042 186.181 48.6078Z" fill="white"/>
<path d="M212.599 54.013H200.207V70.7402H196.928V26.4756H212.86C222.827 26.4756 229.644 31.6844 229.644 40.2758C229.644 47.6965 224.532 52.5793 216.663 53.7501L231.285 70.7402H227.024L212.599 54.013ZM200.207 51.016H212.73C220.793 51.016 226.368 47.0445 226.368 40.2758C226.368 33.5072 220.793 29.4691 212.73 29.4691H200.211L200.207 51.016Z" fill="white"/>
<path d="M278.426 70.7402H275.083L275.146 33.4406L258.628 61.304H256.135L239.55 33.3775L239.613 70.7402H236.337V26.4756H239.091L257.381 57.3956L275.672 26.4756H278.426V70.7402Z" fill="white"/>
<path d="M319.922 37.9972H316.642C315.47 32.1329 311.096 28.5575 303.012 28.5575C295.672 28.5575 290.818 32.0102 290.818 37.6712C290.818 41.9021 293.967 44.6362 299.799 45.6808L307.996 47.3072C315.664 48.6743 320 52.4494 320 58.503C320 66.4425 313.444 71.5216 303.675 71.5216C293.056 71.5216 286.564 66.3128 285.317 56.7434H288.661C289.843 64.3604 294.892 68.5912 303.806 68.5912C311.545 68.5912 316.656 64.816 316.656 58.829C316.656 54.5982 313.574 51.5381 307.414 50.4164L298.563 48.7233C291.15 47.2932 287.351 43.4654 287.351 37.7238C287.351 30.4328 293.578 25.6797 302.825 25.6797C312.328 25.6797 318.754 30.0438 319.936 37.9832" fill="white"/>
</svg>
