<svg width="134" height="64" viewBox="0 0 134 64" fill="none" xmlns="http://www.w3.org/2000/svg">
<path d="M0.134766 28.8878H2.2187V16.3608H17.3764V14.4449H2.2187V2.42182H19.1283V0.5H0.134766V28.8878Z" fill="#A47449"/>
<path d="M75.3626 9.34348C75.3626 3.83583 71.0229 0.496094 64.6755 0.496094H54.5293V28.8878H56.6191V18.1459H64.5055L73.685 28.8878H76.3978L67.0973 17.9936C72.101 17.2397 75.3607 14.107 75.3607 9.34738L75.3626 9.34348ZM56.6113 16.2339V2.42181H64.5856C69.7163 2.42181 73.2709 5.00767 73.2709 9.34738C73.2709 13.6871 69.7163 16.2339 64.5856 16.2339H56.6113Z" fill="#A47449"/>
<path d="M93.025 20.3295L81.3789 0.5H79.6211V28.8878H81.7109L81.6679 4.92565L92.2281 22.8333H93.8179L104.333 4.9647L104.296 28.8878H106.425V0.5H104.673L93.025 20.3295Z" fill="#A47449"/>
<path d="M125.256 13.855L120.026 12.8121C116.315 12.1481 114.311 10.3962 114.311 7.68336C114.311 4.04675 117.401 1.83784 122.073 1.83784C127.209 1.83784 130.008 4.12878 130.756 7.89234H132.848C132.094 2.8007 128 0 121.948 0C116.063 0 112.095 3.04483 112.095 7.72242C112.095 11.3961 114.518 13.857 119.235 14.7808L124.874 15.8667C128.797 16.5757 130.756 18.5346 130.756 21.2474C130.756 25.091 127.504 27.5128 122.575 27.5128C116.899 27.5128 113.684 24.802 112.931 19.9154H110.802C111.583 26.05 115.731 29.3917 122.493 29.3917C128.709 29.3917 132.885 26.132 132.885 21.0404C132.885 17.1596 130.135 14.7359 125.251 13.857" fill="#A47449"/>
<path d="M45.7502 8.49195V3.95888H41.2113C40.5928 2.95169 39.7373 2.11105 38.7195 1.51022C37.7016 0.909387 36.5523 0.566595 35.3716 0.511716C35.146 0.496095 34.9195 0.496095 34.6939 0.511716C33.5132 0.566595 32.3639 0.909387 31.3461 1.51022C30.3282 2.11105 29.4728 2.95169 28.8542 3.95888H24.3251V8.49195C23.3178 9.11034 22.4771 9.96576 21.8762 10.9836C21.2754 12.0015 20.9326 13.1509 20.8779 14.3316C20.8597 14.5578 20.8597 14.7851 20.8779 15.0113C20.9313 16.192 21.2734 17.3417 21.8744 18.3595C22.4754 19.3772 23.3169 20.2321 24.3251 20.849V25.3899H28.8582C29.4777 26.3961 30.3334 27.2361 31.351 27.8368C32.3687 28.4375 33.5175 28.7808 34.6978 28.837C34.9235 28.8526 35.1499 28.8526 35.3755 28.837C36.5559 28.7808 37.7047 28.4375 38.7223 27.8368C39.74 27.2361 40.5957 26.3961 41.2152 25.3899H45.7541V20.849C46.7604 20.2299 47.5999 19.3738 48.1991 18.3555C48.7983 17.3372 49.139 16.1877 49.1915 15.0074C49.2071 14.7811 49.2071 14.554 49.1915 14.3277C49.1363 13.1478 48.794 11.9992 48.1943 10.9816C47.5946 9.96394 46.7556 9.108 45.7502 8.48804V8.49195ZM29.2488 4.63464H31.2331V8.11891C30.3644 7.71122 29.4241 7.47829 28.4656 7.43338C28.5117 6.4535 28.7787 5.49672 29.2468 4.63464H29.2488ZM29.6687 17.7885C30.2429 16.9793 30.9923 16.3101 31.861 15.8306C32.7297 15.3511 33.6954 15.0737 34.6861 15.0191C34.6309 16.0093 34.3526 16.9742 33.8721 17.8417C33.3915 18.7092 32.721 19.4568 31.9108 20.0287V17.7924L29.6687 17.7885ZM29.2468 18.4662H31.2311V20.4506C30.3807 20.9122 29.4362 21.174 28.4695 21.2162C28.5208 20.2526 28.7877 19.3128 29.2507 18.4662H29.2468ZM27.7879 21.2162C26.8124 21.1784 25.8587 20.9164 25.0008 20.4506V18.4702H28.4851C28.0703 19.3306 27.8331 20.2659 27.7879 21.2201V21.2162ZM31.9147 11.5504V9.30833C32.725 9.88194 33.3954 10.631 33.8759 11.4998C34.3565 12.3685 34.6347 13.3345 34.69 14.3258C33.6987 14.2708 32.7326 13.9926 31.8638 13.512C30.995 13.0315 30.246 12.3609 29.6726 11.5504H31.9147ZM29.2507 10.8727C28.7877 10.0261 28.5208 9.08638 28.4695 8.12281C29.4364 8.16422 30.381 8.42609 31.2311 8.88842V10.8727H29.2507ZM25.0008 4.63855H28.4851C28.064 5.51404 27.8267 6.46654 27.7879 7.43729C26.8226 7.47862 25.8752 7.71165 25.0008 8.12281V4.63855ZM25.0008 8.88842C25.859 8.42327 26.8125 8.16134 27.7879 8.12281C27.8345 9.07612 28.0695 10.0107 28.4793 10.8727H25.0008V8.88842ZM24.3231 9.30833V11.5504H28.8504C29.5986 12.7673 30.6908 13.7352 31.9889 14.3316H21.5478C21.6019 13.3391 21.8798 12.3716 22.3608 11.5017C22.8418 10.6318 23.5133 9.88194 24.3251 9.30833H24.3231ZM24.3251 20.0326C23.5118 19.4598 22.8392 18.71 22.3578 17.8395C21.8764 16.969 21.5988 16.0007 21.5459 15.0074H31.985C30.6913 15.6051 29.6039 16.5729 28.8601 17.7885H24.3251V20.0326ZM25.0028 24.7043V21.2201C25.8746 21.6398 26.823 21.8771 27.7898 21.9173C27.8294 22.8835 28.0646 23.8317 28.4812 24.7043H25.0028ZM28.4754 21.9173C29.4333 21.8719 30.3723 21.6348 31.237 21.2201V24.7043H29.2468C28.7791 23.8463 28.512 22.8934 28.4656 21.9173H28.4754ZM34.6881 28.1671C33.6958 28.1158 32.7281 27.8399 31.8579 27.3601C30.9878 26.8804 30.2379 26.2094 29.6648 25.3977H31.9069V20.849C33.1228 20.1056 34.0908 19.018 34.6881 17.7241V28.1671ZM34.6881 11.6344C34.0916 10.3374 33.1237 9.24646 31.9069 8.49975V3.95888H29.6648C30.2385 3.14732 30.9884 2.47609 31.8583 1.99546C32.7282 1.51484 33.6957 1.23728 34.6881 1.18357V11.6344ZM45.0608 4.64636V8.12477C44.1842 7.71887 43.2368 7.48799 42.2718 7.4451C42.2347 6.47434 41.998 5.52163 41.5765 4.64636H45.0608ZM38.1469 17.8003V20.0404C37.3375 19.4682 36.6679 18.7204 36.1883 17.8529C35.7088 16.9853 35.4316 16.0206 35.3775 15.0308C36.3675 15.0849 37.3326 15.362 38.2004 15.8416C39.0683 16.3212 39.8165 16.9908 40.3891 17.8003H38.1469ZM40.809 18.478C41.2733 19.324 41.5403 20.2641 41.5902 21.2279C40.6209 21.1862 39.6738 20.9244 38.8207 20.4623V18.4702L40.809 18.478ZM40.3891 11.5583C39.8168 12.3685 39.0688 13.039 38.2009 13.5196C37.3331 14.0001 36.3679 14.2784 35.3775 14.3336C35.4326 13.3429 35.7103 12.3775 36.1897 11.5088C36.6692 10.6402 37.3381 9.89077 38.1469 9.31613V11.5504L40.3891 11.5583ZM38.8266 10.8805V8.88842C39.6793 8.42534 40.6266 8.16345 41.5961 8.12281C41.5462 9.08661 41.2791 10.0267 40.8148 10.8727L38.8266 10.8805ZM42.2738 8.13063C43.249 8.16945 44.2026 8.42922 45.0628 8.89037V10.8805H41.5785C41.9932 10.0201 42.2297 9.08475 42.2738 8.13063ZM41.6019 7.4451C40.6408 7.48955 39.6979 7.72247 38.8266 8.13063V4.63855H40.8109C41.2788 5.50073 41.5458 6.45745 41.5922 7.43729L41.6019 7.4451ZM35.3599 1.18748C36.3522 1.24077 37.3194 1.51816 38.1891 1.99884C39.0588 2.47951 39.8082 3.15097 40.3812 3.96279H38.1528V8.49585C36.9387 9.2408 35.9717 10.328 35.3736 11.6208L35.3599 1.18748ZM35.3599 28.1632V17.726C35.9581 19.0188 36.925 20.106 38.1391 20.8509V25.3918H40.3812C39.8089 26.2038 39.0594 26.875 38.1895 27.3548C37.3196 27.8346 36.352 28.1104 35.3599 28.1613V28.1632ZM40.809 24.7063H38.8168V21.2201C39.684 21.6355 40.6258 21.8726 41.5863 21.9173C41.5387 22.8932 41.2717 23.8459 40.8051 24.7043L40.809 24.7063ZM45.0491 24.7043H41.5707C41.9875 23.8319 42.2221 22.8835 42.2601 21.9173C43.2272 21.8796 44.1763 21.6443 45.0491 21.2259V24.7043ZM45.0491 20.4603C44.1885 20.9203 43.2351 21.18 42.2601 21.2201C42.2165 20.2659 41.98 19.3304 41.5648 18.4702H45.0491V20.4603ZM45.7326 20.0326V17.7924H41.1937C40.4491 16.5776 39.3619 15.61 38.0688 15.0113H48.5079C48.4572 16.0034 48.1815 16.9711 47.7017 17.841C47.2219 18.7109 46.5506 19.4603 45.7385 20.0326H45.7326ZM38.0669 14.3316C39.3604 13.7337 40.4478 12.7659 41.1918 11.5504H45.7307V9.30833C46.5423 9.88152 47.2132 10.6314 47.693 11.5016C48.1727 12.3717 48.4487 13.3393 48.5001 14.3316H38.0669Z" fill="#A47449"/>
<path d="M18.1498 61.5568V63.504H0V35.3252H2.07222V61.5568H18.1498Z" fill="#A47449"/>
<path d="M25.7763 35.3252H23.7041V63.5021H25.7763V35.3252Z" fill="#A47449"/>
<path d="M59.1759 35.3252L46.0806 63.7111H44.0924L30.999 35.3252H33.2782L45.0865 60.9748L56.8967 35.3252H59.1759Z" fill="#A47449"/>
<path d="M66.3046 35.3252H64.2324V63.5021H66.3046V35.3252Z" fill="#A47449"/>
<path d="M98.1301 35.3252V63.504H96.1829L76.748 38.8895V63.504H74.6758V35.3252H76.5409L96.0579 60.0237V35.3252H98.1301Z" fill="#A47449"/>
<path d="M119.389 49.0005H133.024V63.504H131.24L131.074 56.5413C129.121 61.0177 125.192 64.0001 119.596 64.0001C111.35 64.0001 105.095 57.5354 105.095 49.4966C105.095 41.1688 111.641 34.8291 119.803 34.8291C125.979 34.8291 131.531 38.5165 133.024 44.4421H130.744C129.377 39.6356 124.776 36.7763 119.807 36.7763C112.764 36.7763 107.212 42.2879 107.212 49.4966C107.212 56.4183 112.514 62.0119 119.6 62.0119C126.149 62.0119 130.25 57.2054 130.83 50.9478H119.393L119.389 49.0005Z" fill="#A47449"/>
</svg>
