<svg width="317" height="64" viewBox="0 0 317 64" fill="none" xmlns="http://www.w3.org/2000/svg">
<g clip-path="url(#clip0_1366_8523)">
<path fill-rule="evenodd" clip-rule="evenodd" d="M214.223 34.6247C213.936 34.5907 213.641 34.569 213.352 34.5178C213.076 34.4688 212.773 34.441 212.539 34.3104C212.191 34.1162 212.22 33.8208 212.56 33.6042C212.798 33.4534 213.047 33.3193 213.285 33.1696C213.319 33.148 213.322 33.0807 213.362 32.9765C213.257 32.8497 213.138 32.6933 213.006 32.5476C212.583 32.0813 212.573 31.9995 212.922 31.5091C213.408 30.8259 213.865 30.1178 214.632 29.6726C214.693 29.6372 214.725 29.5558 214.762 29.5058C214.768 29.4412 214.792 29.3823 214.773 29.344C214.324 28.4609 214.316 28.4496 215.173 27.9512C216.492 27.1847 217.825 26.4391 219.146 25.6766C219.368 25.5488 219.558 25.3718 219.774 25.2331C220.115 25.0138 220.465 24.8075 220.812 24.5968C220.833 24.5838 220.866 24.5865 220.885 24.5725C221.481 24.1506 222.075 23.7274 222.694 23.2865C222.354 22.8339 222.008 22.9257 221.666 23.0654C220.492 23.5457 219.32 24.0309 218.15 24.5214C217.935 24.6114 217.729 24.7237 217.531 24.8451C216.989 25.1792 216.433 25.1387 215.886 24.8869C215.301 24.6178 215.157 24.1405 215.558 23.6574C215.811 23.3515 216.163 23.1143 216.492 22.8733C217.106 22.4241 217.736 21.9946 218.354 21.5607C218.215 21.1036 217.896 21.1337 217.581 21.1588C217.281 21.1826 216.894 21.3438 216.798 20.9172C216.706 20.5076 217.102 20.3963 217.4 20.2399C218.086 19.8785 218.77 19.5114 219.446 19.1316C219.668 19.0064 219.961 18.8214 219.789 18.5527C219.683 18.3869 219.349 18.25 219.139 18.2744C218.793 18.3147 218.469 18.5073 218.129 18.6153C217.716 18.7467 217.298 18.9424 216.877 18.9554C216.307 18.973 216.087 18.4834 216.475 18.0855C216.732 17.822 217.092 17.632 217.437 17.4714C218.166 17.1332 218.171 17.125 217.975 16.3391C217.927 16.1498 217.955 15.8462 218.083 15.7318C218.496 15.3598 218.945 15.0082 219.43 14.7292C219.988 14.4084 220.106 14.2784 220.022 13.6549C219.926 12.9452 220.24 12.3711 220.957 12.1334C222.11 11.7508 223.096 11.1244 224.045 10.408C224.555 10.0234 225.14 9.72721 225.708 9.41896C225.879 9.32579 226.108 9.28418 226.307 9.29193C226.705 9.30735 226.847 9.61681 226.608 9.91881C226.499 10.0564 226.346 10.1628 226.212 10.2821C225.969 10.4994 225.782 10.7492 225.939 11.0762C226.105 11.4232 226.435 11.4925 226.8 11.4493C226.956 11.431 227.11 11.3846 227.265 11.3819C227.634 11.3756 227.79 11.604 227.642 11.9186C227.611 11.9861 227.567 12.0546 227.511 12.1043C226.713 12.8158 225.979 13.5631 224.811 13.8021C223.769 14.0153 222.944 14.6788 222.327 15.5252C222.23 15.6576 222.213 15.9088 222.278 16.0578C222.313 16.1378 222.607 16.1587 222.771 16.1319C222.972 16.0991 223.163 15.997 223.351 15.9103C224.226 15.5065 225.168 15.4587 226.111 15.4392C226.262 15.4362 226.502 15.5441 226.544 15.655C226.59 15.7783 226.493 15.9903 226.392 16.1149C226.286 16.2463 226.115 16.3522 225.95 16.414C224.667 16.8932 223.602 17.7147 222.477 18.4382C222.156 18.6449 221.915 18.9622 221.613 19.2004C221.192 19.5318 220.734 19.8207 220.32 20.1584C220.07 20.3617 219.838 20.6022 219.66 20.8646C219.491 21.1125 219.396 21.4081 219.281 21.6873C219.046 22.2549 219.368 22.6555 219.997 22.5412C220.27 22.4917 220.523 22.3357 220.78 22.2168C221.178 22.0325 221.569 21.8357 221.966 21.6495C222.435 21.4295 222.91 21.2218 223.376 20.9967C223.89 20.7484 224.399 20.4911 224.905 20.2296C225.869 19.7317 226.83 19.2278 227.793 18.7272C227.976 18.6317 228.153 18.5134 228.348 18.4531C228.858 18.2964 229.285 18.0353 229.677 17.6826C229.895 17.486 230.197 17.3372 230.489 17.262C230.948 17.1437 231.224 17.3969 231.12 17.8337C231.053 18.1177 230.92 18.4121 230.735 18.6418C229.971 19.5921 229.176 20.5195 228.391 21.4551C228.342 21.5137 228.284 21.5662 228.24 21.6282C228.08 21.8572 227.86 22.1115 228.136 22.3612C228.37 22.5723 228.622 22.4097 228.84 22.2545C229.364 21.8833 229.923 21.5608 230.263 20.9859C230.397 20.759 230.649 20.5748 230.885 20.4283C231.901 19.7993 232.848 19.0946 233.655 18.2253C233.758 18.1134 233.865 17.9853 234 17.9228C234.174 17.8425 234.42 17.7354 234.556 17.798C234.694 17.8617 234.811 18.1192 234.806 18.2886C234.784 19.128 234.705 19.9558 233.837 20.4621C233.663 20.564 233.526 20.7286 233.381 20.8725C233.104 21.1462 233.098 21.416 233.323 21.7474C233.915 22.6215 233.86 22.9342 233.066 23.6051C231.825 24.6532 230.489 25.5618 228.964 26.1984C228.777 26.2766 228.612 26.4082 228.444 26.5252C228.091 26.7715 227.733 27.0134 227.396 27.28C227.251 27.3948 227.057 27.567 227.058 27.7122C227.059 27.9875 227.338 28.0368 227.584 28.0389C227.713 28.04 227.849 28.0261 227.969 27.9844C229.294 27.5241 230.614 27.0515 231.94 26.5956C232.259 26.4862 232.594 26.4211 232.923 26.3438C233.7 26.1619 234.412 25.9061 234.877 25.206C235.151 24.7948 236.277 24.5211 236.736 24.6808C237.033 24.7843 237.182 25.045 237.046 25.3475C236.946 25.5701 236.78 25.7792 236.599 25.9526C235.6 26.9127 234.392 27.5439 233.06 27.9681C231.969 28.3152 230.876 28.6544 229.783 28.9973C229.709 29.0207 229.634 29.0682 229.561 29.0659C228.582 29.0347 227.733 29.4717 226.862 29.7881C225.765 30.1866 224.702 30.672 223.628 31.1278C223.414 31.2188 223.225 31.3683 223.009 31.4518C221.991 31.8433 220.968 32.2204 219.948 32.6045C219.656 32.7143 219.346 32.7976 219.08 32.9501C218.522 33.2703 217.9 33.3281 217.285 33.4513C216.809 33.5467 216.353 33.7419 215.9 33.9203C215.809 33.9559 215.773 34.1164 215.659 34.3077C215.903 34.3824 216.084 34.4841 216.266 34.4856C217.209 34.4929 218.152 34.4815 219.041 34.1054C219.207 34.0352 219.388 33.9951 219.566 33.9531C220.935 33.6284 222.305 33.3083 223.674 32.9832C224.233 32.8505 224.793 32.7239 225.345 32.5674C225.869 32.4184 226.383 32.2354 226.901 32.0643C226.999 32.0316 227.089 31.961 227.189 31.9482C228.615 31.7667 229.847 31.0541 231.164 30.5854C232.68 30.0465 234.181 29.4474 235.536 28.5694C235.881 28.3461 236.252 28.1326 236.643 28.0119C236.976 27.9093 237.374 27.8671 237.711 27.9395C238.329 28.0727 238.458 28.676 237.99 29.0909C237.82 29.2414 237.597 29.3361 237.404 29.4629C237.055 29.6908 237.045 29.7124 236.966 30.2431C237.184 30.1979 237.372 30.1469 237.565 30.1213C238.158 30.0423 238.752 29.9318 239.347 29.9201C239.59 29.9154 239.922 30.0753 240.062 30.2635C240.27 30.542 240.069 30.8634 239.83 31.0614C239.579 31.2682 239.281 31.451 238.971 31.555C238.52 31.7065 238.103 31.8734 237.748 32.198C237.569 32.362 237.295 32.429 237.067 32.5467C236.853 32.6578 236.643 32.7776 236.414 32.9032C236.827 33.3498 237.265 33.4363 237.776 33.2173C238.753 32.7987 239.724 32.3692 240.703 31.9552C240.941 31.8546 241.194 31.7777 241.447 31.7221C241.964 31.6089 242.445 31.4511 242.849 31.0929C243.18 30.7988 243.602 30.7275 244.018 30.9016C244.156 30.9591 244.291 31.1438 244.316 31.2879C244.333 31.3902 244.179 31.5368 244.073 31.6354C244.004 31.6997 243.887 31.7369 243.787 31.7462C243.239 31.7971 242.806 32.0477 242.406 32.3955C242.259 32.5231 242.035 32.5717 241.842 32.6478C241.315 32.8564 240.793 33.0784 240.257 33.2627C239.078 33.6681 237.892 34.0548 236.708 34.4459C236.363 34.5599 236.012 34.6599 235.666 34.7722C235.468 34.8365 235.281 34.9468 235.078 34.9776C234.061 35.1322 233.154 35.5253 232.22 35.9396C231.051 36.4577 229.745 36.6918 228.501 37.0557C228.055 37.1861 227.613 37.3313 227.173 37.4806C226.755 37.6226 226.35 37.8045 225.925 37.9243C224.094 38.4413 222.259 38.9492 220.421 39.4441C219.919 39.5794 219.401 39.6637 218.888 39.7608C218.529 39.8288 218.159 39.8532 217.806 39.9415C216.181 40.3483 214.53 40.579 212.855 40.6961C212.371 40.7298 211.903 40.9416 211.424 41.053C210.998 41.1518 210.569 41.2838 210.137 41.2986C208.439 41.3566 206.739 41.3769 205.039 41.4044C204.674 41.4103 204.304 41.4197 203.946 41.3686C203.622 41.3227 203.361 41.1372 203.293 40.7977C203.224 40.451 203.421 40.2083 203.706 40.0533C203.928 39.9322 204.185 39.8492 204.437 39.802C204.769 39.7397 205.114 39.6886 205.45 39.703C207.119 39.7745 208.727 39.4277 210.334 39.0754C210.561 39.0258 210.792 38.9575 210.993 38.8494C211.289 38.6905 211.446 38.4317 211.377 38.0928C211.314 37.7884 211.001 37.5582 210.611 37.5654C210.381 37.5697 210.154 37.6603 209.922 37.6864C208.99 37.7917 208.058 37.9148 207.122 37.9778C206.28 38.0345 205.619 37.577 205.008 37.1042C204.508 36.7173 204.658 36.1483 205.311 35.9693C205.887 35.8116 206.488 35.7261 207.084 35.6548C207.99 35.5464 208.901 35.4609 209.813 35.3971C210.595 35.3423 211.382 35.3463 212.165 35.2958C212.685 35.2623 213.203 35.188 213.718 35.1128C213.946 35.0796 214.194 35.0306 214.223 34.6247Z" fill="#58595B"/>
<path fill-rule="evenodd" clip-rule="evenodd" d="M23.2651 28.0964C24.5203 28.0964 25.7757 28.0968 27.0309 28.0961C27.3186 28.0959 27.6077 28.0735 27.8937 28.0936C28.5438 28.139 28.837 28.4212 28.8533 29.0531C28.8623 29.4014 28.7878 29.7511 28.7685 30.1011C28.737 30.6717 28.7309 31.244 28.6909 31.814C28.6757 32.032 28.6252 32.2566 28.5414 32.4594C28.3514 32.9195 28.1603 33.3833 27.9159 33.8178C27.4726 34.6059 27.0086 35.3847 26.516 36.1452C26.2559 36.5469 25.8919 36.8857 25.619 37.2809C24.9841 38.2007 24.0537 38.8277 23.17 39.4732C22.4125 40.0265 21.5781 40.5206 20.6095 40.7369C20.0771 40.8557 19.5651 41.0564 19.0378 41.1991C18.6374 41.3075 18.2292 41.4502 17.8211 41.4611C15.8874 41.5132 13.9525 41.5289 12.0179 41.5469C11.7856 41.549 11.5341 41.5288 11.3231 41.4455C10.095 40.9607 8.78187 40.7301 7.58353 40.1255C5.93274 39.2928 4.52891 38.1991 3.32193 36.8697C2.76049 36.2513 2.31676 35.531 1.85167 34.8372C1.29832 34.0118 1.04202 33.0527 0.624667 32.1771C0.0612642 30.9955 -0.00163272 29.822 0.0226309 28.5925C0.0329959 28.0663 -0.0300581 27.5358 0.0187833 27.014C0.0767333 26.3948 0.203626 25.7801 0.331619 25.1692C0.398207 24.8516 0.573548 24.5534 0.626944 24.2352C0.794277 23.2388 1.3291 22.3921 1.88198 21.5838C2.53812 20.6247 3.29194 19.7155 4.09507 18.8639C4.61356 18.3143 5.31587 17.9281 5.90126 17.4314C6.77922 16.6863 7.83324 16.2654 8.89542 15.8509C9.0889 15.7753 9.28214 15.6842 9.48481 15.6476C10.7675 15.4163 12.0465 15.1516 13.3391 14.9902C14.4291 14.8541 15.5311 14.9003 16.6178 15.1298C17.179 15.2482 17.7498 15.3289 18.3193 15.4058C19.0508 15.5045 19.7617 15.6487 20.3881 16.0547C20.5168 16.138 20.6614 16.2116 20.8098 16.2524C22.6742 16.7642 24.068 18.0115 25.5749 19.0729C26.2415 19.5423 26.206 20.0403 25.6079 20.5744C25.2648 20.8809 24.9385 21.2048 24.6093 21.5255C23.986 22.1329 23.6181 22.1768 22.9005 21.6943C22.6013 21.4931 22.3411 21.2365 22.034 21.0488C21.3985 20.6604 20.7357 20.3131 20.0984 19.9272C19.1499 19.3528 18.0601 19.2163 17.0152 18.9147C15.5826 18.5011 14.1982 18.4538 12.7647 18.7702C12.2822 18.8768 11.7731 18.881 11.2976 19.0068C9.66063 19.4397 8.15887 20.1712 6.9625 21.3185C4.94728 23.2507 3.84285 25.6208 3.71942 28.3661C3.69507 28.9069 3.82848 29.4629 3.95177 29.9987C4.11478 30.7069 4.33786 31.4024 4.53943 32.1023C4.57398 32.2225 4.6028 32.3575 4.68015 32.4509C5.42344 33.348 5.98316 34.3687 6.85665 35.1846C7.95016 36.2059 9.20747 36.9074 10.6448 37.352C10.917 37.4362 11.1667 37.5866 11.4383 37.6735C11.7829 37.7837 12.1386 37.9364 12.4904 37.9384C14.0563 37.9471 15.6288 38.1668 17.1873 37.8599C17.67 37.7649 18.1441 37.6295 18.6211 37.5086C18.6961 37.4896 18.7636 37.4295 18.8378 37.4233C19.8799 37.3355 20.6407 36.6794 21.4906 36.2093C21.7567 36.0622 21.9998 35.8559 22.2075 35.6366C23.0007 34.7992 23.6971 33.8935 24.257 32.8927C24.7074 32.0874 24.4603 31.6358 23.5027 31.6315C22.0121 31.6248 20.5213 31.6528 19.0306 31.6659C18.8215 31.6677 18.6101 31.6891 18.4038 31.6668C17.9254 31.615 17.6781 31.3982 17.6635 30.9421C17.6404 30.2204 17.6526 29.4968 17.6788 28.7749C17.6934 28.3716 17.9825 28.1291 18.4806 28.1122C18.9231 28.0972 19.3678 28.159 19.8117 28.1621C20.9628 28.1703 22.114 28.1649 23.2651 28.1649C23.2651 28.142 23.2651 28.1192 23.2651 28.0964Z" fill="#58595B"/>
<path fill-rule="evenodd" clip-rule="evenodd" d="M278.573 28.7311C278.573 32.0902 278.57 35.4492 278.576 38.8083C278.577 39.4099 278.615 40.0111 278.628 40.6128C278.634 40.8973 278.597 41.1825 278.283 41.3122C277.967 41.4421 277.718 41.2747 277.516 41.0692C276.962 40.504 276.433 39.9153 275.872 39.3563C274.967 38.4548 274.041 37.5724 273.129 36.6767C272.51 36.0677 271.9 35.4495 271.285 34.8357C270.835 34.3861 270.39 33.9315 269.933 33.4888C268.555 32.1539 267.162 30.8331 265.794 29.4886C264.754 28.4663 263.737 27.4221 262.723 26.3761C262.102 25.736 261.517 25.0638 260.892 24.4279C260.682 24.2147 260.42 24.0198 260.142 23.9038C259.689 23.7146 259.34 23.912 259.316 24.3801C259.274 25.1772 259.285 25.9774 259.286 26.7762C259.288 27.8033 259.306 28.8304 259.308 29.8575C259.315 32.2397 259.317 34.622 259.321 37.0044C259.322 37.9035 259.322 38.8028 259.325 39.7021C259.327 40.1827 259.158 40.5084 258.667 40.5997C258.006 40.7229 257.32 40.793 256.648 40.7712C256.029 40.7511 255.702 40.3097 255.702 39.6895C255.709 32.5429 255.719 25.3965 255.726 18.2499C255.727 17.6482 255.709 17.0463 255.71 16.4447C255.711 16.145 255.69 15.8102 256.05 15.6689C256.415 15.525 256.712 15.7096 256.965 15.9441C257.247 16.2054 257.513 16.4825 257.784 16.7546C259.138 18.1138 260.478 19.486 261.849 20.83C264.225 23.1601 266.624 25.468 269.004 27.7949C270.174 28.9397 271.329 30.0994 272.476 31.2662C272.869 31.6662 273.215 32.1093 273.585 32.5306C273.702 32.6643 273.812 32.8104 273.953 32.917C274.344 33.2114 274.721 33.125 274.874 32.6685C274.975 32.3659 274.995 32.0284 274.995 31.7065C274.998 30.5037 274.973 29.3009 274.966 28.0981C274.944 24.4634 274.926 20.8286 274.906 17.1939C274.905 16.9934 274.893 16.7915 274.912 16.5926C274.963 16.0676 275.193 15.7964 275.734 15.7516C276.358 15.7001 276.99 15.6902 277.615 15.7213C278.222 15.7514 278.509 16.0459 278.576 16.6201C278.608 16.893 278.599 17.171 278.599 17.4466C278.6 21.2081 278.6 24.9697 278.6 28.7312C278.591 28.7311 278.582 28.7311 278.573 28.7311Z" fill="#58595B"/>
<path fill-rule="evenodd" clip-rule="evenodd" d="M159.904 28.6139C159.904 32.476 159.905 36.3381 159.902 40.2002C159.902 40.5705 159.976 41.0057 159.537 41.1963C159.06 41.4032 158.84 40.982 158.58 40.7225C157.313 39.4585 156.064 38.1772 154.787 36.9229C153.288 35.4513 151.76 34.0072 150.256 32.5407C148.462 30.7912 146.672 29.0366 144.894 27.2725C143.914 26.3014 142.963 25.3043 141.994 24.3235C141.706 24.0319 141.405 23.6827 140.926 23.8714C140.418 24.0715 140.57 24.5408 140.571 24.9267C140.573 25.8797 140.59 26.8325 140.599 27.7854C140.632 30.9944 140.664 34.2033 140.695 37.4123C140.702 38.1874 140.701 38.9626 140.704 39.7377C140.705 40.221 140.539 40.5324 140.033 40.6212C139.346 40.7419 138.631 40.8184 137.938 40.7755C137.243 40.7325 137.011 40.2698 137.1 39.6061C137.169 39.0908 137.143 38.5628 137.145 38.0403C137.154 33.7765 137.162 29.5126 137.166 25.2485C137.168 22.6651 137.164 20.0816 137.158 17.4982C137.157 17.1978 137.124 16.8975 137.116 16.5968C137.11 16.397 137.069 16.1765 137.141 16.0022C137.219 15.8125 137.38 15.5943 137.561 15.5233C137.692 15.4724 137.966 15.598 138.091 15.7229C139.12 16.7521 140.118 17.8109 141.15 18.8377C141.892 19.5763 142.679 20.2731 143.434 21.0004C144.078 21.6208 144.703 22.259 145.338 22.8877C146.447 23.9856 147.547 25.0918 148.669 26.1766C149.607 27.0827 150.596 27.9404 151.517 28.8612C152.638 29.9819 153.711 31.147 154.808 32.2905C154.984 32.4749 155.157 32.6701 155.364 32.8195C155.833 33.1588 156.308 32.981 156.4 32.4208C156.449 32.128 156.417 31.8212 156.405 31.5213C156.381 30.9207 156.321 30.3203 156.32 29.7199C156.313 25.5562 156.318 21.3926 156.319 17.229C156.319 17.0284 156.31 16.8263 156.332 16.6276C156.389 16.1068 156.616 15.8427 157.164 15.7903C157.787 15.7307 158.419 15.7207 159.045 15.7361C159.498 15.7471 159.771 15.9969 159.845 16.4269C159.896 16.7212 159.887 17.0264 159.887 17.3267C159.89 21.0891 159.889 24.8514 159.889 28.6137C159.894 28.6139 159.899 28.6139 159.904 28.6139Z" fill="#58595B"/>
<path fill-rule="evenodd" clip-rule="evenodd" d="M295.43 28.1258C295.43 24.4134 295.43 20.7009 295.43 16.9885C295.43 16.838 295.421 16.6868 295.434 16.5372C295.481 15.9478 295.697 15.7407 296.322 15.7171C296.687 15.7033 297.054 15.7276 297.421 15.7286C299.096 15.7332 300.771 15.7224 302.446 15.7457C303.098 15.7547 303.756 15.7992 304.399 15.8971C305.534 16.0696 306.662 16.2921 307.79 16.5021C307.994 16.54 308.206 16.5895 308.387 16.6824C309.466 17.2365 310.601 17.7183 311.59 18.3955C312.406 18.9543 313.125 19.6909 313.739 20.4576C314.318 21.1808 314.945 21.8847 315.314 22.7725C315.566 23.3772 315.858 23.9583 315.986 24.6037C316.055 24.9482 316.133 25.2934 316.245 25.627C316.519 26.4492 316.638 27.2868 316.598 28.1488C316.582 28.4993 316.571 28.8531 316.602 29.2018C316.674 30.0166 316.646 30.8068 316.155 31.5193C316.126 31.5601 316.102 31.6112 316.099 31.6589C316.026 32.7303 315.416 33.6049 314.861 34.4624C313.359 36.7849 311.474 38.7352 308.669 39.6371C307.284 40.0823 305.929 40.6411 304.426 40.6609C301.992 40.6929 299.559 40.7508 297.126 40.7965C296.917 40.8004 296.707 40.803 296.498 40.7921C295.699 40.7504 295.422 40.478 295.422 39.7144C295.422 38.5607 295.438 37.407 295.439 36.2534C295.442 33.5442 295.44 30.8351 295.44 28.1259C295.436 28.1258 295.433 28.1258 295.43 28.1258ZM298.588 28.4991C298.622 28.499 298.655 28.499 298.688 28.4989C298.688 30.1024 298.688 31.7057 298.689 33.3091C298.689 34.4872 298.674 35.6655 298.695 36.8434C298.709 37.6244 299.039 37.9234 299.847 37.9652C300.029 37.9747 300.213 37.9692 300.395 37.9579C302.243 37.8441 304.075 37.7792 305.9 37.2978C308.167 36.7 310.01 35.616 311.436 33.8619C311.881 33.314 312.2 32.6741 312.618 32.1032C312.99 31.5937 313.252 31.0336 313.264 30.4327C313.291 28.9823 313.38 27.5127 313.182 26.0841C312.979 24.6133 312.189 23.3368 311.163 22.1815C309.587 20.4065 307.592 19.4596 305.231 19.1342C303.626 18.9129 302.011 18.8294 300.388 18.802C299.049 18.7794 298.587 19.145 298.588 20.453C298.589 23.135 298.588 25.8171 298.588 28.4991Z" fill="#58595B"/>
<path fill-rule="evenodd" clip-rule="evenodd" d="M45.5935 28.3163C45.5935 24.7056 45.5935 21.0949 45.5935 17.4842C45.5935 17.3589 45.592 17.2335 45.5934 17.1081C45.607 15.8943 45.8455 15.6935 47.1326 15.7099C48.5974 15.7285 50.0637 15.6864 51.5273 15.7303C52.2516 15.752 52.9769 15.8802 53.6917 16.0103C54.3583 16.1315 55.0196 16.295 55.6682 16.4865C56.0332 16.5943 56.381 16.7749 56.7139 16.9601C57.6926 17.5043 58.5832 18.167 59.2807 19.0223C60.0082 19.9144 60.6159 20.8782 60.6278 22.0695C60.6354 22.8205 60.636 23.5716 60.6288 24.3225C60.6272 24.4959 60.6303 24.6959 60.5466 24.838C59.9116 25.9162 59.4031 27.058 58.4018 27.9266C57.3516 28.8375 56.1623 29.4427 54.8349 29.8507C54.148 30.0619 53.9896 30.5622 54.3939 31.1387C54.9603 31.9464 55.5025 32.77 56.0799 33.5704C57.1622 35.0705 58.261 36.5598 59.3558 38.0516C59.7297 38.5611 60.1193 39.06 60.4882 39.5727C60.7116 39.883 60.7637 40.2315 60.5604 40.5654C60.3687 40.8805 60.028 40.8291 59.714 40.8094C59.3231 40.7848 58.9204 40.6851 58.5441 40.7436C57.3585 40.9279 56.6832 40.2667 56.0933 39.4597C55.4801 38.6209 54.8926 37.7647 54.3038 36.9098C53.0378 35.0715 51.7781 33.2292 50.5163 31.3884C50.4589 31.3047 50.4121 31.2135 50.3489 31.1343C50.1438 30.8774 49.8816 30.7168 49.5354 30.8099C49.176 30.9066 49.0666 31.194 49.0675 31.5137C49.0695 32.1882 49.0985 32.8625 49.1022 33.5369C49.1062 34.2369 49.0866 34.9371 49.0908 35.6371C49.0932 36.0619 49.1317 36.4863 49.1357 36.911C49.1442 37.836 49.1555 38.7613 49.138 39.6861C49.1234 40.4647 48.8056 40.7815 48.0031 40.8327C47.5604 40.861 47.112 40.8674 46.6701 40.8346C45.8683 40.7751 45.5548 40.4344 45.5545 39.6743C45.5532 35.8882 45.5539 32.1022 45.5539 28.3162C45.5671 28.3163 45.5802 28.3163 45.5935 28.3163ZM50.7718 18.8338C50.5262 18.8338 50.265 18.8337 50.0039 18.8338C49.0085 18.8342 48.5991 19.2471 48.6006 20.2188C48.6037 22.2434 48.602 24.2681 48.5918 26.2927C48.5872 27.1834 48.9578 27.5008 49.9087 27.409C50.3752 27.3639 50.848 27.3731 51.3129 27.3181C52.1643 27.2172 53.0477 27.1923 53.8518 26.9416C54.8037 26.6449 55.8202 26.3556 56.475 25.5287C56.7884 25.1329 57.0259 24.6824 57.3277 24.2771C57.603 23.9076 57.6928 23.506 57.6545 23.0695C57.5762 22.1767 57.3398 21.3679 56.5972 20.7262C55.7146 19.9639 54.843 19.2138 53.5974 19.0855C52.663 18.9893 51.7259 18.9179 50.7718 18.8338Z" fill="#58595B"/>
<path fill-rule="evenodd" clip-rule="evenodd" d="M107.161 28.2756C107.161 24.5647 107.161 20.8539 107.162 17.143C107.162 16.9426 107.157 16.7397 107.188 16.5426C107.271 16.0072 107.556 15.7422 108.128 15.7175C108.623 15.696 109.121 15.7331 109.618 15.7341C112.783 15.7403 115.948 15.7471 119.114 15.7433C119.477 15.7428 119.842 15.6869 120.204 15.6414C121.056 15.5342 121.47 15.8078 121.541 16.6045C121.595 17.2028 121.61 17.8081 121.584 18.4079C121.555 19.0539 121.166 19.3247 120.493 19.3084C119.346 19.2808 118.198 19.2855 117.05 19.2711C115.56 19.2525 114.071 19.2209 112.58 19.2117C112.191 19.2093 111.795 19.236 111.414 19.3096C110.923 19.4045 110.633 19.7313 110.626 20.2145C110.607 21.6432 110.596 23.0725 110.614 24.5011C110.621 24.9923 110.91 25.2839 111.41 25.3972C111.636 25.4485 111.876 25.4582 112.11 25.4588C114.438 25.4649 116.767 25.4685 119.095 25.4643C119.539 25.4634 119.983 25.417 120.427 25.4064C121.27 25.3862 121.577 25.6802 121.559 26.4734C121.548 26.9244 121.539 27.3754 121.527 27.8263C121.502 28.7052 121.242 28.9407 120.345 28.9381C117.677 28.9304 115.009 28.9246 112.341 28.9273C110.797 28.9289 110.567 29.1497 110.591 30.6363C110.613 32.038 110.673 33.4391 110.697 34.8407C110.703 35.1888 110.635 35.538 110.599 35.8865C110.5 36.85 110.862 37.253 111.86 37.2659C114.211 37.2963 116.562 37.3289 118.914 37.342C119.355 37.3444 119.797 37.2481 120.24 37.2184C121.099 37.1607 121.4 37.3912 121.478 38.2013C121.532 38.7748 121.566 39.353 121.557 39.9284C121.547 40.5558 121.191 40.8495 120.563 40.8268C119.73 40.797 118.897 40.7525 118.064 40.7473C115.503 40.7313 112.942 40.7264 110.381 40.7279C109.781 40.7283 109.179 40.7587 108.58 40.7971C107.467 40.8682 107.113 40.5236 107.121 39.482C107.143 36.7495 107.132 34.0167 107.133 31.284C107.133 30.2811 107.133 29.2782 107.133 28.2753C107.142 28.2756 107.152 28.2756 107.161 28.2756Z" fill="#58595B"/>
<path fill-rule="evenodd" clip-rule="evenodd" d="M84.5714 15.6814C86.5336 15.6814 88.4959 15.6846 90.4581 15.6797C91.1921 15.6778 91.4909 15.871 91.5884 16.545C91.6706 17.1146 91.7157 17.6943 91.7112 18.269C91.7059 18.9632 91.3996 19.1989 90.6858 19.2072C89.5368 19.2205 88.3881 19.2707 87.2392 19.2741C86.0113 19.2777 84.7834 19.2364 83.5555 19.2324C82.9558 19.2303 82.3477 19.2153 81.7585 19.3013C80.9908 19.4132 80.7331 19.7414 80.721 20.4799C80.7079 21.2822 80.7337 22.0851 80.7215 22.8874C80.7142 23.362 80.6809 23.8373 80.633 24.3098C80.5637 24.9918 80.7676 25.3031 81.4628 25.4346C81.7673 25.4923 82.087 25.4926 82.3997 25.4918C85.0687 25.4838 87.7377 25.4673 90.4068 25.4579C91.384 25.4545 91.6287 25.693 91.6159 26.6032C91.6096 27.0546 91.6197 27.5063 91.6029 27.9572C91.5755 28.6926 91.3106 28.9508 90.5425 28.9584C89.758 28.966 88.9732 28.9368 88.1884 28.9326C86.2781 28.9221 84.3678 28.9168 82.4575 28.9097C82.3005 28.9091 82.1434 28.9069 81.9865 28.9129C80.8641 28.956 80.5665 29.2902 80.6676 30.3744C80.6931 30.6487 80.7026 30.925 80.7033 31.2005C80.707 32.7525 80.7041 34.3045 80.7067 35.8565C80.7084 36.8761 81.0469 37.2291 82.0988 37.2543C83.1448 37.2794 84.1917 37.2782 85.2382 37.2764C86.9871 37.2733 88.736 37.2605 90.485 37.2517C91.2419 37.2479 91.5239 37.4924 91.5818 38.2237C91.6194 38.6986 91.646 39.1744 91.666 39.6503C91.7037 40.5493 91.318 40.8269 90.3882 40.7884C88.8493 40.7248 87.3066 40.7443 85.7655 40.737C84.4061 40.7304 83.0465 40.7273 81.6871 40.7373C80.6678 40.7449 79.6484 40.7814 78.6291 40.7926C78.3447 40.7957 78.0475 40.7968 77.7781 40.724C77.3364 40.6047 77.1458 40.2972 77.161 39.8784C77.1944 38.9545 77.2484 38.0305 77.2499 37.1065C77.2602 30.435 77.2594 23.7633 77.2628 17.0917C77.2629 16.9162 77.2559 16.7391 77.2776 16.5657C77.3359 16.1025 77.5811 15.8316 78.0584 15.7505C78.3391 15.7028 78.6314 15.7075 78.9185 15.707C80.8028 15.7036 82.687 15.7053 84.5713 15.7053C84.5714 15.6973 84.5714 15.6893 84.5714 15.6814Z" fill="#58595B"/>
<path fill-rule="evenodd" clip-rule="evenodd" d="M177.329 28.1064C177.329 24.3446 177.329 20.5828 177.329 16.821C177.329 16.04 177.499 15.8212 178.291 15.7428C178.783 15.6942 179.287 15.685 179.778 15.7322C180.535 15.805 180.924 16.1984 180.921 16.9164C180.911 19.3231 180.857 21.7297 180.845 24.1364C180.834 26.2672 180.856 28.3982 180.864 30.5291C180.866 31.2054 180.878 31.8819 180.87 32.5581C180.863 33.2093 180.833 33.8605 180.821 34.5117C180.811 35.0362 180.825 35.5612 180.804 36.0852C180.77 36.9376 181.254 37.373 182.148 37.3499C183.348 37.3188 184.549 37.3388 185.75 37.3301C186.142 37.3273 186.533 37.3029 186.925 37.2898C187.343 37.2757 187.763 37.2323 188.178 37.2571C188.869 37.2983 189.185 37.5625 189.286 38.2052C189.356 38.648 189.397 39.1063 189.36 39.5508C189.295 40.354 188.891 40.717 188.058 40.7809C187.668 40.8107 187.273 40.7879 186.881 40.7888C184.345 40.7958 181.808 40.8026 179.272 40.8093C179.089 40.8098 178.905 40.8185 178.723 40.8078C177.689 40.7471 177.338 40.3755 177.339 39.3895C177.343 35.6284 177.341 31.8673 177.341 28.1062C177.337 28.1064 177.333 28.1064 177.329 28.1064Z" fill="#58595B"/>
<path fill-rule="evenodd" clip-rule="evenodd" d="M26.4813 58.3373C33.1812 58.3379 39.8811 58.3349 46.5811 58.3413C47.5222 58.3422 48.4632 58.4084 49.4043 58.41C50.2667 58.4115 51.1293 58.3458 51.9918 58.3452C59.1366 58.3398 66.2814 58.3321 73.4263 58.346C81.5122 58.3617 89.598 58.4005 97.684 58.4234C98.2061 58.4249 98.7285 58.3772 99.2506 58.3522C99.4336 58.3434 99.6167 58.3238 99.7993 58.3276C100.32 58.3386 100.621 58.5451 100.59 58.8588C100.562 59.1426 100.265 59.3001 99.7907 59.2978C95.5521 59.2771 91.3136 59.2395 87.075 59.2438C82.1034 59.2489 77.1318 59.3119 72.1603 59.3112C67.2675 59.3104 62.3748 59.241 57.482 59.2396C52.9555 59.2382 48.429 59.2999 43.9024 59.3081C41.5742 59.3123 39.2457 59.2391 36.9174 59.24C34.4059 59.241 31.8944 59.3138 29.383 59.3096C20.4075 59.2943 11.4322 59.2605 2.45682 59.23C1.96016 59.2283 1.46107 59.2144 0.968574 59.1605C0.827468 59.1451 0.625428 58.9887 0.591742 58.8625C0.526254 58.6171 0.748002 58.5238 0.970458 58.488C1.07317 58.4715 1.1787 58.4684 1.28314 58.4654C2.79949 58.4219 4.31577 58.3456 5.83221 58.3428C12.7152 58.3294 19.5982 58.3369 26.4813 58.3373Z" fill="#58595B"/>
<path fill-rule="evenodd" clip-rule="evenodd" d="M263.311 59.1842C246.901 59.1842 230.492 59.1839 214.083 59.1854C213.586 59.1854 213.089 59.2142 212.592 59.2098C212.329 59.2076 212.009 59.1831 211.993 58.8584C211.974 58.4774 212.324 58.4683 212.61 58.4419C212.792 58.4251 212.976 58.4291 213.16 58.4291C230.25 58.43 247.339 58.4318 264.429 58.4323C273.877 58.4325 283.325 58.4292 292.773 58.4298C299.732 58.4302 306.691 58.4335 313.65 58.4405C313.908 58.4407 314.176 58.4629 314.419 58.5364C314.525 58.5683 314.627 58.752 314.639 58.8755C314.648 58.957 314.509 59.1096 314.411 59.133C314.161 59.1927 313.897 59.2216 313.639 59.221C312.356 59.2183 311.074 59.1927 309.792 59.1921C295.319 59.1842 280.846 59.1796 266.373 59.1742C265.352 59.1738 264.332 59.1741 263.311 59.1741C263.311 59.1774 263.311 59.1808 263.311 59.1842Z" fill="#58595B"/>
<path fill-rule="evenodd" clip-rule="evenodd" d="M222.021 45.0973C221.351 45.0999 220.89 44.8974 220.702 44.2358C220.599 43.8747 220.287 43.684 219.94 43.5285C219.123 43.1619 219.141 43.1558 219.317 42.3504C219.368 42.1159 219.332 41.8586 219.306 41.6149C219.253 41.1311 219.322 40.9356 219.823 40.8616C221.5 40.614 223.089 39.9587 224.809 39.9131C225.859 39.8853 226.874 39.6907 227.844 39.2556C228.738 38.855 229.745 38.7235 230.586 38.1691C230.992 37.9012 231.423 38.0064 231.643 38.2965C231.873 38.6008 231.811 39.0868 231.397 39.3562C230.795 39.7481 230.137 40.0629 229.502 40.4076C229.298 40.5184 229.077 40.6042 228.884 40.7291C228.531 40.9563 228.367 41.2653 228.43 41.6924C228.512 42.2605 228.551 42.8345 228.618 43.4048C228.664 43.7918 228.494 44.0491 228.11 44.1321C227.781 44.2031 227.437 44.2085 227.102 44.253C226.484 44.3351 225.864 44.4101 225.25 44.5146C224.172 44.6982 223.097 44.902 222.021 45.0973Z" fill="#58595B"/>
<path fill-rule="evenodd" clip-rule="evenodd" d="M198.102 54.0786C198.573 54.0786 199.044 54.0885 199.514 54.0766C200.471 54.0522 201.312 54.3551 202.072 54.8895C203.272 55.7323 203.406 57.5402 202.327 58.5321C202.047 58.7893 201.699 58.9777 201.383 59.199C200.819 59.5944 200.822 59.9196 201.247 60.4456C201.948 61.3127 202.609 62.2111 203.255 63.117C203.548 63.5284 203.323 63.9197 202.803 63.9738C202.311 64.025 201.941 63.8156 201.677 63.4272C201.164 62.6707 200.633 61.9242 200.15 61.1502C199.481 60.079 198.535 59.5524 197.224 59.6405C196.653 59.679 196.381 59.8272 196.305 60.3732C196.223 60.9639 196.262 61.5697 196.243 62.1688C196.23 62.5675 196.256 62.9745 196.178 63.3621C196.09 63.8066 195.747 63.9976 195.317 63.9394C194.85 63.8764 194.566 63.5685 194.615 63.1022C194.786 61.4807 194.703 59.86 194.648 58.2377C194.633 57.8147 194.713 57.3894 194.724 56.9645C194.737 56.4411 194.764 55.9133 194.712 55.3941C194.636 54.6361 194.823 54.3011 195.598 54.1721C196.084 54.0913 196.587 54.1043 197.082 54.0873C197.422 54.0757 197.762 54.0851 198.102 54.0851C198.102 54.083 198.102 54.0809 198.102 54.0786ZM198.511 55.4369C198.302 55.4369 198.092 55.44 197.883 55.4361C197.648 55.4317 197.412 55.404 197.178 55.4166C196.562 55.4497 196.205 55.7573 196.149 56.3454C196.114 56.718 196.137 57.0972 196.154 57.4726C196.188 58.2378 196.413 58.4547 197.203 58.4666C197.934 58.4776 198.667 58.4805 199.399 58.4603C200.309 58.4353 200.931 57.8742 201.522 57.31C201.659 57.1796 201.685 56.888 201.67 56.6765C201.638 56.2099 201.338 55.915 200.899 55.7186C200.13 55.3751 199.324 55.395 198.511 55.4369Z" fill="#58595B"/>
<path fill-rule="evenodd" clip-rule="evenodd" d="M165.408 58.9702C165.408 57.742 165.404 56.5137 165.41 55.2856C165.415 54.3509 165.634 54.1242 166.608 54.1148C167.835 54.103 169.064 54.1109 170.291 54.1347C171.136 54.151 172.493 54.9701 173.011 55.5972C174.486 57.384 174.199 59.3718 173.692 61.3344C173.432 62.3387 172.699 63.1503 171.741 63.7005C171.528 63.823 171.252 63.893 171.002 63.8994C169.513 63.9371 168.023 63.963 166.533 63.9647C165.664 63.9657 165.412 63.706 165.408 62.88C165.401 61.5768 165.406 60.2734 165.406 58.9702C165.407 58.9702 165.408 58.9702 165.408 58.9702ZM166.81 59.0112C166.799 59.0111 166.788 59.0111 166.777 59.0111C166.777 59.8866 166.76 60.7624 166.782 61.6374C166.8 62.315 167.049 62.6359 167.672 62.658C168.731 62.6954 169.791 62.8796 170.851 62.512C171.492 62.2894 171.897 61.9433 172.208 61.373C172.938 60.0327 172.795 58.6495 172.481 57.2691C172.245 56.2348 171.184 55.5139 170.06 55.4814C169.671 55.4701 169.284 55.4035 168.894 55.3766C168.558 55.3534 168.215 55.3108 167.883 55.347C167.073 55.4358 166.841 55.6727 166.816 56.459C166.789 57.309 166.81 58.1605 166.81 59.0112Z" fill="#58595B"/>
<path fill-rule="evenodd" clip-rule="evenodd" d="M188.148 63.9104C187.636 63.9238 187.248 63.6565 187.047 63.1138C186.907 62.7369 186.814 62.3443 186.68 61.9651C186.501 61.4569 186.124 61.1984 185.559 61.1909C184.775 61.1804 183.992 61.1428 183.209 61.1544C182.189 61.1694 181.878 61.403 181.553 62.3287C181.436 62.6606 181.357 63.0047 181.233 63.334C181.089 63.7187 180.796 63.9532 180.363 63.9949C179.767 64.0525 179.403 63.6126 179.635 63.0857C180.041 62.1687 180.482 61.2663 180.896 60.353C181.031 60.056 181.122 59.7412 181.247 59.4396C181.427 59.0013 181.618 58.5667 181.808 58.1323C181.869 57.9942 181.956 57.8663 182.009 57.726C182.352 56.8119 182.69 55.8959 183.028 54.9802C183.255 54.3642 183.575 54.1075 184.14 54.0907C184.691 54.0741 185.061 54.3019 185.164 54.8191C185.26 55.2983 185.399 55.7392 185.745 56.1068C185.796 56.1607 185.825 56.2361 185.855 56.3052C186.164 57.0175 186.524 57.7147 186.77 58.4468C187.277 59.9526 187.971 61.3757 188.705 62.786C189.045 63.4386 188.806 63.8932 188.148 63.9104ZM184.306 59.8381C184.385 59.8381 184.463 59.8398 184.541 59.8378C185.424 59.816 185.691 59.4725 185.362 58.6949C185.119 58.1178 184.828 57.5536 184.495 57.0199C184.387 56.8477 184.074 56.7003 183.864 56.711C183.71 56.7188 183.518 56.9818 183.437 57.1685C183.299 57.4885 183.269 57.8502 183.135 58.1725C182.595 59.4762 182.827 59.8149 184.306 59.8381Z" fill="#58595B"/>
<path fill-rule="evenodd" clip-rule="evenodd" d="M116.94 63.1774C116.956 63.7161 116.476 64.0571 115.961 63.924C115.521 63.8103 115.244 63.5235 115.14 63.0974C115.063 62.7806 115.022 62.455 114.931 62.1421C114.737 61.4748 114.427 61.2022 113.718 61.1677C112.832 61.1246 111.942 61.1188 111.054 61.1343C110.485 61.1443 110.055 61.4381 109.829 61.9373C109.664 62.3021 109.568 62.6955 109.437 63.075C109.372 63.2642 109.329 63.4686 109.223 63.6347C109.015 63.9579 108.541 64.0624 108.178 63.8989C107.821 63.738 107.707 63.4371 107.886 63.0072C108.214 62.2181 108.568 61.4388 108.903 60.652C109.05 60.3049 109.175 59.949 109.312 59.5977C109.493 59.1306 109.681 58.6654 109.859 58.1968C109.983 57.8682 110.123 57.5412 110.204 57.2021C110.329 56.6818 110.515 56.2121 110.881 55.7875C111.083 55.5524 111.148 55.2016 111.251 54.8955C111.425 54.3791 111.694 54.1408 112.173 54.1137C112.652 54.0866 112.978 54.2944 113.189 54.7796C113.848 56.3007 114.488 57.8302 115.167 59.3434C115.68 60.4886 116.244 61.6129 116.781 62.7486C116.855 62.9063 116.903 63.0758 116.94 63.1774ZM112.312 59.8087C112.312 59.8028 112.312 59.797 112.312 59.7912C112.494 59.7912 112.677 59.8037 112.857 59.7889C113.466 59.7386 113.714 59.4388 113.537 58.8939C113.338 58.2772 113.102 57.6691 112.843 57.0731C112.652 56.634 112.317 56.5577 111.997 56.8926C111.42 57.498 111.088 58.2297 111.063 59.0551C111.049 59.5026 111.309 59.7448 111.766 59.8049C111.945 59.8283 112.13 59.8087 112.312 59.8087Z" fill="#58595B"/>
<path fill-rule="evenodd" clip-rule="evenodd" d="M224.942 1.96274C225.049 2.46777 224.763 2.69377 224.381 2.85135C224.166 2.9403 223.914 2.96559 223.722 3.08434C223.512 3.21416 223.319 3.39718 223.182 3.59691C223.048 3.79235 223.141 3.98681 223.376 4.08178C223.471 4.12016 223.577 4.13513 223.68 4.15064C224.19 4.22762 224.659 4.33343 224.754 4.94624C224.882 5.78104 224.713 6.1221 224.076 6.55362C223.514 6.93479 223.011 7.3961 222.464 7.83717C222.675 8.22572 222.914 8.16213 223.161 7.95548C223.383 7.76892 223.61 7.57664 223.924 7.68019C224.081 7.73189 224.289 7.85381 224.32 7.97865C224.347 8.09184 224.199 8.30022 224.071 8.38413C222.991 9.08641 221.796 9.57625 220.587 10.0248C219.966 10.2554 219.303 10.337 218.772 9.77575C218.27 9.24475 218.391 8.79743 219.051 8.47248C219.672 8.16649 220.262 7.80052 220.855 7.44321C221.137 7.27261 221.127 7.04526 220.909 6.81204C220.728 6.61924 220.559 6.41718 220.396 6.23235C220.894 5.89363 221.324 5.6337 221.713 5.32628C222.087 5.03105 222.419 4.68676 222.804 4.33245C222.428 4.02421 222.137 4.20316 221.833 4.33132C221.526 4.46039 221.213 4.61067 220.889 4.65643C220.5 4.71114 220.275 4.46114 220.385 4.09886C220.565 3.50261 220.754 2.89703 221.044 2.34676C221.266 1.92661 221.288 1.6128 220.975 1.25375C220.845 1.10558 220.746 0.91375 220.696 0.726364C220.618 0.437232 220.696 0.127857 221 0.0307776C221.211 -0.0367265 221.511 0.0140709 221.72 0.112731C221.915 0.205144 222.045 0.427299 222.199 0.597225C222.437 0.8622 222.673 1.12921 222.906 1.39945C223.322 1.88349 223.81 2.14297 224.488 1.93354C224.618 1.8932 224.782 1.94979 224.942 1.96274Z" fill="#58595B"/>
<path fill-rule="evenodd" clip-rule="evenodd" d="M146.243 59.7125C146.243 60.74 146.243 61.7676 146.243 62.7951C146.243 63.5277 145.992 63.8768 145.467 63.8776C144.937 63.8783 144.713 63.5183 144.726 62.7842C144.763 60.7806 144.786 58.7767 144.807 56.7728C144.809 56.5491 144.787 56.3197 144.734 56.1021C144.591 55.501 144.319 55.3265 143.672 55.3525C143.23 55.3702 142.786 55.3714 142.343 55.3623C142.19 55.3592 142.031 55.3186 141.885 55.2683C141.575 55.1614 141.294 54.9919 141.32 54.6345C141.346 54.2707 141.653 54.1473 141.98 54.1009C142.185 54.0718 142.397 54.0816 142.606 54.0807C144.514 54.0724 146.421 54.0645 148.329 54.0597C148.537 54.0591 148.75 54.0584 148.953 54.0945C149.266 54.15 149.476 54.3319 149.491 54.653C149.507 55.0022 149.311 55.2301 148.967 55.3072C148.769 55.3519 148.553 55.3323 148.345 55.3309C148.188 55.3299 148.032 55.3061 147.875 55.3024C146.503 55.2695 146.217 55.5467 146.232 56.855C146.242 57.8074 146.234 58.7599 146.234 59.7125C146.237 59.7125 146.24 59.7125 146.243 59.7125Z" fill="#58595B"/>
<path fill-rule="evenodd" clip-rule="evenodd" d="M125.208 59.6546C125.208 58.6532 125.209 57.6518 125.206 56.6505C125.206 56.4507 125.21 56.2471 125.174 56.0518C125.08 55.5528 124.793 55.3105 124.255 55.3055C123.944 55.3027 123.628 55.4102 123.323 55.3835C122.945 55.3505 122.534 55.3018 122.214 55.1292C121.795 54.9032 121.849 54.4404 122.29 54.2476C122.543 54.137 122.843 54.0797 123.122 54.0778C125.081 54.0647 127.039 54.0637 128.998 54.0844C129.236 54.0869 129.532 54.1856 129.69 54.3423C129.818 54.4686 129.846 54.7648 129.799 54.959C129.727 55.2534 129.453 55.3932 129.136 55.3827C128.798 55.3716 128.46 55.3036 128.123 55.3064C127.044 55.3154 126.588 55.7477 126.585 56.7703C126.579 58.5724 126.586 60.3746 126.595 62.1768C126.596 62.4001 126.64 62.6239 126.672 62.8464C126.767 63.5038 126.507 63.9091 125.958 63.9507C125.459 63.9885 125.197 63.6673 125.19 62.9585C125.179 61.8572 125.187 60.7558 125.187 59.6545C125.194 59.6546 125.201 59.6546 125.208 59.6546Z" fill="#58595B"/>
<path fill-rule="evenodd" clip-rule="evenodd" d="M157.859 59.0468C157.859 60.3741 157.859 61.7013 157.859 63.0287C157.86 63.6686 157.578 63.9937 157.035 63.9756C156.488 63.9573 156.174 63.6009 156.181 63.0176C156.21 60.6141 156.24 58.2104 156.264 55.8069C156.266 55.5826 156.229 55.358 156.214 55.1333C156.176 54.5274 156.457 54.1753 157.003 54.1412C157.557 54.1067 157.84 54.4215 157.839 55.0648C157.838 56.3921 157.839 57.7193 157.839 59.0467C157.846 59.0467 157.852 59.0468 157.859 59.0468Z" fill="#58595B"/>
<path fill-rule="evenodd" clip-rule="evenodd" d="M218.847 7.45676C218.756 7.44239 218.608 7.45511 218.51 7.39362C218.394 7.32055 218.257 7.18848 218.248 7.07349C218.239 6.95782 218.348 6.76818 218.456 6.72378C218.658 6.64039 218.901 6.59667 219.121 6.61262C219.387 6.63204 219.758 6.64348 219.745 7.0105C219.733 7.34109 219.397 7.39106 219.114 7.4375C219.039 7.44991 218.961 7.44901 218.847 7.45676Z" fill="#58595B"/>
</g>
<defs>
<clipPath id="clip0_1366_8523">
<rect width="316.632" height="64" fill="white"/>
</clipPath>
</defs>
</svg>
