<svg width="100" height="48" viewBox="0 0 100 48" fill="none" xmlns="http://www.w3.org/2000/svg">
<path d="M0.101562 21.6659H1.66815V12.2706H13.063V10.8337H1.66815V1.81636H14.3799V0.375H0.101562V21.6659Z" fill="white"/>
<path d="M56.6536 7.00761C56.6536 2.87687 53.3912 0.37207 48.6195 0.37207H40.9922V21.6659H42.5632V13.6095H48.4918L55.3924 21.6659H57.4318L50.4401 13.4952C54.2017 12.9298 56.6522 10.5803 56.6522 7.01054L56.6536 7.00761ZM42.5573 12.1754V1.81636H48.552C52.409 1.81636 55.0812 3.75575 55.0812 7.01054C55.0812 10.2653 52.409 12.1754 48.552 12.1754H42.5573Z" fill="white"/>
<path d="M69.9308 15.2471L61.1759 0.375H59.8545V21.6659H61.4255L61.3932 3.69423L69.3318 17.125H70.5269L78.4318 3.72353L78.4039 21.6659H80.0043V0.375H78.6873L69.9308 15.2471Z" fill="white"/>
<path d="M94.1612 10.3913L90.2293 9.60908C87.4397 9.11105 85.9333 7.79713 85.9333 5.76252C85.9333 3.03506 88.256 1.37838 91.768 1.37838C95.6294 1.37838 97.7333 3.09659 98.2956 5.91925H99.8681C99.3014 2.10052 96.224 0 91.674 0C87.2503 0 84.2669 2.28362 84.2669 5.79182C84.2669 8.5471 86.0889 10.3927 89.6347 11.0856L93.8734 11.9C96.823 12.4317 98.2956 13.9009 98.2956 15.9356C98.2956 18.8183 95.8511 20.6346 92.1453 20.6346C87.8787 20.6346 85.462 18.6015 84.8953 14.9366H83.2949C83.8822 19.5375 87.0007 22.0438 92.0836 22.0438C96.757 22.0438 99.896 19.599 99.896 15.7803C99.896 12.8697 97.8288 11.0519 94.1568 10.3927" fill="white"/>
<path d="M34.3925 6.36896V2.96916H30.9804C30.5154 2.21377 29.8724 1.58329 29.1072 1.13266C28.342 0.68204 27.478 0.424946 26.5905 0.383787C26.4208 0.372071 26.2506 0.372071 26.081 0.383787C25.1934 0.424946 24.3294 0.68204 23.5643 1.13266C22.7991 1.58329 22.156 2.21377 21.691 2.96916H18.2862V6.36896C17.529 6.83276 16.897 7.47432 16.4453 8.23772C15.9936 9.00112 15.736 9.86318 15.6948 10.7487C15.6811 10.9183 15.6811 11.0888 15.6948 11.2585C15.735 12.144 15.9922 13.0063 16.444 13.7696C16.8958 14.5329 17.5283 15.174 18.2862 15.6367V19.0424H21.694C22.1597 19.7971 22.803 20.427 23.568 20.8776C24.333 21.3281 25.1966 21.5856 26.0839 21.6278C26.2535 21.6395 26.4238 21.6395 26.5934 21.6278C27.4807 21.5856 28.3444 21.3281 29.1094 20.8776C29.8744 20.427 30.5176 19.7971 30.9833 19.0424H34.3955V15.6367C35.152 15.1724 35.783 14.5304 36.2335 13.7666C36.6839 13.0029 36.9401 12.1408 36.9795 11.2555C36.9913 11.0858 36.9913 10.9155 36.9795 10.7458C36.938 9.86085 36.6807 8.99941 36.2298 8.23618C35.779 7.47295 35.1483 6.831 34.3925 6.36603V6.36896ZM21.9876 3.47598H23.4793V6.08918C22.8263 5.78341 22.1194 5.60872 21.3989 5.57504C21.4335 4.84012 21.6343 4.12254 21.9861 3.47598H21.9876ZM22.3033 13.3414C22.735 12.7345 23.2983 12.2325 23.9513 11.8729C24.6044 11.5133 25.3303 11.3053 26.0751 11.2643C26.0337 12.007 25.8244 12.7306 25.4632 13.3813C25.1019 14.0319 24.5979 14.5926 23.9888 15.0215V13.3443L22.3033 13.3414ZM21.9861 13.8497H23.4778V15.3379C22.8385 15.6841 22.1285 15.8805 21.4018 15.9121C21.4403 15.1895 21.641 14.4846 21.9891 13.8497H21.9861ZM20.8894 15.9121C20.1561 15.8838 19.4392 15.6873 18.7942 15.3379V13.8526H21.4135C21.1017 14.498 20.9234 15.1994 20.8894 15.9151V15.9121ZM23.9917 8.66283V6.98124C24.6009 7.41146 25.1048 7.97327 25.4661 8.62483C25.8273 9.27639 26.0365 10.0009 26.078 10.7443C25.3328 10.7031 24.6066 10.4945 23.9535 10.134C23.3004 9.77362 22.7373 9.27071 22.3062 8.66283H23.9917ZM21.9891 8.15455C21.641 7.51959 21.4403 6.81478 21.4018 6.09211C22.1286 6.12317 22.8387 6.31957 23.4778 6.66631V8.15455H21.9891ZM18.7942 3.47891H21.4135C21.0969 4.13553 20.9185 4.8499 20.8894 5.57796C20.1637 5.60896 19.4515 5.78374 18.7942 6.09211V3.47891ZM18.7942 6.66631C19.4394 6.31745 20.1562 6.121 20.8894 6.09211C20.9244 6.80709 21.1011 7.50806 21.4091 8.15455H18.7942V6.66631ZM18.2848 6.98124V8.66283H21.6881C22.2506 9.57551 23.0717 10.3014 24.0475 10.7487H16.1985C16.2391 10.0043 16.448 9.27871 16.8096 8.62627C17.1712 7.97383 17.676 7.41145 18.2862 6.98124H18.2848ZM18.2862 15.0245C17.6749 14.5949 17.1692 14.0325 16.8073 13.3796C16.4454 12.7268 16.2367 12.0005 16.197 11.2555H24.0446C23.072 11.7038 22.2545 12.4297 21.6954 13.3414H18.2862V15.0245ZM18.7957 18.5283V15.9151C19.4511 16.2299 20.1641 16.4078 20.8909 16.438C20.9206 17.1626 21.0974 17.8737 21.4106 18.5283H18.7957ZM21.4062 16.438C22.1263 16.4039 22.8322 16.2261 23.4823 15.9151V18.5283H21.9861C21.6345 17.8847 21.4337 17.1701 21.3989 16.438H21.4062ZM26.0766 21.1253C25.3306 21.0868 24.6032 20.8799 23.949 20.5201C23.2949 20.1603 22.7312 19.657 22.3003 19.0483H23.9858V15.6367C24.8999 15.0792 25.6276 14.2635 26.0766 13.2931V21.1253ZM26.0766 8.72582C25.6282 7.75304 24.9006 6.93485 23.9858 6.37481V2.96916H22.3003C22.7316 2.36049 23.2954 1.85707 23.9493 1.4966C24.6033 1.13613 25.3305 0.92796 26.0766 0.887678V8.72582ZM33.8743 3.48477V6.09358C33.2153 5.78915 32.5031 5.61599 31.7777 5.58382C31.7497 4.85575 31.5718 4.14123 31.255 3.48477H33.8743ZM28.6768 13.3502V15.0303C28.0683 14.6012 27.565 14.0403 27.2044 13.3896C26.8439 12.739 26.6355 12.0154 26.5949 11.2731C27.3391 11.3136 28.0646 11.5215 28.717 11.8812C29.3694 12.2409 29.9318 12.7431 30.3623 13.3502H28.6768ZM30.678 13.8585C31.027 14.493 31.2278 15.1981 31.2653 15.9209C30.5366 15.8897 29.8246 15.6933 29.1833 15.3467V13.8526L30.678 13.8585ZM30.3623 8.66869C29.9321 9.27639 29.3698 9.77924 28.7174 10.1397C28.065 10.5001 27.3394 10.7088 26.5949 10.7502C26.6363 10.0072 26.845 9.2831 27.2054 8.63163C27.5659 7.98017 28.0688 7.41807 28.6768 6.9871V8.66283L30.3623 8.66869ZM29.1877 8.16041V6.66631C29.8287 6.319 30.5409 6.12259 31.2697 6.09211C31.2322 6.81496 31.0314 7.52 30.6824 8.15455L29.1877 8.16041ZM31.7791 6.09797C32.5122 6.12708 33.2291 6.32192 33.8757 6.66778V8.16041H31.2564C31.5682 7.51509 31.746 6.81356 31.7791 6.09797ZM31.2741 5.58382C30.5516 5.61716 29.8427 5.79186 29.1877 6.09797V3.47891H30.6794C31.0311 4.12555 31.2319 4.84308 31.2667 5.57796L31.2741 5.58382ZM26.5816 0.890606C27.3276 0.930575 28.0547 1.13862 28.7085 1.49913C29.3623 1.85963 29.9257 2.36322 30.3564 2.97209H28.6812V6.37189C27.7685 6.9306 27.0416 7.74597 26.5919 8.71557L26.5816 0.890606ZM26.5816 21.1224V13.2945C27.0313 14.2641 27.7582 15.0795 28.6709 15.6382V19.0439H30.3564C29.9261 19.6528 29.3627 20.1563 28.7088 20.5161C28.0549 20.8759 27.3275 21.0828 26.5816 21.1209V21.1224ZM30.678 18.5297H29.1804V15.9151C29.8323 16.2266 30.5403 16.4044 31.2623 16.438C31.2266 17.1699 31.0258 17.8844 30.675 18.5283L30.678 18.5297ZM33.8655 18.5283H31.2506C31.5639 17.8739 31.7403 17.1626 31.7688 16.438C32.4959 16.4097 33.2094 16.2332 33.8655 15.9194V18.5283ZM33.8655 15.3452C33.2185 15.6903 32.5018 15.885 31.7688 15.9151C31.736 15.1994 31.5582 14.4978 31.2462 13.8526H33.8655V15.3452ZM34.3793 15.0245V13.3443H30.9672C30.4074 12.4332 29.5901 11.7075 28.6181 11.2585H36.4657C36.4275 12.0026 36.2202 12.7283 35.8595 13.3807C35.4989 14.0332 34.9942 14.5953 34.3837 15.0245H34.3793ZM28.6166 10.7487C29.589 10.3003 30.4065 9.57444 30.9657 8.66283H34.3779V6.98124C34.988 7.41114 35.4924 7.97358 35.853 8.62617C36.2136 9.27877 36.4211 10.0045 36.4598 10.7487H28.6166Z" fill="white"/>
<path d="M13.6441 46.1679V47.6283H0V26.4941H1.55779V46.1679H13.6441Z" fill="white"/>
<path d="M19.3771 26.4941H17.8193V47.6268H19.3771V26.4941Z" fill="white"/>
<path d="M44.4856 26.4941L34.6412 47.7835H33.1466L23.3037 26.4941H25.0171L33.8939 45.7313L42.7722 26.4941H44.4856Z" fill="white"/>
<path d="M49.8439 26.4941H48.2861V47.6268H49.8439V26.4941Z" fill="white"/>
<path d="M73.7685 26.4941V47.6283H72.3047L57.6945 29.1674V47.6283H56.1367V26.4941H57.5389L72.2107 45.018V26.4941H73.7685Z" fill="white"/>
<path d="M89.7507 36.7506H100V47.6282H98.6599L98.535 42.4062C97.0668 45.7636 94.1128 48.0003 89.9064 48.0003C83.7076 48.0003 79.0049 43.1518 79.0049 37.1227C79.0049 30.8768 83.9263 26.1221 90.062 26.1221C94.7045 26.1221 98.8786 28.8876 100 33.3318H98.2869C97.2592 29.7269 93.8001 27.5825 90.0649 27.5825C84.7705 27.5825 80.5964 31.7161 80.5964 37.1227C80.5964 42.314 84.5826 46.5091 89.9093 46.5091C94.8322 46.5091 97.9155 42.9043 98.3515 38.2111H89.7537L89.7507 36.7506Z" fill="white"/>
</svg>
