<svg width="133" height="41" viewBox="0 0 133 41" fill="none" xmlns="http://www.w3.org/2000/svg">
<path d="M0 40.4051V0H0.625074C6.02071 0 11.1954 2.12817 15.0106 5.91633C18.8259 9.7045 20.9693 14.8423 20.9693 20.1996C20.9693 25.5569 18.8259 30.6947 15.0106 34.4829C11.1954 38.2711 6.02071 40.3992 0.625074 40.3992L0 40.4051ZM1.24281 1.25V39.1551C6.18246 38.9726 10.8585 36.896 14.2882 33.3616C17.7179 29.8273 19.6341 25.1105 19.6341 20.2025C19.6341 15.2946 17.7179 10.5778 14.2882 7.04346C10.8585 3.50911 6.18246 1.43247 1.24281 1.25Z" fill="#A47449"/>
<path d="M20.2401 20.8203C15.2098 20.8217 10.3574 18.9724 6.61996 15.6296C2.8825 12.2868 0.525079 7.68753 0.00292969 2.72001V2.6559V0.00292969H40.5843V0.620645C40.5849 3.27346 40.0591 5.90039 39.0369 8.35138C38.0147 10.8024 36.5162 13.0294 34.6269 14.9052C32.7377 16.781 30.4947 18.2689 28.0262 19.2838C25.5576 20.2987 22.9119 20.8208 20.2401 20.8203ZM1.24281 2.62385C1.75454 7.39985 4.07209 11.8052 7.72766 14.9508C11.3832 18.0963 16.1046 19.7478 20.9387 19.5717C25.7727 19.3957 30.3596 17.4053 33.7732 14.0024C37.1869 10.5994 39.1733 6.03729 39.3313 1.23691H1.24281V2.62385Z" fill="#A47449"/>
<path d="M30.7223 30.6108H9.75586V9.79492H30.7223V30.6108ZM10.9987 29.3812H29.4868V11.0245H10.9987V29.3812Z" fill="#A47449"/>
<path d="M47.7069 12.2481V20.0409H57.598V21.2851H47.7069V29.4014H46.3438V11.0039H58.7425V12.2481H47.7069Z" fill="#A47449"/>
<path d="M78.7715 20.2025C78.7823 22.099 78.2257 23.956 77.1723 25.5381C76.119 27.1202 74.6162 28.3562 72.8546 29.0893C71.093 29.8225 69.1518 30.0199 67.2771 29.6564C65.4024 29.293 63.6785 28.3851 62.324 27.0478C60.9696 25.7106 60.0455 24.0041 59.6689 22.1448C59.2922 20.2855 59.4801 18.357 60.2085 16.6038C60.937 14.8506 62.1733 13.3516 63.7608 12.2968C65.3482 11.242 67.2153 10.6789 69.1254 10.6789C70.3899 10.6707 71.6436 10.9109 72.8141 11.386C73.9846 11.861 75.0489 12.5613 75.9456 13.4466C76.8423 14.3319 77.5536 15.3846 78.0386 16.5441C78.5236 17.7036 78.7727 18.947 78.7715 20.2025ZM77.382 20.2025C77.3768 18.5823 76.8881 16.9999 75.9777 15.6552C75.0673 14.3105 73.776 13.2639 72.2668 12.6474C70.7577 12.031 69.0984 11.8724 67.4985 12.1916C65.8987 12.5109 64.43 13.2937 63.2779 14.4413C62.1258 15.5888 61.3421 17.0495 61.0257 18.6391C60.7092 20.2286 60.8743 21.8755 61.4999 23.372C62.1256 24.8684 63.1839 26.1472 64.5411 27.0468C65.8983 27.9465 67.4936 28.4266 69.1254 28.4266C70.2123 28.428 71.2887 28.216 72.2928 27.8028C73.2969 27.3897 74.2088 26.7835 74.9761 26.0193C75.7434 25.255 76.351 24.3476 76.7639 23.3494C77.1768 22.3511 77.3868 21.2817 77.382 20.2025Z" fill="#A47449"/>
<path d="M88.3611 22.4491H83.2108V29.4014H81.8477V11.0039H88.4696C92.6118 11.0039 95.4452 13.1688 95.4452 16.7396C95.4452 19.8238 93.3206 21.8533 90.0499 22.3399L96.1275 29.4014H94.3565L88.3611 22.4491ZM83.2108 21.2035H88.4153C91.7667 21.2035 94.0836 19.5529 94.0836 16.7396C94.0836 13.9264 91.7667 12.2481 88.4153 12.2481H83.2123L83.2108 21.2035Z" fill="#A47449"/>
<path d="M115.721 29.4014H114.331L114.358 13.8987L107.492 25.4794H106.456L99.5628 13.8725L99.5892 29.4014H98.2275V11.0039H99.372L106.974 23.855L114.576 11.0039H115.721V29.4014Z" fill="#A47449"/>
<path d="M132.968 15.7923H131.604C131.117 13.355 129.299 11.8689 125.939 11.8689C122.889 11.8689 120.871 13.304 120.871 15.6568C120.871 17.4153 122.18 18.5517 124.604 18.9858L128.011 19.6618C131.198 20.23 133 21.799 133 24.3151C133 27.6149 130.275 29.7259 126.215 29.7259C121.801 29.7259 119.103 27.561 118.585 23.5837H119.975C120.466 26.7495 122.564 28.508 126.269 28.508C129.486 28.508 131.61 26.9389 131.61 24.4505C131.61 22.6921 130.329 21.4202 127.769 20.954L124.09 20.2504C121.009 19.656 119.43 18.0651 119.43 15.6787C119.43 12.6484 122.018 10.6729 125.861 10.6729C129.811 10.6729 132.482 12.4867 132.973 15.7865" fill="#A47449"/>
</svg>
